<svg width="120" height="41" viewBox="0 0 120 41" fill="none" xmlns="http://www.w3.org/2000/svg">
<path d="M110.471 0.140511H9.87062C9.50392 0.140511 9.14162 0.140511 8.77589 0.142511C8.46974 0.144511 8.16603 0.150321 7.85694 0.155211C7.18545 0.163113 6.51554 0.222187 5.85304 0.331921C5.19146 0.444043 4.55061 0.655427 3.95216 0.958921C3.35444 1.26498 2.80828 1.66268 2.33351 2.13758C1.85624 2.61115 1.4584 3.15853 1.15529 3.75867C0.851338 4.35762 0.640578 4.99945 0.530288 5.66199C0.418948 6.3237 0.359036 6.99303 0.351088 7.66399C0.341808 7.97059 0.340827 8.27821 0.335938 8.58485V31.6991C0.340827 32.0096 0.341808 32.3104 0.351088 32.621C0.359038 33.2919 0.418951 33.9612 0.530288 34.6229C0.640273 35.2858 0.851046 35.928 1.15529 36.5272C1.45826 37.1254 1.85616 37.6706 2.33351 38.1415C2.80648 38.6185 3.35299 39.0165 3.95216 39.3202C4.55061 39.6245 5.19139 39.8372 5.85304 39.951C6.51566 40.0599 7.18549 40.119 7.85694 40.1278C8.16603 40.1346 8.46974 40.1385 8.77589 40.1385C9.14161 40.1405 9.50394 40.1405 9.87062 40.1405H110.471C110.83 40.1405 111.195 40.1405 111.555 40.1385C111.859 40.1385 112.172 40.1346 112.477 40.1278C113.147 40.1194 113.815 40.0603 114.477 39.951C115.14 39.8364 115.783 39.6238 116.385 39.3202C116.983 39.0163 117.529 38.6184 118.002 38.1415C118.478 37.6687 118.877 37.124 119.184 36.5272C119.486 35.9276 119.694 35.2855 119.803 34.6229C119.914 33.9611 119.976 33.292 119.988 32.621C119.992 32.3104 119.992 32.0096 119.992 31.6991C120 31.3358 120 30.9745 120 30.6053V9.67664C120 9.31043 120 8.94715 119.992 8.58485C119.992 8.27821 119.992 7.97059 119.988 7.66395C119.976 6.99293 119.914 6.32375 119.803 5.66195C119.694 4.99979 119.485 4.35801 119.184 3.75863C118.566 2.55571 117.588 1.57654 116.385 0.958831C115.783 0.656078 115.14 0.444751 114.477 0.331831C113.815 0.221614 113.147 0.162519 112.477 0.155071C112.172 0.150191 111.859 0.144331 111.555 0.142381C111.195 0.140381 110.83 0.140381 110.471 0.140381V0.140511Z" fill="#A6A6A6"/>
<path d="M8.7808 39.2656C8.47612 39.2656 8.1788 39.2617 7.87651 39.2549C7.2503 39.2468 6.62554 39.1922 6.00737 39.0918C5.43096 38.9925 4.87258 38.8079 4.35063 38.5439C3.83348 38.2822 3.36179 37.9389 2.95363 37.5273C2.53957 37.1206 2.19485 36.6489 1.93312 36.1308C1.66851 35.6094 1.48539 35.0505 1.39012 34.4736C1.28725 33.8537 1.23159 33.2269 1.22362 32.5986C1.21728 32.3877 1.20898 31.6855 1.20898 31.6855V8.58496C1.20898 8.58496 1.21782 7.89355 1.22367 7.69042C1.2313 7.06311 1.28664 6.43728 1.3892 5.81836C1.48464 5.23988 1.66791 4.67937 1.93266 4.15625C2.19343 3.63857 2.53624 3.16649 2.9478 2.75831C3.35891 2.34625 3.83211 2.00123 4.35014 1.73583C4.87089 1.47272 5.42822 1.28936 6.00346 1.1919C6.62366 1.09046 7.25059 1.03562 7.87897 1.02784L8.78129 1.01562H111.55L112.463 1.02833C113.086 1.03572 113.707 1.09007 114.321 1.19091C114.902 1.2896 115.466 1.47424 115.992 1.73877C117.03 2.27361 117.875 3.11979 118.407 4.1587C118.668 4.6782 118.848 5.23413 118.942 5.80761C119.046 6.43162 119.104 7.06236 119.116 7.69483C119.119 7.97802 119.119 8.28222 119.119 8.58496C119.127 8.95996 119.127 9.31689 119.127 9.67675V30.6054C119.127 30.9687 119.127 31.3232 119.119 31.6806C119.119 32.0058 119.119 32.3037 119.115 32.6103C119.104 33.2315 119.046 33.851 118.944 34.4638C118.851 35.0449 118.669 35.6081 118.404 36.1338C118.141 36.6462 117.798 37.1139 117.389 37.5195C116.98 37.9333 116.508 38.2786 115.989 38.542C115.464 38.808 114.902 38.9934 114.321 39.0918C113.703 39.1928 113.078 39.2473 112.452 39.2549C112.159 39.2617 111.853 39.2656 111.555 39.2656L110.471 39.2676L8.7808 39.2656Z" fill="black"/>
<path d="M25.1049 20.4417C25.1157 19.607 25.3374 18.7886 25.7494 18.0627C26.1614 17.3367 26.7504 16.7268 27.4615 16.2896C27.0098 15.6445 26.4138 15.1135 25.721 14.739C25.0282 14.3644 24.2575 14.1566 23.4703 14.1319C21.7911 13.9557 20.1631 15.1368 19.3074 15.1368C18.4352 15.1368 17.1177 14.1494 15.6989 14.1786C14.7813 14.2083 13.8869 14.4751 13.103 14.9532C12.3192 15.4313 11.6725 16.1042 11.226 16.9065C9.29201 20.2549 10.7346 25.176 12.5872 27.8826C13.5141 29.2079 14.5974 30.6884 16.0148 30.6359C17.4019 30.5784 17.9199 29.7514 19.5942 29.7514C21.253 29.7514 21.739 30.6359 23.1852 30.6025C24.6736 30.5783 25.6114 29.2713 26.5058 27.9334C27.1717 26.989 27.6842 25.9453 28.0242 24.8409C27.1595 24.4751 26.4215 23.863 25.9024 23.0807C25.3833 22.2984 25.1059 21.3806 25.1049 20.4417Z" fill="white"/>
<path d="M22.3735 12.3519C23.185 11.3777 23.5848 10.1256 23.488 8.86133C22.2482 8.99155 21.1029 9.58411 20.2804 10.5209C19.8783 10.9786 19.5703 11.511 19.3741 12.0878C19.1778 12.6646 19.0972 13.2744 19.1367 13.8823C19.7569 13.8887 20.3704 13.7543 20.931 13.4892C21.4917 13.2241 21.9849 12.8353 22.3735 12.3519Z" fill="white"/>
<path d="M42.6382 27.2803H37.9048L36.7681 30.6367H34.7632L39.2466 18.2188H41.3296L45.813 30.6367H43.7739L42.6382 27.2803ZM38.395 25.7315H42.147L40.2974 20.2842H40.2456L38.395 25.7315Z" fill="white"/>
<path d="M55.4956 26.1101C55.4956 28.9236 53.9898 30.7312 51.7173 30.7312C51.1417 30.7613 50.5692 30.6287 50.0654 30.3485C49.5616 30.0684 49.1469 29.6521 48.8687 29.1472H48.8257V33.6315H46.9673V21.5827H48.7661V23.0886H48.8003C49.0913 22.5861 49.513 22.1719 50.0206 21.8901C50.5283 21.6082 51.1028 21.4693 51.6831 21.488C53.9809 21.488 55.4956 23.3044 55.4956 26.1101ZM53.5855 26.1101C53.5855 24.2771 52.6382 23.072 51.1929 23.072C49.773 23.072 48.8179 24.3025 48.8179 26.1101C48.8179 27.9343 49.773 29.156 51.1929 29.156C52.6382 29.156 53.5855 27.9597 53.5855 26.1101Z" fill="white"/>
<path d="M65.4605 26.1101C65.4605 28.9235 63.9546 30.7312 61.6822 30.7312C61.1065 30.7613 60.534 30.6287 60.0302 30.3485C59.5264 30.0684 59.1117 29.652 58.8335 29.1472H58.7905V33.6315H56.9321V21.5827H58.7309V23.0886H58.7651C59.0561 22.5861 59.4778 22.1719 59.9854 21.8901C60.4931 21.6082 61.0676 21.4693 61.6479 21.488C63.9458 21.488 65.4605 23.3044 65.4605 26.1101ZM63.5503 26.1101C63.5503 24.2771 62.603 23.072 61.1577 23.072C59.7378 23.072 58.7827 24.3024 58.7827 26.1101C58.7827 27.9343 59.7378 29.156 61.1577 29.156C62.6031 29.156 63.5503 27.9597 63.5503 26.1101H63.5503Z" fill="white"/>
<path d="M72.0464 27.1768C72.1841 28.4083 73.3804 29.2168 75.0152 29.2168C76.5816 29.2168 77.7085 28.4082 77.7085 27.2979C77.7085 26.334 77.0288 25.7569 75.4195 25.3613L73.8101 24.9736C71.5298 24.4229 70.4712 23.3564 70.4712 21.626C70.4712 19.4834 72.3384 18.0117 74.9898 18.0117C77.6138 18.0117 79.4126 19.4834 79.4732 21.626H77.5972C77.4849 20.3867 76.4605 19.6387 74.9634 19.6387C73.4663 19.6387 72.4419 20.3955 72.4419 21.4971C72.4419 22.375 73.0962 22.8916 74.6968 23.2871L76.0649 23.623C78.6128 24.2256 79.6714 25.249 79.6714 27.0654C79.6714 29.3886 77.8208 30.8437 74.8774 30.8437C72.1235 30.8437 70.2642 29.4228 70.144 27.1767L72.0464 27.1768Z" fill="white"/>
<path d="M83.6821 19.4404V21.583H85.4038V23.0547H83.6821V28.0459C83.6821 28.8213 84.0269 29.1826 84.7837 29.1826C84.9881 29.1791 85.1921 29.1647 85.395 29.1396V30.6025C85.0547 30.6661 84.7089 30.6949 84.3628 30.6884C82.5298 30.6884 81.8149 30 81.8149 28.2441V23.0547H80.4985V21.583H81.8149V19.4404H83.6821Z" fill="white"/>
<path d="M86.4009 26.1103C86.4009 23.2617 88.0786 21.4717 90.6948 21.4717C93.3198 21.4717 94.9897 23.2617 94.9897 26.1103C94.9897 28.9668 93.3286 30.749 90.6948 30.749C88.062 30.749 86.4009 28.9668 86.4009 26.1103ZM93.0962 26.1103C93.0962 24.1562 92.2007 23.0029 90.6948 23.0029C89.189 23.0029 88.2944 24.165 88.2944 26.1103C88.2944 28.0723 89.189 29.2168 90.6948 29.2168C92.2007 29.2168 93.0961 28.0723 93.0961 26.1103H93.0962Z" fill="white"/>
<path d="M96.522 21.5826H98.2944V23.1236H98.3374C98.4574 22.6424 98.7393 22.217 99.1359 21.9191C99.5325 21.6213 100.02 21.469 100.515 21.4879C100.729 21.4872 100.943 21.5104 101.152 21.5572V23.2955C100.882 23.2129 100.599 23.175 100.317 23.1832C100.047 23.1723 99.7778 23.2199 99.5279 23.3228C99.2781 23.4256 99.0535 23.5814 98.8695 23.7793C98.6855 23.9772 98.5465 24.2125 98.4621 24.4692C98.3777 24.7259 98.3498 24.9978 98.3804 25.2662V30.6363H96.522L96.522 21.5826Z" fill="white"/>
<path d="M109.72 27.9775C109.47 29.6211 107.87 30.749 105.822 30.749C103.188 30.749 101.553 28.9844 101.553 26.1533C101.553 23.3135 103.197 21.4717 105.744 21.4717C108.249 21.4717 109.824 23.1924 109.824 25.9375V26.5742H103.429V26.6865C103.4 27.0197 103.441 27.3554 103.552 27.6712C103.662 27.9871 103.838 28.2759 104.068 28.5184C104.299 28.7609 104.578 28.9517 104.888 29.078C105.197 29.2043 105.53 29.2633 105.865 29.251C106.304 29.2921 106.745 29.1904 107.121 28.961C107.498 28.7315 107.791 28.3866 107.956 27.9775L109.72 27.9775ZM103.438 25.2754H107.964C107.981 24.9758 107.936 24.676 107.831 24.3948C107.726 24.1136 107.565 23.857 107.356 23.6413C107.148 23.4255 106.897 23.2552 106.619 23.1409C106.342 23.0267 106.044 22.9711 105.744 22.9775C105.441 22.9757 105.141 23.0339 104.861 23.1486C104.581 23.2634 104.326 23.4324 104.112 23.6461C103.898 23.8597 103.728 24.1137 103.612 24.3933C103.496 24.673 103.437 24.9728 103.438 25.2754V25.2754Z" fill="white"/>
<path d="M38.1621 8.87103C38.5517 8.84307 38.9427 8.90193 39.3068 9.04336C39.6709 9.1848 39.9991 9.40528 40.2677 9.6889C40.5363 9.97253 40.7386 10.3122 40.86 10.6835C40.9814 11.0548 41.0188 11.4484 40.9697 11.8359C40.9697 13.7421 39.9395 14.8379 38.1621 14.8379H36.0068V8.87103H38.1621ZM36.9336 13.994H38.0586C38.337 14.0107 38.6156 13.965 38.8741 13.8604C39.1327 13.7558 39.3646 13.5948 39.5531 13.3893C39.7416 13.1837 39.8819 12.9387 39.9638 12.6721C40.0456 12.4055 40.067 12.124 40.0264 11.848C40.0641 11.5732 40.0405 11.2934 39.9574 11.0288C39.8743 10.7641 39.7336 10.5211 39.5456 10.3172C39.3575 10.1132 39.1267 9.95342 38.8696 9.84919C38.6125 9.74495 38.3356 9.69887 38.0586 9.71424H36.9336V13.994Z" fill="white"/>
<path d="M42.0164 12.5844C41.9881 12.2885 42.0219 11.9899 42.1158 11.7079C42.2096 11.4258 42.3614 11.1665 42.5613 10.9465C42.7613 10.7265 43.005 10.5507 43.2768 10.4305C43.5487 10.3102 43.8427 10.248 44.1399 10.248C44.4372 10.248 44.7312 10.3102 45.003 10.4305C45.2749 10.5507 45.5186 10.7265 45.7185 10.9465C45.9185 11.1665 46.0702 11.4258 46.1641 11.7079C46.2579 11.9899 46.2918 12.2885 46.2635 12.5844C46.2923 12.8806 46.2589 13.1796 46.1653 13.4622C46.0717 13.7447 45.92 14.0045 45.72 14.2249C45.52 14.4453 45.2761 14.6215 45.004 14.742C44.7319 14.8625 44.4376 14.9248 44.1399 14.9248C43.8423 14.9248 43.548 14.8625 43.2758 14.742C43.0037 14.6215 42.7598 14.4453 42.5598 14.2249C42.3598 14.0045 42.2082 13.7447 42.1146 13.4622C42.021 13.1796 41.9875 12.8806 42.0164 12.5844ZM45.3494 12.5844C45.3494 11.6084 44.9109 11.0376 44.1414 11.0376C43.3689 11.0376 42.9344 11.6084 42.9344 12.5844C42.9344 13.5683 43.369 14.1347 44.1414 14.1347C44.9109 14.1347 45.3494 13.5644 45.3494 12.5844H45.3494Z" fill="white"/>
<path d="M51.9092 14.8379H50.9873L50.0566 11.5215H49.9863L49.0596 14.8379H48.1465L46.9053 10.335H47.8066L48.6133 13.771H48.6797L49.6055 10.335H50.458L51.3838 13.771H51.4541L52.2568 10.335H53.1455L51.9092 14.8379Z" fill="white"/>
<path d="M54.1895 10.3345H55.0449V11.0498H55.1113C55.224 10.7929 55.414 10.5776 55.6549 10.4337C55.8957 10.2899 56.1755 10.2249 56.4551 10.2476C56.6742 10.2311 56.8942 10.2642 57.0988 10.3443C57.3034 10.4244 57.4873 10.5495 57.637 10.7103C57.7867 10.8711 57.8983 11.0636 57.9635 11.2734C58.0287 11.4832 58.0458 11.705 58.0137 11.9224V14.8374H57.125V12.1456C57.125 11.4219 56.8106 11.0621 56.1533 11.0621C56.0046 11.0551 55.8561 11.0804 55.718 11.1363C55.58 11.1921 55.4556 11.2771 55.3535 11.3855C55.2514 11.4939 55.1739 11.6231 55.1263 11.7642C55.0788 11.9053 55.0624 12.0551 55.0781 12.2032V14.8374H54.1895L54.1895 10.3345Z" fill="white"/>
<path d="M59.4297 8.57715H60.3184V14.8379H59.4297V8.57715Z" fill="white"/>
<path d="M61.5535 12.5845C61.5252 12.2886 61.5591 11.99 61.6529 11.7079C61.7468 11.4258 61.8986 11.1665 62.0985 10.9465C62.2985 10.7265 62.5422 10.5507 62.8141 10.4305C63.086 10.3102 63.38 10.248 63.6773 10.248C63.9745 10.248 64.2686 10.3102 64.5404 10.4305C64.8123 10.5507 65.056 10.7265 65.256 10.9465C65.4559 11.1665 65.6077 11.4258 65.7016 11.7079C65.7954 11.99 65.8293 12.2886 65.801 12.5845C65.8298 12.8807 65.7964 13.1797 65.7027 13.4623C65.6091 13.7448 65.4574 14.0046 65.2574 14.225C65.0574 14.4454 64.8135 14.6215 64.5414 14.7421C64.2692 14.8626 63.9749 14.9249 63.6773 14.9249C63.3796 14.9249 63.0853 14.8626 62.8132 14.7421C62.541 14.6215 62.2971 14.4454 62.0971 14.225C61.8971 14.0046 61.7454 13.7448 61.6518 13.4623C61.5581 13.1797 61.5247 12.8807 61.5535 12.5845ZM64.8865 12.5845C64.8865 11.6084 64.448 11.0376 63.6785 11.0376C62.906 11.0376 62.4715 11.6084 62.4715 12.5845C62.4715 13.5684 62.906 14.1348 63.6785 14.1348C64.448 14.1348 64.8865 13.5645 64.8865 12.5845H64.8865Z" fill="white"/>
<path d="M66.7368 13.5644C66.7368 12.7539 67.3403 12.2866 68.4116 12.2202L69.6313 12.1499V11.7612C69.6313 11.2856 69.3169 11.0171 68.7095 11.0171C68.2134 11.0171 67.8696 11.1992 67.771 11.5176H66.9106C67.0015 10.7441 67.729 10.248 68.7505 10.248C69.8794 10.248 70.5161 10.81 70.5161 11.7612V14.8379H69.6606V14.2051H69.5903C69.4476 14.4321 69.2472 14.6171 69.0096 14.7413C68.772 14.8655 68.5056 14.9245 68.2378 14.9121C68.0488 14.9317 67.8577 14.9116 67.6769 14.8529C67.4962 14.7942 67.3297 14.6982 67.1883 14.5713C67.0469 14.4443 66.9337 14.2891 66.8559 14.1157C66.7781 13.9423 66.7376 13.7545 66.7368 13.5644ZM69.6313 13.1797V12.8032L68.5317 12.8735C67.9116 12.915 67.6304 13.126 67.6304 13.5229C67.6304 13.9282 67.9819 14.164 68.4654 14.164C68.607 14.1784 68.7501 14.1641 68.8861 14.122C69.0221 14.0799 69.1482 14.0109 69.257 13.919C69.3658 13.8272 69.455 13.7144 69.5193 13.5874C69.5836 13.4604 69.6217 13.3217 69.6313 13.1797Z" fill="white"/>
<path d="M71.6841 12.5845C71.6841 11.1616 72.4155 10.2603 73.5532 10.2603C73.8346 10.2473 74.1139 10.3147 74.3585 10.4546C74.603 10.5945 74.8026 10.8011 74.9341 11.0503H75.0005V8.57715H75.8892V14.8379H75.0376V14.1265H74.9673C74.8257 14.3739 74.6191 14.578 74.3698 14.7165C74.1206 14.8549 73.8382 14.9226 73.5532 14.9121C72.4077 14.9121 71.6841 14.0108 71.6841 12.5845ZM72.6021 12.5845C72.6021 13.5396 73.0523 14.1143 73.8052 14.1143C74.5542 14.1143 75.0171 13.5313 75.0171 12.5884C75.0171 11.6499 74.5494 11.0586 73.8052 11.0586C73.0571 11.0586 72.6021 11.6372 72.6021 12.5845H72.6021Z" fill="white"/>
<path d="M79.5657 12.5844C79.5374 12.2885 79.5712 11.9899 79.6651 11.7079C79.7589 11.4258 79.9107 11.1665 80.1106 10.9465C80.3106 10.7265 80.5543 10.5507 80.8261 10.4305C81.098 10.3102 81.392 10.248 81.6892 10.248C81.9865 10.248 82.2805 10.3102 82.5524 10.4305C82.8242 10.5507 83.0679 10.7265 83.2679 10.9465C83.4678 11.1665 83.6196 11.4258 83.7134 11.7079C83.8072 11.9899 83.8411 12.2885 83.8128 12.5844C83.8416 12.8806 83.8082 13.1796 83.7146 13.4622C83.621 13.7447 83.4693 14.0045 83.2693 14.2249C83.0693 14.4453 82.8254 14.6215 82.5533 14.742C82.2812 14.8625 81.9869 14.9248 81.6892 14.9248C81.3916 14.9248 81.0973 14.8625 80.8252 14.742C80.553 14.6215 80.3091 14.4453 80.1092 14.2249C79.9092 14.0045 79.7575 13.7447 79.6639 13.4622C79.5703 13.1796 79.5369 12.8806 79.5657 12.5844ZM82.8987 12.5844C82.8987 11.6084 82.4602 11.0376 81.6907 11.0376C80.9182 11.0376 80.4837 11.6084 80.4837 12.5844C80.4837 13.5683 80.9183 14.1347 81.6907 14.1347C82.4602 14.1347 82.8987 13.5644 82.8987 12.5844Z" fill="white"/>
<path d="M85.0054 10.3345H85.8608V11.0498H85.9273C86.0399 10.7929 86.2299 10.5776 86.4708 10.4337C86.7117 10.2899 86.9914 10.2249 87.271 10.2476C87.4901 10.2311 87.7101 10.2642 87.9147 10.3443C88.1193 10.4244 88.3033 10.5495 88.4529 10.7103C88.6026 10.8711 88.7142 11.0636 88.7794 11.2734C88.8446 11.4832 88.8617 11.705 88.8296 11.9224V14.8374H87.9409V12.1456C87.9409 11.4219 87.6265 11.0621 86.9692 11.0621C86.8205 11.0551 86.672 11.0804 86.5339 11.1363C86.3959 11.1921 86.2715 11.2771 86.1694 11.3855C86.0673 11.4939 85.9898 11.6231 85.9423 11.7642C85.8947 11.9053 85.8783 12.0551 85.894 12.2032V14.8374H85.0054V10.3345Z" fill="white"/>
<path d="M93.8511 9.21387V10.3555H94.8267V11.104H93.8511V13.4194C93.8511 13.8911 94.0454 14.0977 94.4878 14.0977C94.601 14.0973 94.7142 14.0904 94.8267 14.0771V14.8174C94.6671 14.8459 94.5054 14.8611 94.3433 14.8628C93.355 14.8628 92.9614 14.5151 92.9614 13.647V11.104H92.2466V10.3554H92.9614V9.21387H93.8511Z" fill="white"/>
<path d="M96.0405 8.57715H96.9214V11.0586H96.9917C97.1098 10.7993 97.305 10.5827 97.5507 10.4383C97.7964 10.294 98.0807 10.2289 98.3647 10.252C98.5827 10.2401 98.8005 10.2765 99.0028 10.3585C99.2051 10.4406 99.3868 10.5662 99.5349 10.7266C99.683 10.8869 99.7939 11.078 99.8597 11.2861C99.9255 11.4942 99.9445 11.7143 99.9155 11.9307V14.8379H99.0259V12.1499C99.0259 11.4307 98.6909 11.0664 98.063 11.0664C97.9103 11.0539 97.7567 11.0749 97.6129 11.1279C97.4691 11.181 97.3387 11.2648 97.2307 11.3735C97.1227 11.4823 97.0397 11.6133 96.9877 11.7574C96.9356 11.9016 96.9157 12.0553 96.9292 12.208V14.8379H96.0406L96.0405 8.57715Z" fill="white"/>
<path d="M105.097 13.6221C104.977 14.0337 104.715 14.3897 104.358 14.6278C104.002 14.866 103.573 14.9711 103.146 14.9249C102.849 14.9327 102.555 14.8759 102.282 14.7584C102.01 14.6408 101.766 14.4654 101.568 14.2443C101.37 14.0231 101.223 13.7616 101.136 13.4778C101.049 13.1939 101.026 12.8946 101.066 12.6007C101.027 12.3058 101.051 12.0058 101.137 11.7212C101.224 11.4365 101.371 11.1737 101.567 10.9507C101.764 10.7276 102.007 10.5494 102.278 10.4282C102.55 10.307 102.845 10.2456 103.142 10.2481C104.395 10.2481 105.151 11.1041 105.151 12.5181V12.8282H101.971V12.878C101.957 13.0433 101.978 13.2096 102.032 13.3663C102.086 13.5231 102.173 13.6668 102.286 13.7883C102.399 13.9097 102.536 14.0062 102.688 14.0716C102.84 14.137 103.005 14.1699 103.171 14.168C103.383 14.1935 103.598 14.1553 103.789 14.058C103.98 13.9608 104.138 13.8091 104.242 13.6221L105.097 13.6221ZM101.971 12.171H104.246C104.257 12.0198 104.236 11.868 104.185 11.7253C104.134 11.5826 104.054 11.4521 103.95 11.3423C103.845 11.2324 103.719 11.1456 103.579 11.0874C103.439 11.0293 103.289 11.001 103.137 11.0045C102.984 11.0025 102.831 11.0314 102.689 11.0893C102.546 11.1473 102.417 11.2331 102.308 11.3419C102.2 11.4506 102.114 11.5799 102.056 11.7223C101.998 11.8647 101.969 12.0173 101.971 12.171H101.971Z" fill="white"/>
</svg>
