<svg width="15" height="14" viewBox="0 0 15 14" fill="none" xmlns="http://www.w3.org/2000/svg">
<path d="M3.91406 7.79758L7.86406 11.7476C8.04171 11.937 8.13869 12.1882 8.13448 12.4479C8.13026 12.7075 8.02518 12.9554 7.84146 13.139C7.65775 13.3226 7.40982 13.4275 7.15014 13.4315C6.89045 13.4355 6.63938 13.3384 6.45006 13.1606L0.793058 7.50458C0.699873 7.41193 0.625924 7.30177 0.575462 7.18044C0.525001 7.0591 0.499023 6.92899 0.499023 6.79758C0.499023 6.66618 0.525001 6.53606 0.575462 6.41473C0.625924 6.2934 0.699873 6.18324 0.793058 6.09058L6.45006 0.433584C6.5423 0.338074 6.65265 0.261892 6.77465 0.209483C6.89666 0.157074 7.02788 0.129487 7.16066 0.128334C7.29344 0.12718 7.42512 0.152482 7.54801 0.202762C7.67091 0.253043 7.78256 0.327296 7.87645 0.421189C7.97035 0.515082 8.0446 0.626734 8.09488 0.74963C8.14516 0.872526 8.17046 1.00421 8.16931 1.13699C8.16815 1.26976 8.14057 1.40098 8.08816 1.52299C8.03575 1.64499 7.95957 1.75534 7.86406 1.84758L3.91406 5.79758H13.5001C13.7653 5.79758 14.0196 5.90294 14.2072 6.09048C14.3947 6.27801 14.5001 6.53237 14.5001 6.79758C14.5001 7.0628 14.3947 7.31715 14.2072 7.50469C14.0196 7.69223 13.7653 7.79758 13.5001 7.79758H3.91406Z" fill="white"/>
</svg>
