<svg width="1300" height="859" viewBox="0 0 1300 859" fill="none" xmlns="http://www.w3.org/2000/svg">
<g filter="url(#filter0_b_2_7798)">
<g clip-path="url(#clip0_2_7798)">
<rect x="10" y="10.1409" width="1280" height="838" rx="20" fill="white"/>
<path d="M31.0002 34.8346C28.6989 34.8346 26.8335 32.9691 26.8335 30.6679C26.8335 28.3666 28.6989 26.5012 31.0002 26.5012C33.3014 26.5012 35.1668 28.3666 35.1668 30.6679C35.1668 32.9691 33.3014 34.8346 31.0002 34.8346Z" fill="#E11D48"/>
<path d="M46.0002 34.8346C43.6989 34.8346 41.8335 32.9691 41.8335 30.6679C41.8335 28.3666 43.6989 26.5012 46.0002 26.5012C48.3014 26.5012 50.1668 28.3666 50.1668 30.6679C50.1668 32.9691 48.3014 34.8346 46.0002 34.8346Z" fill="#FBBF24"/>
<path d="M61.0002 34.8346C58.6989 34.8346 56.8335 32.9691 56.8335 30.6679C56.8335 28.3666 58.6989 26.5012 61.0002 26.5012C63.3014 26.5012 65.1668 28.3666 65.1668 30.6679C65.1668 32.9691 63.3014 34.8346 61.0002 34.8346Z" fill="#22C55E"/>
<path d="M1231.76 30.6408L1236.71 35.5908C1236.8 35.6831 1236.88 35.7934 1236.93 35.9154C1236.98 36.0374 1237.01 36.1686 1237.01 36.3014C1237.01 36.4342 1236.99 36.5659 1236.94 36.6888C1236.89 36.8117 1236.81 36.9233 1236.72 37.0172C1236.63 37.1111 1236.51 37.1853 1236.39 37.2356C1236.27 37.2859 1236.14 37.3112 1236 37.3101C1235.87 37.3089 1235.74 37.2813 1235.62 37.2289C1235.5 37.1765 1235.39 37.1003 1235.29 37.0048L1229.64 31.3478C1229.45 31.1603 1229.34 30.906 1229.34 30.6408C1229.34 30.3756 1229.45 30.1213 1229.64 29.9338L1235.29 24.2768C1235.48 24.0946 1235.73 23.9939 1236 23.9961C1236.26 23.9984 1236.51 24.1036 1236.69 24.289C1236.88 24.4744 1236.99 24.7252 1236.99 24.9874C1236.99 25.2496 1236.89 25.5022 1236.71 25.6908L1231.76 30.6408Z" fill="#94A3B8"/>
<path d="M1263.31 30.7119L1258.36 25.7619C1258.18 25.5732 1258.08 25.3206 1258.08 25.0584C1258.09 24.7963 1258.19 24.5454 1258.38 24.36C1258.56 24.1746 1258.81 24.0695 1259.07 24.0672C1259.34 24.0649 1259.59 24.1657 1259.78 24.3479L1265.44 30.0049C1265.62 30.1924 1265.73 30.4467 1265.73 30.7119C1265.73 30.977 1265.62 31.2313 1265.44 31.4189L1259.78 37.0759C1259.59 37.258 1259.34 37.3588 1259.07 37.3565C1258.81 37.3542 1258.56 37.2491 1258.38 37.0637C1258.19 36.8783 1258.09 36.6274 1258.08 36.3653C1258.08 36.1031 1258.18 35.8505 1258.36 35.6618L1263.31 30.7119Z" fill="#475569"/>
<rect x="363.181" y="18.1409" width="575.888" height="25" rx="5" fill="#F1F5F9"/>
<path d="M627.605 28.801V29.6331H624.178V28.801H627.605ZM625.338 27.26H626.422V33.5706C626.422 33.7854 626.455 33.9475 626.521 34.0569C626.588 34.1663 626.674 34.2385 626.779 34.2737C626.885 34.3088 626.998 34.3264 627.119 34.3264C627.209 34.3264 627.303 34.3186 627.4 34.303C627.502 34.2834 627.578 34.2678 627.629 34.2561L627.635 35.1409C627.549 35.1682 627.436 35.1936 627.295 35.217C627.158 35.2444 626.992 35.2581 626.797 35.2581C626.531 35.2581 626.287 35.2053 626.064 35.0999C625.842 34.9944 625.664 34.8186 625.531 34.5725C625.402 34.3225 625.338 33.9866 625.338 33.5647V27.26ZM629.961 29.7971V35.1409H628.877V28.801H629.932L629.961 29.7971ZM631.941 28.7659L631.936 29.7737C631.846 29.7542 631.76 29.7424 631.678 29.7385C631.6 29.7307 631.51 29.7268 631.408 29.7268C631.158 29.7268 630.938 29.7659 630.746 29.844C630.555 29.9221 630.393 30.0315 630.26 30.1721C630.127 30.3127 630.021 30.4807 629.943 30.676C629.869 30.8674 629.82 31.0784 629.797 31.3088L629.492 31.4846C629.492 31.1018 629.529 30.7424 629.604 30.4065C629.682 30.0706 629.801 29.7737 629.961 29.5159C630.121 29.2542 630.324 29.051 630.57 28.9065C630.82 28.7581 631.117 28.6838 631.461 28.6838C631.539 28.6838 631.629 28.6936 631.73 28.7131C631.832 28.7288 631.902 28.7463 631.941 28.7659ZM636.447 34.0569V30.7932C636.447 30.5432 636.396 30.3264 636.295 30.1428C636.197 29.9553 636.049 29.8108 635.85 29.7092C635.65 29.6077 635.404 29.5569 635.111 29.5569C634.838 29.5569 634.598 29.6038 634.391 29.6975C634.188 29.7913 634.027 29.9143 633.91 30.0667C633.797 30.219 633.74 30.3831 633.74 30.5588H632.656C632.656 30.3323 632.715 30.1077 632.832 29.885C632.949 29.6624 633.117 29.4612 633.336 29.2815C633.559 29.0979 633.824 28.9534 634.133 28.8479C634.445 28.7385 634.793 28.6838 635.176 28.6838C635.637 28.6838 636.043 28.762 636.395 28.9182C636.75 29.0745 637.027 29.3108 637.227 29.6272C637.43 29.9397 637.531 30.3323 637.531 30.8049V33.7581C637.531 33.969 637.549 34.1936 637.584 34.4319C637.623 34.6702 637.68 34.8752 637.754 35.0471V35.1409H636.623C636.568 35.0159 636.525 34.8499 636.494 34.6428C636.463 34.4319 636.447 34.2366 636.447 34.0569ZM636.635 31.2971L636.646 32.0588H635.551C635.242 32.0588 634.967 32.0842 634.725 32.135C634.482 32.1819 634.279 32.2542 634.115 32.3518C633.951 32.4495 633.826 32.5725 633.74 32.7209C633.654 32.8655 633.611 33.0354 633.611 33.2307C633.611 33.4299 633.656 33.6116 633.746 33.7756C633.836 33.9397 633.971 34.0706 634.15 34.1682C634.334 34.262 634.559 34.3088 634.824 34.3088C635.156 34.3088 635.449 34.2385 635.703 34.0979C635.957 33.9573 636.158 33.7854 636.307 33.5823C636.459 33.3792 636.541 33.1819 636.553 32.9905L637.016 33.512C636.988 33.676 636.914 33.8577 636.793 34.0569C636.672 34.2561 636.51 34.4475 636.307 34.6311C636.107 34.8108 635.869 34.9612 635.592 35.0823C635.318 35.1995 635.01 35.2581 634.666 35.2581C634.236 35.2581 633.859 35.1741 633.535 35.0061C633.215 34.8381 632.965 34.6135 632.785 34.3323C632.609 34.0471 632.521 33.7288 632.521 33.3772C632.521 33.0374 632.588 32.7385 632.721 32.4807C632.854 32.219 633.045 32.0022 633.295 31.8303C633.545 31.6545 633.846 31.5217 634.197 31.4319C634.549 31.342 634.941 31.2971 635.375 31.2971H636.635ZM640.326 26.1409V35.1409H639.236V26.1409H640.326ZM644.199 28.801L641.434 31.76L639.887 33.3655L639.799 32.2112L640.906 30.887L642.875 28.801H644.199ZM643.209 35.1409L640.947 32.1174L641.51 31.1506L644.486 35.1409H643.209ZM645.031 32.0413V31.9065C645.031 31.4495 645.098 31.0256 645.23 30.635C645.363 30.2405 645.555 29.8987 645.805 29.6096C646.055 29.3167 646.357 29.0901 646.713 28.9299C647.068 28.7659 647.467 28.6838 647.908 28.6838C648.354 28.6838 648.754 28.7659 649.109 28.9299C649.469 29.0901 649.773 29.3167 650.023 29.6096C650.277 29.8987 650.471 30.2405 650.604 30.635C650.736 31.0256 650.803 31.4495 650.803 31.9065V32.0413C650.803 32.4983 650.736 32.9221 650.604 33.3127C650.471 33.7034 650.277 34.0452 650.023 34.3381C649.773 34.6272 649.471 34.8538 649.115 35.0178C648.764 35.178 648.365 35.2581 647.92 35.2581C647.475 35.2581 647.074 35.178 646.719 35.0178C646.363 34.8538 646.059 34.6272 645.805 34.3381C645.555 34.0452 645.363 33.7034 645.23 33.3127C645.098 32.9221 645.031 32.4983 645.031 32.0413ZM646.115 31.9065V32.0413C646.115 32.3577 646.152 32.6565 646.227 32.9377C646.301 33.2151 646.412 33.4612 646.561 33.676C646.713 33.8909 646.902 34.0608 647.129 34.1858C647.355 34.3069 647.619 34.3674 647.92 34.3674C648.217 34.3674 648.477 34.3069 648.699 34.1858C648.926 34.0608 649.113 33.8909 649.262 33.676C649.41 33.4612 649.521 33.2151 649.596 32.9377C649.674 32.6565 649.713 32.3577 649.713 32.0413V31.9065C649.713 31.594 649.674 31.2991 649.596 31.0217C649.521 30.7405 649.408 30.4924 649.256 30.2776C649.107 30.0588 648.92 29.887 648.693 29.762C648.471 29.637 648.209 29.5745 647.908 29.5745C647.611 29.5745 647.35 29.637 647.123 29.762C646.9 29.887 646.713 30.0588 646.561 30.2776C646.412 30.4924 646.301 30.7405 646.227 31.0217C646.152 31.2991 646.115 31.594 646.115 31.9065ZM653.246 29.7971V35.1409H652.162V28.801H653.217L653.246 29.7971ZM655.227 28.7659L655.221 29.7737C655.131 29.7542 655.045 29.7424 654.963 29.7385C654.885 29.7307 654.795 29.7268 654.693 29.7268C654.443 29.7268 654.223 29.7659 654.031 29.844C653.84 29.9221 653.678 30.0315 653.545 30.1721C653.412 30.3127 653.307 30.4807 653.229 30.676C653.154 30.8674 653.105 31.0784 653.082 31.3088L652.777 31.4846C652.777 31.1018 652.814 30.7424 652.889 30.4065C652.967 30.0706 653.086 29.7737 653.246 29.5159C653.406 29.2542 653.609 29.051 653.855 28.9065C654.105 28.7581 654.402 28.6838 654.746 28.6838C654.824 28.6838 654.914 28.6936 655.016 28.7131C655.117 28.7288 655.188 28.7463 655.227 28.7659ZM655.52 34.5667C655.52 34.3831 655.576 34.2288 655.689 34.1038C655.807 33.9749 655.975 33.9104 656.193 33.9104C656.412 33.9104 656.578 33.9749 656.691 34.1038C656.809 34.2288 656.867 34.3831 656.867 34.5667C656.867 34.7463 656.809 34.8987 656.691 35.0237C656.578 35.1487 656.412 35.2112 656.193 35.2112C655.975 35.2112 655.807 35.1487 655.689 35.0237C655.576 34.8987 655.52 34.7463 655.52 34.5667ZM662.404 34.0569V30.7932C662.404 30.5432 662.354 30.3264 662.252 30.1428C662.154 29.9553 662.006 29.8108 661.807 29.7092C661.607 29.6077 661.361 29.5569 661.068 29.5569C660.795 29.5569 660.555 29.6038 660.348 29.6975C660.145 29.7913 659.984 29.9143 659.867 30.0667C659.754 30.219 659.697 30.3831 659.697 30.5588H658.613C658.613 30.3323 658.672 30.1077 658.789 29.885C658.906 29.6624 659.074 29.4612 659.293 29.2815C659.516 29.0979 659.781 28.9534 660.09 28.8479C660.402 28.7385 660.75 28.6838 661.133 28.6838C661.594 28.6838 662 28.762 662.352 28.9182C662.707 29.0745 662.984 29.3108 663.184 29.6272C663.387 29.9397 663.488 30.3323 663.488 30.8049V33.7581C663.488 33.969 663.506 34.1936 663.541 34.4319C663.58 34.6702 663.637 34.8752 663.711 35.0471V35.1409H662.58C662.525 35.0159 662.482 34.8499 662.451 34.6428C662.42 34.4319 662.404 34.2366 662.404 34.0569ZM662.592 31.2971L662.604 32.0588H661.508C661.199 32.0588 660.924 32.0842 660.682 32.135C660.439 32.1819 660.236 32.2542 660.072 32.3518C659.908 32.4495 659.783 32.5725 659.697 32.7209C659.611 32.8655 659.568 33.0354 659.568 33.2307C659.568 33.4299 659.613 33.6116 659.703 33.7756C659.793 33.9397 659.928 34.0706 660.107 34.1682C660.291 34.262 660.516 34.3088 660.781 34.3088C661.113 34.3088 661.406 34.2385 661.66 34.0979C661.914 33.9573 662.115 33.7854 662.264 33.5823C662.416 33.3792 662.498 33.1819 662.51 32.9905L662.973 33.512C662.945 33.676 662.871 33.8577 662.75 34.0569C662.629 34.2561 662.467 34.4475 662.264 34.6311C662.064 34.8108 661.826 34.9612 661.549 35.0823C661.275 35.1995 660.967 35.2581 660.623 35.2581C660.193 35.2581 659.816 35.1741 659.492 35.0061C659.172 34.8381 658.922 34.6135 658.742 34.3323C658.566 34.0471 658.479 33.7288 658.479 33.3772C658.479 33.0374 658.545 32.7385 658.678 32.4807C658.811 32.219 659.002 32.0022 659.252 31.8303C659.502 31.6545 659.803 31.5217 660.154 31.4319C660.506 31.342 660.898 31.2971 661.332 31.2971H662.592ZM666.277 30.0198V37.5784H665.188V28.801H666.184L666.277 30.0198ZM670.549 31.9182V32.0413C670.549 32.5022 670.494 32.9299 670.385 33.3245C670.275 33.7151 670.115 34.0549 669.904 34.344C669.697 34.6331 669.441 34.8577 669.137 35.0178C668.832 35.178 668.482 35.2581 668.088 35.2581C667.686 35.2581 667.33 35.1917 667.021 35.0588C666.713 34.926 666.451 34.7327 666.236 34.4788C666.021 34.2249 665.85 33.9202 665.721 33.5647C665.596 33.2092 665.51 32.8088 665.463 32.3635V31.7073C665.51 31.2385 665.598 30.8186 665.727 30.4475C665.855 30.0764 666.025 29.76 666.236 29.4983C666.451 29.2327 666.711 29.0315 667.016 28.8948C667.32 28.7542 667.672 28.6838 668.07 28.6838C668.469 28.6838 668.822 28.762 669.131 28.9182C669.439 29.0706 669.699 29.2893 669.91 29.5745C670.121 29.8596 670.279 30.2014 670.385 30.5999C670.494 30.9944 670.549 31.4338 670.549 31.9182ZM669.459 32.0413V31.9182C669.459 31.6018 669.426 31.3049 669.359 31.0276C669.293 30.7463 669.189 30.5002 669.049 30.2893C668.912 30.0745 668.736 29.9065 668.521 29.7854C668.307 29.6604 668.051 29.5979 667.754 29.5979C667.48 29.5979 667.242 29.6448 667.039 29.7385C666.84 29.8323 666.67 29.9592 666.529 30.1194C666.389 30.2756 666.273 30.4553 666.184 30.6584C666.098 30.8577 666.033 31.0647 665.99 31.2795V32.7971C666.068 33.0706 666.178 33.3284 666.318 33.5706C666.459 33.8088 666.646 34.0022 666.881 34.1506C667.115 34.2952 667.41 34.3674 667.766 34.3674C668.059 34.3674 668.311 34.3069 668.521 34.1858C668.736 34.0608 668.912 33.8909 669.049 33.676C669.189 33.4612 669.293 33.2151 669.359 32.9377C669.426 32.6565 669.459 32.3577 669.459 32.0413ZM673.016 30.0198V37.5784H671.926V28.801H672.922L673.016 30.0198ZM677.287 31.9182V32.0413C677.287 32.5022 677.232 32.9299 677.123 33.3245C677.014 33.7151 676.854 34.0549 676.643 34.344C676.436 34.6331 676.18 34.8577 675.875 35.0178C675.57 35.178 675.221 35.2581 674.826 35.2581C674.424 35.2581 674.068 35.1917 673.76 35.0588C673.451 34.926 673.189 34.7327 672.975 34.4788C672.76 34.2249 672.588 33.9202 672.459 33.5647C672.334 33.2092 672.248 32.8088 672.201 32.3635V31.7073C672.248 31.2385 672.336 30.8186 672.465 30.4475C672.594 30.0764 672.764 29.76 672.975 29.4983C673.189 29.2327 673.449 29.0315 673.754 28.8948C674.059 28.7542 674.41 28.6838 674.809 28.6838C675.207 28.6838 675.561 28.762 675.869 28.9182C676.178 29.0706 676.438 29.2893 676.648 29.5745C676.859 29.8596 677.018 30.2014 677.123 30.5999C677.232 30.9944 677.287 31.4338 677.287 31.9182ZM676.197 32.0413V31.9182C676.197 31.6018 676.164 31.3049 676.098 31.0276C676.031 30.7463 675.928 30.5002 675.787 30.2893C675.65 30.0745 675.475 29.9065 675.26 29.7854C675.045 29.6604 674.789 29.5979 674.492 29.5979C674.219 29.5979 673.98 29.6448 673.777 29.7385C673.578 29.8323 673.408 29.9592 673.268 30.1194C673.127 30.2756 673.012 30.4553 672.922 30.6584C672.836 30.8577 672.771 31.0647 672.729 31.2795V32.7971C672.807 33.0706 672.916 33.3284 673.057 33.5706C673.197 33.8088 673.385 34.0022 673.619 34.1506C673.854 34.2952 674.148 34.3674 674.504 34.3674C674.797 34.3674 675.049 34.3069 675.26 34.1858C675.475 34.0608 675.65 33.8909 675.787 33.676C675.928 33.4612 676.031 33.2151 676.098 32.9377C676.164 32.6565 676.197 32.3577 676.197 32.0413Z" fill="#94A3B8"/>
<rect x="10" y="51.1409" width="1280" height="797" fill="#DBEAFE"/>
<path d="M10 52.2036H224.405V848.141H10V52.2036Z" fill="#BFDBFE"/>
<path d="M35.7285 127.653C35.7285 120.61 41.4881 114.901 48.5928 114.901H185.812C192.917 114.901 198.677 120.61 198.677 127.653C198.677 134.696 192.917 140.405 185.812 140.405H48.5928C41.4881 140.405 35.7285 134.696 35.7285 127.653Z" fill="#93C5FD"/>
<path d="M87.186 216.917C87.186 213.395 90.0658 210.541 93.6182 210.541H200.821C204.373 210.541 207.253 213.395 207.253 216.917C207.253 220.438 204.373 223.293 200.821 223.293H93.6182C90.0658 223.293 87.186 220.438 87.186 216.917Z" fill="white"/>
<path d="M87.186 284.928C87.186 281.406 90.0658 278.552 93.6182 278.552H167.588C171.14 278.552 174.02 281.406 174.02 284.928C174.02 288.449 171.14 291.304 167.588 291.304H93.6182C90.0658 291.304 87.186 288.449 87.186 284.928Z" fill="white"/>
<path d="M87.186 352.938C87.186 349.417 90.0658 346.562 93.6182 346.562H185.812C189.365 346.562 192.245 349.417 192.245 352.938C192.245 356.46 189.365 359.314 185.812 359.314H93.6182C90.0658 359.314 87.186 356.46 87.186 352.938Z" fill="white"/>
<path fill-rule="evenodd" clip-rule="evenodd" d="M52.8809 230.732C60.5778 230.732 66.8173 224.547 66.8173 216.917C66.8173 209.287 60.5778 203.102 52.8809 203.102C45.1841 203.102 38.9446 209.287 38.9446 216.917C38.9446 224.547 45.1841 230.732 52.8809 230.732ZM52.8809 233.92C62.354 233.92 70.0334 226.307 70.0334 216.917C70.0334 207.527 62.354 199.914 52.8809 199.914C43.4079 199.914 35.7285 207.527 35.7285 216.917C35.7285 226.307 43.4079 233.92 52.8809 233.92Z" fill="#93C5FD"/>
<path d="M293.015 127.653C293.015 122.958 296.855 119.152 301.591 119.152H425.946C430.683 119.152 434.523 122.958 434.523 127.653C434.523 132.348 430.683 136.154 425.946 136.154H301.591C296.855 136.154 293.015 132.348 293.015 127.653Z" fill="#BFDBFE"/>
<path fill-rule="evenodd" clip-rule="evenodd" d="M520.821 470.427C520.884 464.366 525.741 459.205 531.985 459.205C535.817 459.205 538.636 461.085 540.435 462.856C540.936 463.349 541.365 463.84 541.725 464.294C542.085 463.84 542.515 463.349 543.016 462.856C544.815 461.085 547.634 459.205 551.466 459.205C557.71 459.205 562.567 464.366 562.63 470.427L562.63 470.428C562.749 482.249 553.166 490.428 543.534 496.909C543.001 497.269 542.371 497.461 541.725 497.461C541.08 497.461 540.45 497.269 539.916 496.909C530.283 490.428 520.701 482.249 520.821 470.427L520.821 470.427ZM543.162 467.892C542.889 468.429 542.333 468.769 541.725 468.769C541.118 468.769 540.562 468.429 540.289 467.892C540.289 467.891 540.288 467.89 540.287 467.888C540.285 467.884 540.282 467.878 540.277 467.869C540.275 467.865 540.272 467.86 540.269 467.854C540.251 467.82 540.221 467.766 540.179 467.693C540.095 467.547 539.963 467.33 539.784 467.065C539.425 466.533 538.886 465.823 538.169 465.118C536.728 463.7 534.677 462.393 531.985 462.393C527.623 462.393 524.083 466.026 524.037 470.46M543.162 467.892C543.162 467.891 543.163 467.89 543.164 467.888C543.167 467.882 543.173 467.871 543.182 467.854C543.2 467.82 543.23 467.766 543.272 467.693C543.356 467.547 543.488 467.33 543.666 467.065C544.026 466.533 544.565 465.823 545.282 465.118C546.722 463.7 548.774 462.393 551.466 462.393C555.828 462.393 559.368 466.026 559.414 470.459C559.514 480.421 551.443 487.734 541.727 494.272L541.725 494.273L541.724 494.272C532.007 487.734 523.936 480.421 524.037 470.46" fill="white"/>
<path d="M293.015 478.333C293.015 473.638 296.855 469.832 301.591 469.832H359.481C364.217 469.832 368.057 473.638 368.057 478.333C368.057 483.028 364.217 486.834 359.481 486.834H301.591C296.855 486.834 293.015 483.028 293.015 478.333Z" fill="#BFDBFE"/>
<path d="M385.209 478.333C385.209 473.638 389.049 469.832 393.786 469.832H490.268C495.005 469.832 498.844 473.638 498.844 478.333C498.844 483.028 495.005 486.834 490.268 486.834H393.786C389.049 486.834 385.209 483.028 385.209 478.333Z" fill="#BFDBFE"/>
<path d="M293.015 561.221C293.015 557.699 295.895 554.845 299.447 554.845H389.498C393.05 554.845 395.93 557.699 395.93 561.221C395.93 564.742 393.05 567.597 389.498 567.597H299.447C295.895 567.597 293.015 564.742 293.015 561.221Z" fill="white"/>
<path d="M293.015 590.975C293.015 587.454 295.895 584.599 299.447 584.599H437.739C441.291 584.599 444.171 587.454 444.171 590.975C444.171 594.497 441.291 597.351 437.739 597.351H299.447C295.895 597.351 293.015 594.497 293.015 590.975Z" fill="white"/>
<path d="M413.082 561.221C413.082 557.699 415.962 554.845 419.514 554.845H526.717C530.269 554.845 533.149 557.699 533.149 561.221C533.149 564.742 530.269 567.597 526.717 567.597H419.514C415.962 567.597 413.082 564.742 413.082 561.221Z" fill="white"/>
<path d="M293.015 210.541C293.015 207.019 295.895 204.165 299.447 204.165H389.498C393.05 204.165 395.93 207.019 395.93 210.541C395.93 214.062 393.05 216.917 389.498 216.917H299.447C295.895 216.917 293.015 214.062 293.015 210.541Z" fill="white"/>
<path d="M293.015 240.295C293.015 236.774 295.895 233.919 299.447 233.919H521.357C524.909 233.919 527.789 236.774 527.789 240.295C527.789 243.817 524.909 246.671 521.357 246.671H299.447C295.895 246.671 293.015 243.817 293.015 240.295Z" fill="white"/>
<path d="M413.082 210.541C413.082 207.019 415.962 204.165 419.514 204.165H663.936C667.489 204.165 670.368 207.019 670.368 210.541C670.368 214.062 667.489 216.917 663.936 216.917H419.514C415.962 216.917 413.082 214.062 413.082 210.541Z" fill="white"/>
<path fill-rule="evenodd" clip-rule="evenodd" d="M67.8896 271.113H40.0169V298.742H67.8896V271.113ZM36.8008 267.925V301.93H71.1056V267.925H36.8008Z" fill="#60A5FA"/>
<g clip-path="url(#clip1_2_7798)">
<rect x="752.915" y="127.653" width="214.405" height="291.171" rx="20" fill="white"/>
<path d="M895.736 419.075C895.736 492.755 835.98 552.484 762.266 552.484C688.553 552.484 628.796 492.755 628.796 419.075C628.796 345.395 688.553 285.666 762.266 285.666C835.98 285.666 895.736 345.395 895.736 419.075Z" fill="#FACC15"/>
<path fill-rule="evenodd" clip-rule="evenodd" d="M997.084 241.051L927.345 171.92L857.605 241.051L927.345 310.181L997.084 241.051ZM927.345 165.909L851.541 241.051L927.345 316.193L1003.15 241.051L927.345 165.909Z" fill="#BFDBFE"/>
</g>
<path d="M53.9532 338.061L71.1056 367.51H36.8008L53.9532 338.061Z" fill="#93C5FD"/>
<rect x="1001.62" y="127.653" width="214.405" height="214.659" rx="20" fill="white"/>
<path fill-rule="evenodd" clip-rule="evenodd" d="M1098.07 287.708C1119.45 287.708 1136.63 270.689 1136.63 249.874C1136.63 229.058 1119.45 212.04 1098.07 212.04C1076.7 212.04 1059.51 229.058 1059.51 249.874C1059.51 270.689 1076.7 287.708 1098.07 287.708ZM1098.07 298.335C1125.29 298.335 1147.35 276.638 1147.35 249.874C1147.35 223.11 1125.29 201.413 1098.07 201.413C1070.86 201.413 1048.79 223.11 1048.79 249.874C1048.79 276.638 1070.86 298.335 1098.07 298.335Z" fill="#BFDBFE"/>
<path d="M1120.47 234.535L1134.65 182.087L1173.38 220.481L1120.47 234.535Z" fill="#FACC15"/>
<g clip-path="url(#clip2_2_7798)">
<rect x="752.915" y="452.829" width="214.405" height="325.176" rx="20" fill="white"/>
<path fill-rule="evenodd" clip-rule="evenodd" d="M953.92 819.449C1014.01 819.449 1062.73 771.158 1062.73 711.588C1062.73 652.018 1014.01 603.727 953.92 603.727C893.825 603.727 845.109 652.018 845.109 711.588C845.109 771.158 893.825 819.449 953.92 819.449ZM953.92 830.076C1019.93 830.076 1073.45 777.027 1073.45 711.588C1073.45 646.149 1019.93 593.101 953.92 593.101C887.905 593.101 834.389 646.149 834.389 711.588C834.389 777.027 887.905 830.076 953.92 830.076Z" fill="#FACC15"/>
<path d="M865.477 549.772C865.477 569.859 848.918 586.143 828.492 586.143C808.066 586.143 791.507 569.859 791.507 549.772C791.507 529.685 808.066 513.401 828.492 513.401C848.918 513.401 865.477 529.685 865.477 549.772Z" fill="#BFDBFE"/>
<path fill-rule="evenodd" clip-rule="evenodd" d="M828.492 582.955C847.166 582.955 862.261 568.075 862.261 549.772C862.261 531.469 847.166 516.589 828.492 516.589C809.818 516.589 794.723 531.469 794.723 549.772C794.723 568.075 809.818 582.955 828.492 582.955ZM828.492 586.143C848.918 586.143 865.477 569.859 865.477 549.772C865.477 529.685 848.918 513.401 828.492 513.401C808.066 513.401 791.507 529.685 791.507 549.772C791.507 569.859 808.066 586.143 828.492 586.143Z" fill="#BFDBFE"/>
</g>
<g clip-path="url(#clip3_2_7798)">
<rect x="1001.62" y="376.317" width="214.405" height="363.432" rx="20" fill="white"/>
<path d="M1265.34 638.264C1265.34 664.381 1244.23 685.553 1218.17 685.553C1192.12 685.553 1171.01 664.381 1171.01 638.264C1171.01 612.147 1192.12 590.976 1218.17 590.976C1244.23 590.976 1265.34 612.147 1265.34 638.264Z" fill="white"/>
<path fill-rule="evenodd" clip-rule="evenodd" d="M1218.17 682.365C1242.41 682.365 1262.13 662.654 1262.13 638.264C1262.13 613.874 1242.41 594.164 1218.17 594.164C1193.93 594.164 1174.22 613.874 1174.22 638.264C1174.22 662.654 1193.93 682.365 1218.17 682.365ZM1218.17 685.553C1244.23 685.553 1265.34 664.381 1265.34 638.264C1265.34 612.147 1244.23 590.976 1218.17 590.976C1192.12 590.976 1171.01 612.147 1171.01 638.264C1171.01 664.381 1192.12 685.553 1218.17 685.553Z" fill="#BFDBFE"/>
<path d="M1179.58 504.368C1179.58 539.288 1151.26 567.597 1116.33 567.597C1081.4 567.597 1053.08 539.288 1053.08 504.368C1053.08 469.448 1081.4 441.14 1116.33 441.14C1151.26 441.14 1179.58 469.448 1179.58 504.368Z" fill="#BFDBFE"/>
<path d="M1041.29 626.044L1044.31 634.669L1053.52 634.855L1046.18 640.372L1048.85 649.112L1041.29 643.896L1033.73 649.112L1036.4 640.372L1029.06 634.855L1038.27 634.669L1041.29 626.044Z" fill="#FACC15"/>
<path d="M1085.24 626.044L1088.27 634.669L1097.48 634.855L1090.14 640.372L1092.8 649.112L1085.24 643.896L1077.68 649.112L1080.35 640.372L1073.01 634.855L1082.22 634.669L1085.24 626.044Z" fill="#FACC15"/>
<path d="M1129.2 626.044L1132.22 634.669L1141.43 634.855L1134.09 640.372L1136.76 649.112L1129.2 643.896L1121.63 649.112L1124.3 640.372L1116.96 634.855L1126.17 634.669L1129.2 626.044Z" fill="#FACC15"/>
<path d="M1173.15 626.044L1176.17 634.669L1185.38 634.855L1178.04 640.372L1180.71 649.112L1173.15 643.896L1165.59 649.112L1168.26 640.372L1160.91 634.855L1170.12 634.669L1173.15 626.044Z" fill="#FACC15"/>
<path d="M1217.1 626.044L1220.13 634.669L1229.34 634.855L1222 640.372L1224.66 649.112L1217.1 643.896L1209.54 649.112L1212.21 640.372L1204.87 634.855L1214.08 634.669L1217.1 626.044Z" fill="#FACC15"/>
</g>
</g>
<rect x="5" y="5.14087" width="1290" height="848" rx="25" stroke="white" stroke-opacity="0.07" stroke-width="10"/>
</g>
<defs>
<filter id="filter0_b_2_7798" x="-50" y="-49.8591" width="1400" height="958" filterUnits="userSpaceOnUse" color-interpolation-filters="sRGB">
<feFlood flood-opacity="0" result="BackgroundImageFix"/>
<feGaussianBlur in="BackgroundImageFix" stdDeviation="25"/>
<feComposite in2="SourceAlpha" operator="in" result="effect1_backgroundBlur_2_7798"/>
<feBlend mode="normal" in="SourceGraphic" in2="effect1_backgroundBlur_2_7798" result="shape"/>
</filter>
<clipPath id="clip0_2_7798">
<rect x="10" y="10.1409" width="1280" height="838" rx="20" fill="white"/>
</clipPath>
<clipPath id="clip1_2_7798">
<rect x="752.915" y="127.653" width="214.405" height="291.171" rx="20" fill="white"/>
</clipPath>
<clipPath id="clip2_2_7798">
<rect x="752.915" y="452.829" width="214.405" height="325.176" rx="20" fill="white"/>
</clipPath>
<clipPath id="clip3_2_7798">
<rect x="1001.62" y="376.317" width="214.405" height="363.432" rx="20" fill="white"/>
</clipPath>
</defs>
</svg>
