<svg width="135" height="41" viewBox="0 0 135 41" fill="none" xmlns="http://www.w3.org/2000/svg">
<path d="M130 0.140625H5C2.23858 0.140625 0 2.3792 0 5.14062V35.1406C0 37.9021 2.23858 40.1406 5 40.1406H130C132.761 40.1406 135 37.9021 135 35.1406V5.14062C135 2.3792 132.761 0.140625 130 0.140625Z" fill="black"/>
<path d="M130 0.940625C131.114 0.940625 132.182 1.38312 132.97 2.17078C133.758 2.95843 134.2 4.02672 134.2 5.14062V35.1406C134.2 36.2545 133.758 37.3228 132.97 38.1105C132.182 38.8981 131.114 39.3406 130 39.3406H5C3.88609 39.3406 2.8178 38.8981 2.03015 38.1105C1.2425 37.3228 0.8 36.2545 0.8 35.1406V5.14062C0.8 4.02672 1.2425 2.95843 2.03015 2.17078C2.8178 1.38312 3.88609 0.940625 5 0.940625H130ZM130 0.140625H5C3.67392 0.140625 2.40215 0.667409 1.46447 1.60509C0.526784 2.54277 0 3.81454 0 5.14062V35.1406C0 36.4667 0.526784 37.7385 1.46447 38.6762C2.40215 39.6138 3.67392 40.1406 5 40.1406H130C131.326 40.1406 132.598 39.6138 133.536 38.6762C134.473 37.7385 135 36.4667 135 35.1406V5.14062C135 3.81454 134.473 2.54277 133.536 1.60509C132.598 0.667409 131.326 0.140625 130 0.140625Z" fill="#A6A6A6"/>
<path d="M44.3757 10.6264H46.4666V13.5275C46.1529 13.6339 45.8297 13.713 45.4969 13.7648C45.1668 13.8167 44.7972 13.8426 44.388 13.8426C43.7661 13.8426 43.2409 13.7185 42.8127 13.4702C42.3871 13.222 42.0639 12.8687 41.8429 12.4104C41.622 11.9494 41.5115 11.4025 41.5115 10.7696C41.5115 10.1504 41.6329 9.6103 41.8756 9.14929C42.1212 8.68828 42.4744 8.33093 42.9354 8.07724C43.3992 7.82082 43.9556 7.69261 44.6049 7.69261C44.9377 7.69261 45.2527 7.72398 45.5501 7.78672C45.8501 7.84673 46.1284 7.93266 46.3848 8.0445L46.1188 8.65009C45.8979 8.55461 45.6537 8.47278 45.3864 8.40458C45.1218 8.33638 44.8477 8.30229 44.564 8.30229C44.0757 8.30229 43.6569 8.40322 43.3078 8.60508C42.9613 8.80694 42.6954 9.092 42.5099 9.46026C42.3271 9.82853 42.2357 10.265 42.2357 10.7696C42.2357 11.2688 42.3162 11.7039 42.4771 12.0749C42.6381 12.4432 42.889 12.7296 43.23 12.9342C43.571 13.1388 44.0102 13.2411 44.5476 13.2411C44.8176 13.2411 45.0495 13.2261 45.2432 13.1961C45.4369 13.1633 45.6128 13.1251 45.771 13.0815V11.2484H44.3757V10.6264ZM51.2459 13.7607H47.9151V7.77854H51.2459V8.3923H48.6107V10.3277H51.0945V10.9333H48.6107V13.147H51.2459V13.7607ZM54.4088 13.7607H53.7091V8.3923H51.8269V7.77854H56.2829V8.3923H54.4088V13.7607ZM59.364 13.7607V7.77854H60.0596V13.7607H59.364ZM63.5417 13.7607H62.842V8.3923H60.9598V7.77854H65.4158V8.3923H63.5417V13.7607ZM73.6853 10.7615C73.6853 11.2225 73.6266 11.6426 73.5093 12.0217C73.392 12.3982 73.2174 12.7228 72.9856 12.9956C72.7564 13.2656 72.4714 13.4743 72.1304 13.6216C71.7894 13.7689 71.3939 13.8426 70.9438 13.8426C70.48 13.8426 70.0749 13.7689 69.7285 13.6216C69.3848 13.4743 69.0984 13.2643 68.8692 12.9915C68.6428 12.7187 68.4723 12.3927 68.3578 12.0135C68.2459 11.6344 68.19 11.2143 68.19 10.7533C68.19 10.1422 68.2909 9.6062 68.4928 9.1452C68.6946 8.68419 69.0002 8.32547 69.4093 8.06905C69.8213 7.81263 70.3368 7.68442 70.956 7.68442C71.548 7.68442 72.0458 7.81127 72.4496 8.06496C72.856 8.31865 73.1629 8.676 73.3702 9.13701C73.5803 9.59529 73.6853 10.1368 73.6853 10.7615ZM68.9224 10.7615C68.9224 11.2688 68.9947 11.708 69.1393 12.079C69.2839 12.45 69.5048 12.7364 69.8022 12.9383C70.1022 13.1402 70.4828 13.2411 70.9438 13.2411C71.4075 13.2411 71.7867 13.1402 72.0813 12.9383C72.3786 12.7364 72.5982 12.45 72.7401 12.079C72.8819 11.708 72.9528 11.2688 72.9528 10.7615C72.9528 9.98947 72.7905 9.38661 72.4659 8.95288C72.144 8.51642 71.6407 8.29819 70.956 8.29819C70.4923 8.29819 70.1104 8.39776 69.8103 8.59689C69.5103 8.79603 69.2866 9.07973 69.1393 9.44799C68.9947 9.81352 68.9224 10.2513 68.9224 10.7615ZM79.6961 13.7607H78.8941L75.633 8.73602H75.6002C75.6084 8.86968 75.618 9.02244 75.6289 9.1943C75.6398 9.36342 75.648 9.54483 75.6534 9.73851C75.6616 9.92946 75.6657 10.1245 75.6657 10.3236V13.7607H75.0192V7.77854H75.8171L79.066 12.7869H79.0946C79.0892 12.6914 79.0824 12.5564 79.0742 12.3818C79.066 12.2045 79.0578 12.0149 79.0496 11.813C79.0442 11.6085 79.0414 11.4189 79.0414 11.2443V7.77854H79.6961V13.7607Z" fill="white"/>
<path d="M44.3757 10.6264V10.5264H44.2757V10.6264H44.3757ZM46.4666 10.6264H46.5666V10.5264H46.4666V10.6264ZM46.4666 13.5275L46.4988 13.6222L46.5666 13.5992V13.5275H46.4666ZM45.4969 13.7648L45.4815 13.666L45.4814 13.666L45.4969 13.7648ZM42.8127 13.4702L42.7623 13.5566L42.7625 13.5567L42.8127 13.4702ZM41.8429 12.4104L41.7527 12.4537L41.7528 12.4539L41.8429 12.4104ZM41.8756 9.14929L41.7874 9.10228L41.7872 9.10269L41.8756 9.14929ZM42.9354 8.07724L42.9836 8.16485L42.9838 8.16475L42.9354 8.07724ZM45.5501 7.78672L45.5294 7.88457L45.5305 7.88478L45.5501 7.78672ZM46.3848 8.0445L46.4764 8.08471L46.5167 7.99292L46.4248 7.95284L46.3848 8.0445ZM46.1188 8.65009L46.0792 8.74188L46.1704 8.78131L46.2104 8.6903L46.1188 8.65009ZM45.3864 8.40458L45.3614 8.50142L45.3617 8.50148L45.3864 8.40458ZM43.3078 8.60508L43.2577 8.5185L43.2574 8.51868L43.3078 8.60508ZM42.5099 9.46026L42.4206 9.41528L42.4203 9.41581L42.5099 9.46026ZM42.4771 12.0749L42.3854 12.1147L42.3855 12.115L42.4771 12.0749ZM43.23 12.9342L43.1786 13.0199L43.23 12.9342ZM45.2432 13.1961L45.2585 13.2949L45.2599 13.2947L45.2432 13.1961ZM45.771 13.0815L45.7976 13.1779L45.871 13.1577V13.0815H45.771ZM45.771 11.2484H45.871V11.1484H45.771V11.2484ZM44.3757 11.2484H44.2757V11.3484H44.3757V11.2484ZM44.3757 10.7264H46.4666V10.5264H44.3757V10.7264ZM46.3666 10.6264V13.5275H46.5666V10.6264H46.3666ZM46.4345 13.4328C46.1264 13.5373 45.8087 13.6151 45.4815 13.666L45.5123 13.8636C45.8507 13.8109 46.1795 13.7305 46.4988 13.6222L46.4345 13.4328ZM45.4814 13.666C45.1574 13.7169 44.7931 13.7426 44.388 13.7426V13.9426C44.8013 13.9426 45.1762 13.9164 45.5124 13.8636L45.4814 13.666ZM44.388 13.7426C43.7792 13.7426 43.2724 13.6211 42.8628 13.3837L42.7625 13.5567C43.2095 13.8158 43.7529 13.9426 44.388 13.9426V13.7426ZM42.8631 13.3838C42.4553 13.146 42.1456 12.808 41.933 12.367L41.7528 12.4539C41.9821 12.9295 42.3189 13.298 42.7623 13.5566L42.8631 13.3838ZM41.9331 12.3672C41.7199 11.9225 41.6115 11.391 41.6115 10.7696H41.4115C41.4115 11.414 41.524 11.9764 41.7527 12.4537L41.9331 12.3672ZM41.6115 10.7696C41.6115 10.1636 41.7302 9.64005 41.9641 9.19588L41.7872 9.10269C41.5355 9.58054 41.4115 10.1372 41.4115 10.7696H41.6115ZM41.9639 9.19629C42.2002 8.75255 42.5395 8.40925 42.9836 8.16485L42.8872 7.98963C42.4093 8.2526 42.0421 8.624 41.7874 9.10228L41.9639 9.19629ZM42.9838 8.16475C43.4297 7.91817 43.9688 7.79261 44.6049 7.79261V7.59261C43.9425 7.59261 43.3686 7.72346 42.887 7.98972L42.9838 8.16475ZM44.6049 7.79261C44.9314 7.79261 45.2395 7.82338 45.5294 7.88456L45.5707 7.68887C45.266 7.62457 44.944 7.59261 44.6049 7.59261V7.79261ZM45.5305 7.88478C45.8242 7.94352 46.0955 8.02743 46.3448 8.13616L46.4248 7.95284C46.1612 7.83789 45.8761 7.74994 45.5697 7.68866L45.5305 7.88478ZM46.2932 8.00429L46.0273 8.60988L46.2104 8.6903L46.4764 8.08471L46.2932 8.00429ZM46.1585 8.55829C45.9321 8.46045 45.6828 8.377 45.4111 8.30768L45.3617 8.50148C45.6246 8.56855 45.8637 8.64878 46.0792 8.74188L46.1585 8.55829ZM45.4114 8.30774C45.1383 8.23737 44.8557 8.20229 44.564 8.20229V8.40229C44.8396 8.40229 45.1053 8.4354 45.3614 8.50142L45.4114 8.30774ZM44.564 8.20229C44.0618 8.20229 43.625 8.30617 43.2577 8.5185L43.3578 8.69165C43.6889 8.50027 44.0895 8.40229 44.564 8.40229V8.20229ZM43.2574 8.51868C42.8938 8.73057 42.6145 9.03025 42.4206 9.41528L42.5992 9.50525C42.7762 9.15375 43.0289 8.88331 43.3581 8.69148L43.2574 8.51868ZM42.4203 9.41581C42.2293 9.80067 42.1357 10.253 42.1357 10.7696H42.3357C42.3357 10.277 42.4249 9.85638 42.5994 9.50472L42.4203 9.41581ZM42.1357 10.7696C42.1357 11.2794 42.2179 11.7286 42.3854 12.1147L42.5689 12.0351C42.4145 11.6793 42.3357 11.2583 42.3357 10.7696H42.1357ZM42.3855 12.115C42.5547 12.5021 42.8196 12.8045 43.1786 13.0199L43.2815 12.8484C42.9585 12.6547 42.7215 12.3843 42.5688 12.0349L42.3855 12.115ZM43.1786 13.0199C43.5396 13.2366 43.9982 13.3411 44.5476 13.3411V13.1411C44.0222 13.1411 43.6024 13.041 43.2815 12.8484L43.1786 13.0199ZM44.5476 13.3411C44.821 13.3411 45.0583 13.3259 45.2585 13.2949L45.2279 13.0973C45.0408 13.1262 44.8143 13.1411 44.5476 13.1411V13.3411ZM45.2599 13.2947C45.4563 13.2615 45.6356 13.2226 45.7976 13.1779L45.7444 12.9851C45.5901 13.0277 45.4175 13.0652 45.2265 13.0975L45.2599 13.2947ZM45.871 13.0815V11.2484H45.671V13.0815H45.871ZM45.771 11.1484H44.3757V11.3484H45.771V11.1484ZM44.4757 11.2484V10.6264H44.2757V11.2484H44.4757ZM51.2459 13.7607V13.8607H51.3459V13.7607H51.2459ZM47.9151 13.7607H47.8151V13.8607H47.9151V13.7607ZM47.9151 7.77854V7.67853H47.8151V7.77854H47.9151ZM51.2459 7.77854H51.3459V7.67853H51.2459V7.77854ZM51.2459 8.3923V8.4923H51.3459V8.3923H51.2459ZM48.6107 8.3923V8.2923H48.5107V8.3923H48.6107ZM48.6107 10.3277H48.5107V10.4277H48.6107V10.3277ZM51.0945 10.3277H51.1945V10.2277H51.0945V10.3277ZM51.0945 10.9333V11.0333H51.1945V10.9333H51.0945ZM48.6107 10.9333V10.8333H48.5107V10.9333H48.6107ZM48.6107 13.147H48.5107V13.247H48.6107V13.147ZM51.2459 13.147H51.3459V13.047H51.2459V13.147ZM51.2459 13.6607H47.9151V13.8607H51.2459V13.6607ZM48.0151 13.7607V7.77854H47.8151V13.7607H48.0151ZM47.9151 7.87854H51.2459V7.67853H47.9151V7.87854ZM51.1459 7.77854V8.3923H51.3459V7.77854H51.1459ZM51.2459 8.2923H48.6107V8.4923H51.2459V8.2923ZM48.5107 8.3923V10.3277H48.7107V8.3923H48.5107ZM48.6107 10.4277H51.0945V10.2277H48.6107V10.4277ZM50.9945 10.3277V10.9333H51.1945V10.3277H50.9945ZM51.0945 10.8333H48.6107V11.0333H51.0945V10.8333ZM48.5107 10.9333V13.147H48.7107V10.9333H48.5107ZM48.6107 13.247H51.2459V13.047H48.6107V13.247ZM51.1459 13.147V13.7607H51.3459V13.147H51.1459ZM54.4088 13.7607V13.8607H54.5088V13.7607H54.4088ZM53.7091 13.7607H53.6091V13.8607H53.7091V13.7607ZM53.7091 8.3923H53.8091V8.2923H53.7091V8.3923ZM51.8269 8.3923H51.7269V8.4923H51.8269V8.3923ZM51.8269 7.77854V7.67853H51.7269V7.77854H51.8269ZM56.2829 7.77854H56.3829V7.67853H56.2829V7.77854ZM56.2829 8.3923V8.4923H56.3829V8.3923H56.2829ZM54.4088 8.3923V8.2923H54.3088V8.3923H54.4088ZM54.4088 13.6607H53.7091V13.8607H54.4088V13.6607ZM53.8091 13.7607V8.3923H53.6091V13.7607H53.8091ZM53.7091 8.2923H51.8269V8.4923H53.7091V8.2923ZM51.9269 8.3923V7.77854H51.7269V8.3923H51.9269ZM51.8269 7.87854H56.2829V7.67853H51.8269V7.87854ZM56.1829 7.77854V8.3923H56.3829V7.77854H56.1829ZM56.2829 8.2923H54.4088V8.4923H56.2829V8.2923ZM54.3088 8.3923V13.7607H54.5088V8.3923H54.3088ZM59.364 13.7607H59.264V13.8607H59.364V13.7607ZM59.364 7.77854V7.67853H59.264V7.77854H59.364ZM60.0596 7.77854H60.1596V7.67853H60.0596V7.77854ZM60.0596 13.7607V13.8607H60.1596V13.7607H60.0596ZM59.464 13.7607V7.77854H59.264V13.7607H59.464ZM59.364 7.87854H60.0596V7.67853H59.364V7.87854ZM59.9596 7.77854V13.7607H60.1596V7.77854H59.9596ZM60.0596 13.6607H59.364V13.8607H60.0596V13.6607ZM63.5417 13.7607V13.8607H63.6417V13.7607H63.5417ZM62.842 13.7607H62.742V13.8607H62.842V13.7607ZM62.842 8.3923H62.942V8.2923H62.842V8.3923ZM60.9598 8.3923H60.8598V8.4923H60.9598V8.3923ZM60.9598 7.77854V7.67853H60.8598V7.77854H60.9598ZM65.4158 7.77854H65.5158V7.67853H65.4158V7.77854ZM65.4158 8.3923V8.4923H65.5158V8.3923H65.4158ZM63.5417 8.3923V8.2923H63.4417V8.3923H63.5417ZM63.5417 13.6607H62.842V13.8607H63.5417V13.6607ZM62.942 13.7607V8.3923H62.742V13.7607H62.942ZM62.842 8.2923H60.9598V8.4923H62.842V8.2923ZM61.0598 8.3923V7.77854H60.8598V8.3923H61.0598ZM60.9598 7.87854H65.4158V7.67853H60.9598V7.87854ZM65.3158 7.77854V8.3923H65.5158V7.77854H65.3158ZM65.4158 8.2923H63.5417V8.4923H65.4158V8.2923ZM63.4417 8.3923V13.7607H63.6417V8.3923H63.4417ZM73.5093 12.0217L73.6048 12.0515L73.6049 12.0513L73.5093 12.0217ZM72.9856 12.9956L72.9094 12.9308L72.9093 12.9309L72.9856 12.9956ZM72.1304 13.6216L72.17 13.7134L72.1304 13.6216ZM69.7285 13.6216L69.6891 13.7135L69.6894 13.7136L69.7285 13.6216ZM68.8692 12.9915L68.7923 13.0554L68.7927 13.0558L68.8692 12.9915ZM68.3578 12.0135L68.2618 12.0418L68.262 12.0425L68.3578 12.0135ZM69.4093 8.06905L69.3565 7.98416L69.3562 7.98432L69.4093 8.06905ZM72.4496 8.06496L72.3963 8.14963L72.3966 8.14979L72.4496 8.06496ZM73.3702 9.13701L73.279 9.17803L73.2793 9.17868L73.3702 9.13701ZM69.8022 12.9383L69.746 13.021L69.7463 13.0213L69.8022 12.9383ZM72.0813 12.9383L72.0251 12.8556L72.0248 12.8558L72.0813 12.9383ZM72.4659 8.95288L72.3854 9.01224L72.3859 9.0128L72.4659 8.95288ZM69.8103 8.59689L69.755 8.51357L69.8103 8.59689ZM69.1393 9.44799L69.0464 9.41085L69.0463 9.41121L69.1393 9.44799ZM73.5853 10.7615C73.5853 11.214 73.5277 11.624 73.4138 11.9922L73.6049 12.0513C73.7256 11.6611 73.7853 11.2309 73.7853 10.7615H73.5853ZM73.4139 11.992C73.3002 12.3569 73.1317 12.6693 72.9094 12.9308L73.0618 13.0603C73.3032 12.7763 73.4839 12.4395 73.6048 12.0515L73.4139 11.992ZM72.9093 12.9309C72.6906 13.1886 72.4183 13.3883 72.0907 13.5298L72.17 13.7134C72.5244 13.5603 72.8222 13.3426 73.0618 13.0603L72.9093 12.9309ZM72.0907 13.5298C71.7646 13.6707 71.3831 13.7426 70.9438 13.7426V13.9426C71.4047 13.9426 71.8142 13.8672 72.17 13.7134L72.0907 13.5298ZM70.9438 13.7426C70.4904 13.7426 70.0992 13.6706 69.7676 13.5296L69.6894 13.7136C70.0507 13.8673 70.4696 13.9426 70.9438 13.9426V13.7426ZM69.7679 13.5297C69.4378 13.3883 69.1644 13.1874 68.9458 12.9272L68.7927 13.0558C69.0324 13.3412 69.3318 13.5604 69.6891 13.7135L69.7679 13.5297ZM68.9462 12.9276C68.7292 12.6662 68.5646 12.3525 68.4535 11.9846L68.262 12.0425C68.38 12.4329 68.5564 12.7711 68.7923 13.0554L68.9462 12.9276ZM68.4537 11.9853C68.3449 11.6166 68.29 11.2063 68.29 10.7533H68.09C68.09 11.2223 68.1469 11.6521 68.2618 12.0418L68.4537 11.9853ZM68.29 10.7533C68.29 10.1531 68.3891 9.63126 68.5844 9.18531L68.4012 9.10508C68.1927 9.58114 68.09 10.1313 68.09 10.7533H68.29ZM68.5844 9.18531C68.7786 8.74188 69.071 8.39907 69.4624 8.15379L69.3562 7.98432C68.9293 8.25187 68.6107 8.62649 68.4012 9.10508L68.5844 9.18531ZM69.4622 8.15395C69.8544 7.90979 70.3504 7.78442 70.956 7.78442V7.58442C70.3232 7.58442 69.7881 7.71548 69.3565 7.98416L69.4622 8.15395ZM70.956 7.78442C71.5337 7.78442 72.012 7.90812 72.3963 8.14963L72.5028 7.98029C72.0796 7.71442 71.5623 7.58442 70.956 7.58442V7.78442ZM72.3966 8.14979C72.7853 8.3924 73.0793 8.73404 73.279 9.17803L73.4614 9.096C73.2464 8.61796 72.9267 8.24491 72.5025 7.98013L72.3966 8.14979ZM73.2793 9.17868C73.4821 9.62115 73.5853 10.1478 73.5853 10.7615H73.7853C73.7853 10.1257 73.6784 9.56944 73.4611 9.09535L73.2793 9.17868ZM68.8224 10.7615C68.8224 11.278 68.896 11.7301 69.0461 12.1153L69.2325 12.0427C69.0934 11.686 69.0224 11.2597 69.0224 10.7615H68.8224ZM69.0461 12.1153C69.1972 12.5031 69.4301 12.8066 69.746 13.021L69.8583 12.8556C69.5795 12.6663 69.3705 12.397 69.2325 12.0427L69.0461 12.1153ZM69.7463 13.0213C70.0669 13.2369 70.4683 13.3411 70.9438 13.3411V13.1411C70.4972 13.1411 70.1375 13.0434 69.858 12.8553L69.7463 13.0213ZM70.9438 13.3411C71.4217 13.3411 71.8222 13.237 72.1378 13.0208L72.0248 12.8558C71.7511 13.0433 71.3933 13.1411 70.9438 13.1411V13.3411ZM72.1375 13.021C72.4535 12.8065 72.6851 12.5027 72.8335 12.1147L72.6467 12.0433C72.5113 12.3973 72.3038 12.6664 72.0251 12.8556L72.1375 13.021ZM72.8335 12.1147C72.9807 11.7297 73.0528 11.2778 73.0528 10.7615H72.8528C72.8528 11.2599 72.7831 11.6864 72.6467 12.0433L72.8335 12.1147ZM73.0528 10.7615C73.0528 9.97676 72.888 9.34996 72.546 8.89296L72.3859 9.0128C72.6931 9.42326 72.8528 10.0022 72.8528 10.7615H73.0528ZM72.5464 8.89353C72.2008 8.42488 71.6633 8.19819 70.956 8.19819V8.39819C71.6182 8.39819 72.0873 8.60796 72.3854 9.01224L72.5464 8.89353ZM70.956 8.19819C70.4782 8.19819 70.0756 8.30083 69.755 8.51357L69.8656 8.68022C70.1452 8.49469 70.5064 8.39819 70.956 8.39819V8.19819ZM69.755 8.51357C69.4364 8.72507 69.2005 9.02573 69.0464 9.41085L69.2321 9.48513C69.3727 9.13372 69.5842 8.86699 69.8656 8.68022L69.755 8.51357ZM69.0463 9.41121C68.8959 9.79137 68.8224 10.2423 68.8224 10.7615H69.0224C69.0224 10.2604 69.0935 9.83568 69.2323 9.48477L69.0463 9.41121ZM79.6961 13.7607V13.8607H79.7961V13.7607H79.6961ZM78.8941 13.7607L78.8102 13.8152L78.8398 13.8607H78.8941V13.7607ZM75.633 8.73602L75.7169 8.68157L75.6873 8.63602H75.633V8.73602ZM75.6002 8.73602V8.63602H75.4939L75.5004 8.74213L75.6002 8.73602ZM75.6289 9.1943L75.5291 9.20063L75.5291 9.20074L75.6289 9.1943ZM75.6534 9.73851L75.5535 9.74132L75.5535 9.74279L75.6534 9.73851ZM75.6657 13.7607V13.8607H75.7657V13.7607H75.6657ZM75.0192 13.7607H74.9192V13.8607H75.0192V13.7607ZM75.0192 7.77854V7.67853H74.9192V7.77854H75.0192ZM75.8171 7.77854L75.901 7.72411L75.8714 7.67853H75.8171V7.77854ZM79.066 12.7869L78.9821 12.8413L79.0117 12.8869H79.066V12.7869ZM79.0946 12.7869V12.8869H79.2005L79.1945 12.7812L79.0946 12.7869ZM79.0742 12.3818L78.9743 12.3864L78.9743 12.3865L79.0742 12.3818ZM79.0496 11.813L78.9496 11.8157L78.9497 11.8171L79.0496 11.813ZM79.0414 7.77854V7.67853H78.9414V7.77854H79.0414ZM79.6961 7.77854H79.7961V7.67853H79.6961V7.77854ZM79.6961 13.6607H78.8941V13.8607H79.6961V13.6607ZM78.978 13.7063L75.7169 8.68157L75.5491 8.79046L78.8102 13.8152L78.978 13.7063ZM75.633 8.63602H75.6002V8.83602H75.633V8.63602ZM75.5004 8.74213C75.5086 8.87588 75.5182 9.02872 75.5291 9.20063L75.7287 9.18796C75.7178 9.01616 75.7082 8.86348 75.7 8.7299L75.5004 8.74213ZM75.5291 9.20074C75.5399 9.3685 75.548 9.54868 75.5535 9.74132L75.7534 9.73569C75.7479 9.54097 75.7397 9.35835 75.7287 9.18786L75.5291 9.20074ZM75.5535 9.74279C75.5616 9.93225 75.5657 10.1259 75.5657 10.3236H75.7657C75.7657 10.1231 75.7616 9.92666 75.7533 9.73422L75.5535 9.74279ZM75.5657 10.3236V13.7607H75.7657V10.3236H75.5657ZM75.6657 13.6607H75.0192V13.8607H75.6657V13.6607ZM75.1192 13.7607V7.77854H74.9192V13.7607H75.1192ZM75.0192 7.87854H75.8171V7.67853H75.0192V7.87854ZM75.7332 7.83296L78.9821 12.8413L79.1499 12.7325L75.901 7.72411L75.7332 7.83296ZM79.066 12.8869H79.0946V12.6869H79.066V12.8869ZM79.1945 12.7812C79.189 12.6862 79.1822 12.5516 79.1741 12.3771L78.9743 12.3865C78.9825 12.5612 78.9893 12.6966 78.9948 12.7926L79.1945 12.7812ZM79.1741 12.3772C79.1659 12.2001 79.1577 12.0107 79.1495 11.809L78.9497 11.8171C78.9579 12.0191 78.9661 12.2089 78.9743 12.3864L79.1741 12.3772ZM79.1496 11.8104C79.1441 11.6065 79.1414 11.4178 79.1414 11.2443H78.9414C78.9414 11.4199 78.9442 11.6104 78.9497 11.8157L79.1496 11.8104ZM79.1414 11.2443V7.77854H78.9414V11.2443H79.1414ZM79.0414 7.87854H79.6961V7.67853H79.0414V7.87854ZM79.5961 7.77854V13.7607H79.7961V7.77854H79.5961Z" fill="white"/>
<path d="M68.1401 21.8905C67.2976 21.8925 66.4745 22.1443 65.7751 22.614C65.0756 23.0838 64.5312 23.7504 64.2106 24.5296C63.89 25.3087 63.8076 26.1655 63.9739 26.9914C64.1402 27.8174 64.5477 28.5755 65.1449 29.1699C65.7421 29.7642 66.5021 30.1682 67.3288 30.3306C68.1556 30.4931 69.0119 30.4067 69.7896 30.0824C70.5672 29.7582 71.2313 29.2106 71.6977 28.509C72.1642 27.8073 72.4121 26.9831 72.4101 26.1405C72.4183 25.5785 72.3132 25.0205 72.1013 24.4999C71.8893 23.9793 71.5748 23.5066 71.1764 23.1101C70.7779 22.7135 70.3038 22.4012 69.7822 22.1917C69.2606 21.9822 68.7021 21.8798 68.1401 21.8905ZM68.1401 28.7205C67.6237 28.7567 67.1083 28.6366 66.6611 28.3759C66.2138 28.1153 65.8553 27.7261 65.6321 27.259C65.409 26.7919 65.3315 26.2684 65.4098 25.7567C65.4881 25.245 65.7185 24.7686 66.0711 24.3896C66.4237 24.0105 66.8821 23.7463 67.3869 23.6313C67.8916 23.5163 68.4193 23.5558 68.9013 23.7446C69.3833 23.9335 69.7973 24.263 70.0896 24.6903C70.3819 25.1175 70.5388 25.6229 70.5401 26.1405C70.5562 26.4686 70.5065 26.7965 70.3938 27.105C70.2812 27.4135 70.1079 27.6963 69.8842 27.9367C69.6606 28.1772 69.391 28.3704 69.0914 28.505C68.7919 28.6397 68.4684 28.7129 68.1401 28.7205ZM58.8201 21.8905C57.9776 21.8925 57.1545 22.1443 56.4551 22.614C55.7556 23.0838 55.2112 23.7504 54.8906 24.5296C54.57 25.3087 54.4876 26.1655 54.6539 26.9914C54.8202 27.8174 55.2277 28.5755 55.8249 29.1699C56.4221 29.7642 57.1821 30.1682 58.0088 30.3306C58.8356 30.4931 59.6919 30.4067 60.4696 30.0824C61.2472 29.7582 61.9113 29.2106 62.3777 28.509C62.8442 27.8073 63.0921 26.9831 63.0901 26.1405C63.0982 25.5785 62.9932 25.0205 62.7813 24.4999C62.5693 23.9793 62.2548 23.5066 61.8564 23.1101C61.4579 22.7135 60.9838 22.4012 60.4622 22.1917C59.9406 21.9822 59.3821 21.8798 58.8201 21.8905ZM58.8201 28.7205C58.3037 28.7567 57.7883 28.6366 57.3411 28.3759C56.8938 28.1153 56.5353 27.7261 56.3121 27.259C56.089 26.7919 56.0115 26.2684 56.0898 25.7567C56.1681 25.245 56.3985 24.7686 56.7511 24.3896C57.1037 24.0105 57.5621 23.7463 58.0669 23.6313C58.5716 23.5163 59.0993 23.5558 59.5813 23.7446C60.0633 23.9335 60.4773 24.263 60.7696 24.6903C61.0619 25.1175 61.2188 25.6229 61.2201 26.1405C61.2362 26.4686 61.1865 26.7965 61.0738 27.105C60.9612 27.4135 60.7879 27.6963 60.5642 27.9367C60.3406 28.1772 60.071 28.3704 59.7714 28.505C59.4719 28.6397 59.1484 28.7129 58.8201 28.7205ZM47.7401 23.2005V25.0005H52.0601C51.9924 25.8484 51.6399 26.6483 51.0601 27.2705C50.6268 27.7121 50.1056 28.0577 49.5302 28.2851C48.9549 28.5124 48.3382 28.6165 47.7201 28.5905C46.4471 28.5905 45.2262 28.0848 44.326 27.1847C43.4258 26.2845 42.9201 25.0636 42.9201 23.7905C42.9201 22.5175 43.4258 21.2966 44.326 20.3964C45.2262 19.4963 46.4471 18.9905 47.7201 18.9905C48.9405 18.9724 50.119 19.4359 51.0001 20.2805L52.2701 19.0105C51.6741 18.4211 50.9664 17.9564 50.1886 17.6439C49.4107 17.3314 48.5783 17.1773 47.7401 17.1905C46.8511 17.1559 45.9643 17.3012 45.1327 17.6175C44.3012 17.9339 43.5421 18.4148 42.9009 19.0316C42.2596 19.6483 41.7495 20.3881 41.4011 21.2067C41.0527 22.0253 40.873 22.9059 40.873 23.7955C40.873 24.6852 41.0527 25.5657 41.4011 26.3843C41.7495 27.203 42.2596 27.9428 42.9009 28.5595C43.5421 29.1763 44.3012 29.6572 45.1327 29.9736C45.9643 30.2899 46.8511 30.4351 47.7401 30.4005C48.5955 30.4347 49.4485 30.2875 50.243 29.9687C51.0375 29.6499 51.7556 29.1666 52.3501 28.5505C53.4002 27.397 53.9598 25.8797 53.9101 24.3205C53.9137 23.9453 53.8836 23.5704 53.8201 23.2005H47.7401ZM93.0501 24.6005C92.7893 23.8333 92.3016 23.1633 91.6516 22.6794C91.0016 22.1955 90.2199 21.9204 89.4101 21.8905C88.8631 21.8895 88.3217 22.0006 87.8193 22.2171C87.317 22.4336 86.8644 22.7508 86.4895 23.1491C86.1146 23.5474 85.8254 24.0184 85.6397 24.5329C85.4541 25.0475 85.3759 25.5946 85.4101 26.1405C85.4016 27.0534 85.6885 27.9445 86.2282 28.6808C86.7679 29.4171 87.5313 29.959 88.4044 30.2257C89.2774 30.4923 90.2134 30.4694 91.0723 30.1603C91.9313 29.8511 92.6672 29.2724 93.1701 28.5105L91.7201 27.5105C91.5039 27.8708 91.1974 28.1683 90.8307 28.3736C90.4641 28.5788 90.0502 28.6846 89.6301 28.6805C89.1967 28.6984 88.768 28.5848 88.4003 28.3546C88.0327 28.1243 87.7432 27.7883 87.5701 27.3905L93.2601 25.0405L93.0501 24.6005ZM87.2501 26.0205C87.2298 25.7099 87.2717 25.3984 87.3734 25.1042C87.475 24.8099 87.6343 24.539 87.842 24.3071C88.0497 24.0752 88.3015 23.8871 88.5828 23.7537C88.8641 23.6204 89.1691 23.5445 89.4801 23.5305C89.8023 23.5109 90.1231 23.5867 90.4024 23.7486C90.6817 23.9105 90.907 24.1512 91.0501 24.4405L87.2501 26.0205ZM82.6301 30.1405H84.5001V17.6405H82.6301V30.1405ZM79.5701 22.8405H79.5001C79.2207 22.5224 78.876 22.2684 78.4894 22.0958C78.1028 21.9232 77.6835 21.8361 77.2601 21.8405C76.1673 21.8935 75.1367 22.365 74.3821 23.1571C73.6274 23.9493 73.2064 25.0014 73.2064 26.0955C73.2064 27.1897 73.6274 28.2418 74.3821 29.034C75.1367 29.8261 76.1673 30.2976 77.2601 30.3505C77.6841 30.3591 78.1047 30.2738 78.4919 30.101C78.8791 29.9281 79.2234 29.6719 79.5001 29.3505H79.5701V29.9605C79.5701 31.5905 78.7001 32.4605 77.3001 32.4605C76.8324 32.4503 76.3783 32.3012 75.9955 32.0324C75.6127 31.7635 75.3185 31.387 75.1501 30.9505L73.5301 31.6205C73.8296 32.3728 74.3504 33.0164 75.0235 33.4664C75.6966 33.9163 76.4905 34.1514 77.3001 34.1405C79.4901 34.1405 81.3001 32.8505 81.3001 29.7105V22.1405H79.5701V22.8405ZM77.4201 28.7205C76.7649 28.6797 76.1499 28.3906 75.7004 27.9122C75.2509 27.4338 75.0006 26.802 75.0006 26.1455C75.0006 25.4891 75.2509 24.8573 75.7004 24.3789C76.1499 23.9005 76.7649 23.6114 77.4201 23.5705C77.7403 23.5844 78.0545 23.6625 78.344 23.8002C78.6334 23.9379 78.8922 24.1324 79.1049 24.3722C79.3176 24.612 79.4799 24.8921 79.5822 25.1959C79.6844 25.4997 79.7245 25.8209 79.7001 26.1405C79.7274 26.4612 79.6893 26.7841 79.5883 27.0897C79.4872 27.3953 79.3252 27.6772 79.1121 27.9183C78.8989 28.1595 78.6391 28.3549 78.3483 28.4928C78.0575 28.6307 77.7417 28.7082 77.4201 28.7205ZM101.81 17.6405H97.3301V30.1405H99.2001V25.4005H101.81C102.343 25.4388 102.878 25.3669 103.382 25.1893C103.886 25.0116 104.348 24.7321 104.739 24.368C105.13 24.004 105.442 23.5633 105.655 23.0734C105.869 22.5835 105.979 22.0549 105.979 21.5205C105.979 20.9862 105.869 20.4576 105.655 19.9677C105.442 19.4778 105.13 19.0371 104.739 18.6731C104.348 18.309 103.886 18.0295 103.382 17.8518C102.878 17.6742 102.343 17.6023 101.81 17.6405ZM101.81 23.6405H99.2001V19.3805H101.85C102.131 19.3805 102.409 19.4359 102.669 19.5434C102.929 19.651 103.165 19.8086 103.363 20.0073C103.562 20.2061 103.72 20.442 103.827 20.7016C103.935 20.9612 103.99 21.2395 103.99 21.5205C103.99 21.8016 103.935 22.0799 103.827 22.3395C103.72 22.5991 103.562 22.835 103.363 23.0338C103.165 23.2325 102.929 23.3901 102.669 23.4976C102.409 23.6052 102.131 23.6605 101.85 23.6605L101.81 23.6405ZM113.35 21.8505C112.669 21.8086 111.991 21.9671 111.399 22.3066C110.807 22.646 110.328 23.1515 110.02 23.7605L111.67 24.4505C111.837 24.15 112.087 23.9041 112.39 23.7426C112.694 23.5811 113.038 23.5109 113.38 23.5405C113.617 23.5128 113.858 23.5326 114.088 23.5989C114.317 23.6651 114.531 23.7764 114.718 23.9263C114.904 24.0761 115.058 24.2616 115.172 24.4718C115.286 24.682 115.356 24.9127 115.38 25.1505V25.2705C114.779 24.9545 114.109 24.7897 113.43 24.7905C111.65 24.7905 109.83 25.7905 109.83 27.6105C109.848 27.9974 109.943 28.3768 110.11 28.7261C110.277 29.0754 110.513 29.3876 110.803 29.6442C111.093 29.9007 111.432 30.0963 111.799 30.2193C112.166 30.3424 112.554 30.3904 112.94 30.3605C113.409 30.3865 113.877 30.2872 114.295 30.0728C114.714 29.8584 115.067 29.5367 115.32 29.1405H115.38V30.1405H117.18V25.3305C117.18 23.1405 115.52 21.8705 113.39 21.8705L113.35 21.8505ZM113.12 28.7005C112.51 28.7005 111.66 28.3905 111.66 27.6405C111.66 26.6405 112.72 26.3005 113.66 26.3005C114.254 26.2859 114.841 26.4309 115.36 26.7205C115.297 27.2636 115.04 27.7655 114.635 28.1333C114.231 28.501 113.707 28.7097 113.16 28.7205L113.12 28.7005ZM123.74 22.1405L121.6 27.5605H121.54L119.32 22.1405H117.32L120.65 29.7205L118.75 33.9305H120.7L125.82 22.1405H123.74ZM106.94 30.1405H108.8V17.6405H106.94V30.1405Z" fill="white"/>
<path d="M20.7198 19.5605L10.0698 30.8605C10.1862 31.2879 10.3992 31.6829 10.6925 32.0149C10.9857 32.3468 11.3514 32.6069 11.7612 32.7751C12.1709 32.9433 12.6139 33.015 13.0558 32.9847C13.4977 32.9545 13.9268 32.823 14.3098 32.6005L26.3098 25.6805L20.7198 19.5605Z" fill="#EA4335"/>
<path d="M31.4902 17.6406L26.3102 14.6406L20.4902 19.8306L26.3302 25.6806L31.4802 22.6806C31.938 22.4354 32.3207 22.0706 32.5875 21.6251C32.8543 21.1795 32.9952 20.6699 32.9952 20.1506C32.9952 19.6313 32.8543 19.1217 32.5875 18.6762C32.3207 18.2306 31.938 17.8658 31.4802 17.6206L31.4902 17.6406Z" fill="#FBBC04"/>
<path d="M10.07 9.4209C10.0172 9.6571 9.99366 9.89893 10 10.1409V30.1409C10.0018 30.3908 10.0354 30.6395 10.1 30.8809L21.1 19.8809L10.07 9.4209Z" fill="#4285F4"/>
<path d="M20.8 20.1403L26.31 14.6303L14.31 7.69027C13.8592 7.42227 13.3445 7.28065 12.82 7.28027C12.1874 7.28209 11.5728 7.49144 11.0706 7.87621C10.5685 8.26098 10.2064 8.7999 10.04 9.41027L20.8 20.1403Z" fill="#34A853"/>
</svg>
