<svg width="614" height="285" viewBox="0 0 614 285" fill="none" xmlns="http://www.w3.org/2000/svg">
<path d="M4 266.849L30.5956 248.598L56.7163 216.171L82.837 200.058L109.433 232.023L135.553 224.92L162.149 216.171L188.745 164.699H214.865L241.461 181.116L267.582 205.978L294.177 188.219L320.298 108.899L346.893 93.5082L373.014 116.009L399.135 124.289L425.73 108.899L451.851 140.864L478.447 145.599L504.567 164.699L531.163 196.507L557.284 181.116L583.879 131.393L610 33.1486" stroke="#A5B4FC" stroke-width="2" stroke-linecap="round" stroke-linejoin="round"/>
<path d="M4 266.849L30.5956 248.598L56.7163 216.171L82.837 200.058L109.433 232.023L135.553 224.92L162.149 216.171L188.745 164.699H214.865L241.461 181.116L267.582 205.978L294.177 188.219L320.298 108.899L346.893 93.5082L373.014 116.009L399.135 124.289L425.73 108.899L451.851 140.864L478.447 145.599L504.567 164.699L531.163 196.507L557.284 181.116L583.879 131.393L610 33.1486" stroke="#A5B4FC" stroke-width="8" stroke-linecap="round" stroke-linejoin="round" stroke-dasharray="0.01 50"/>
<path d="M4 266.849L30.5956 248.598L56.7163 216.171L82.837 200.058L109.433 232.023L135.553 224.92L162.149 216.171L188.745 164.699H214.865L241.461 181.116L267.582 205.978L294.177 188.219L320.298 108.899L346.893 93.5082L373.014 116.009L399.135 124.289L425.73 108.899L451.851 140.864L478.447 145.599L504.567 164.699L531.163 196.507L557.284 181.116L583.879 131.393L610 33.1486" stroke="#0F172A" stroke-width="6" stroke-linecap="round" stroke-linejoin="round" stroke-dasharray="0.01 50"/>
<path d="M4 280.849L30.5956 210.145L56.7163 182.807L82.837 147.658L109.433 151.563L135.553 135.941L162.149 151.563L188.745 135.941L214.865 143.752H241.461L267.581 157.421H294.177L320.298 135.941L346.893 119.349L373.014 108.603H399.135L425.73 96.887L451.851 84.1944L478.447 96.887L504.567 119.349L531.163 165.232L557.284 161.327L581.017 120.875L595.509 74.4308L610 4.14856" stroke="#6366F1" stroke-width="2" stroke-linecap="round" stroke-linejoin="round"/>
<path d="M4 280.849L30.5956 210.145L56.7163 182.807L82.837 147.658L109.433 151.563L135.553 135.941L162.149 151.563L188.745 135.941L214.865 143.752H241.461L267.581 157.421H294.177L320.298 135.941L346.893 119.349L373.014 108.603H399.135L425.73 96.887L451.851 84.1944L478.447 96.887L504.567 119.349L531.163 165.232L557.284 161.327L581.017 120.875L595.509 74.4308L610 4.14856" stroke="#6366F1" stroke-width="8" stroke-linecap="round" stroke-linejoin="round" stroke-dasharray="0.01 50"/>
<path d="M4 280.849L30.5956 210.145L56.7163 182.807L82.837 147.658L109.433 151.563L135.553 135.941L162.149 151.563L188.745 135.941L214.865 143.752H241.461L267.581 157.421H294.177L320.298 135.941L346.893 119.349L373.014 108.603H399.135L425.73 96.887L451.851 84.1944L478.447 96.887L504.567 119.349L531.163 165.232L557.284 161.327L581.017 120.875L595.509 74.4308L610 4.14856" stroke="#0F172A" stroke-width="6" stroke-linecap="round" stroke-linejoin="round" stroke-dasharray="0.01 50"/>
</svg>
