<svg width="25" height="25" viewBox="0 0 25 25" fill="none" xmlns="http://www.w3.org/2000/svg">
<path d="M16.3529 2.14062H8.28294C6.70609 2.14248 5.19437 2.76977 4.07947 3.88486C2.96456 4.99995 2.33753 6.51178 2.33594 8.08862L2.33594 16.1586C2.33779 17.7355 2.96508 19.2472 4.08017 20.3621C5.19527 21.477 6.70709 22.104 8.28394 22.1056H16.3539C17.9308 22.1038 19.4425 21.4765 20.5574 20.3614C21.6723 19.2463 22.2993 17.7345 22.3009 16.1576V8.08763C22.2991 6.51078 21.6718 4.99906 20.5567 3.88415C19.4416 2.76925 17.9298 2.14221 16.3529 2.14063V2.14062ZM20.2929 16.1576C20.2929 16.675 20.191 17.1874 19.993 17.6654C19.795 18.1434 19.5048 18.5778 19.1389 18.9436C18.7731 19.3095 18.3387 19.5997 17.8607 19.7977C17.3827 19.9957 16.8703 20.0976 16.3529 20.0976H8.28294C7.23816 20.0974 6.23626 19.6821 5.49758 18.9433C4.75891 18.2044 4.34394 17.2024 4.34394 16.1576V8.08763C4.3442 7.04285 4.75943 6.04095 5.49829 5.30227C6.23715 4.56359 7.23916 4.14862 8.28394 4.14862H16.3539C17.3987 4.14889 18.4006 4.56411 19.1393 5.30298C19.878 6.04184 20.2929 7.04385 20.2929 8.08862V16.1586V16.1576Z" fill="#E2E8F0"/>
<path d="M12.3178 6.95972C10.9492 6.96183 9.63729 7.5065 8.66966 8.47432C7.70203 9.44214 7.15761 10.7541 7.15576 12.1227C7.15735 13.4916 7.70178 14.804 8.66966 15.7721C9.63754 16.7402 10.9498 17.2849 12.3188 17.2867C13.6879 17.2851 15.0004 16.7406 15.9685 15.7725C16.9366 14.8044 17.4812 13.4918 17.4828 12.1227C17.4806 10.7538 16.9357 9.4416 15.9674 8.47391C14.9992 7.50622 13.6867 6.96204 12.3178 6.96072V6.95972ZM12.3178 15.2787C11.481 15.2787 10.6785 14.9463 10.0868 14.3546C9.49516 13.763 9.16276 12.9605 9.16276 12.1237C9.16276 11.287 9.49516 10.4845 10.0868 9.8928C10.6785 9.30112 11.481 8.96872 12.3178 8.96872C13.1545 8.96872 13.957 9.30112 14.5487 9.8928C15.1404 10.4845 15.4728 11.287 15.4728 12.1237C15.4728 12.9605 15.1404 13.763 14.5487 14.3546C13.957 14.9463 13.1545 15.2787 12.3178 15.2787Z" fill="#E2E8F0"/>
<path d="M17.4919 8.23572C18.1751 8.23572 18.7289 7.68189 18.7289 6.99872C18.7289 6.31554 18.1751 5.76172 17.4919 5.76172C16.8087 5.76172 16.2549 6.31554 16.2549 6.99872C16.2549 7.68189 16.8087 8.23572 17.4919 8.23572Z" fill="#E2E8F0"/>
</svg>
