<svg width="25" height="25" viewBox="0 0 25 25" fill="none" xmlns="http://www.w3.org/2000/svg">
<path d="M22.2949 13.8595V21.2385H18.0169V14.3535C18.0169 12.6235 17.3979 11.4435 15.8499 11.4435C14.6679 11.4435 13.9639 12.2395 13.6549 13.0085C13.5419 13.2835 13.5129 13.6665 13.5129 14.0515V21.2385H9.23294C9.23294 21.2385 9.29094 9.5785 9.23294 8.3695H13.5129V10.1935L13.4849 10.2355H13.5129V10.1935C14.0809 9.3185 15.0959 8.0675 17.3689 8.0675C20.1839 8.0675 22.2949 9.9075 22.2949 13.8595ZM4.75694 2.1665C3.29394 2.1665 2.33594 3.1265 2.33594 4.3895C2.33594 5.6245 3.26594 6.6135 4.70094 6.6135H4.72894C6.22194 6.6135 7.14894 5.6245 7.14894 4.3895C7.12294 3.1265 6.22294 2.1665 4.75794 2.1665H4.75694ZM2.58994 21.2385H6.86794V8.3695H2.58994V21.2385Z" fill="#E2E8F0"/>
</svg>
