<svg width="32" height="33" viewBox="0 0 32 33" fill="none" xmlns="http://www.w3.org/2000/svg">
<path fill-rule="evenodd" clip-rule="evenodd" d="M0.960449 16.4891L0.961993 16.3288L0.965177 16.1684L0.970009 16.008L0.976481 15.8476L0.984609 15.6872L0.994377 15.5268L1.0058 15.3665L1.01887 15.2061L1.03359 15.0459L1.04995 14.8857L1.06797 14.7257L1.08763 14.5657L1.10894 14.4058L1.1319 14.2461L1.1565 14.0866L1.18275 13.9274L1.21064 13.7681L1.24017 13.6093L1.27135 13.4505L1.30416 13.2921L1.33862 13.1338L1.3747 12.9759L1.41243 12.8183L1.45177 12.6609L1.49275 12.504L1.53535 12.3473L1.57959 12.1909L1.62543 12.035L1.6729 11.8795L1.72197 11.7244L1.77266 11.5697L1.82495 11.4153L1.87885 11.2615L1.93434 11.1081L1.99143 10.9553L2.0501 10.8029L2.11036 10.651L2.1722 10.4997L2.23562 10.3489L2.3006 10.1987L2.36715 10.049L2.43527 9.89999L2.50493 9.75159L2.57615 9.60375L2.64891 9.45655L2.7232 9.31007L2.79903 9.16423L2.87638 9.01903L2.95524 8.87463L3.03562 8.73087L3.11751 8.58783L3.20088 8.44559L3.28575 8.30407L3.37211 8.16335L3.45994 8.02343L3.54923 7.88431L3.63999 7.74607L3.73221 7.60855L3.82587 7.47199L3.92096 7.33623L4.01748 7.20135L4.11542 7.06743L4.21477 6.93431L4.31552 6.80223L4.41767 6.67103L4.5212 6.54074L4.62611 6.41146L4.73238 6.28316L4.84 6.15585L4.94898 6.02953L5.05929 5.90424L5.17092 5.78L5.28387 5.65679L5.39814 5.53465L5.51369 5.41357L5.63053 5.29359L5.74864 5.1747L5.86802 5.05693L5.98865 4.94028L6.11052 4.82477L6.23362 4.71041L6.35795 4.59721L6.48347 4.4852L6.6102 4.37437L6.73811 4.26473L6.86719 4.15631L6.99743 4.04912L7.12883 3.94316L7.26135 3.83845L7.39501 3.73499L7.52973 3.63281L7.66565 3.53191L7.80261 3.43231L7.94061 3.33401L8.07965 3.23703L8.21981 3.14137L8.36093 3.04705L8.50309 2.95408L8.64629 2.86246L8.79053 2.77222L8.93565 2.68336L9.08181 2.59588L9.22885 2.50981L9.37685 2.42514L9.52581 2.34189L9.67565 2.26008L9.82637 2.17969L9.97797 2.10077L10.1304 2.02329L10.2838 1.94728L10.438 1.87274L10.593 1.79969L10.7488 1.72813L10.9054 1.65807L11.0628 1.58952L11.2209 1.52249L11.3798 1.45698L11.5394 1.39301L11.6997 1.33057L11.8608 1.26969L12.0224 1.21035L12.1848 1.15259L12.3479 1.09639L12.5116 1.04177L12.6758 0.988733L12.8407 0.937285L13.0062 0.887437L13.1723 0.839197L13.3388 0.792565L13.506 0.747541L13.6737 0.704141L13.8419 0.662373L14.0105 0.622245L14.1797 0.583741L14.3493 0.546893L14.5193 0.511685L14.6898 0.478133L14.8607 0.446245L15.032 0.416013L15.2037 0.387453L15.3756 0.360565L15.548 0.335349L15.7206 0.311821L15.8936 0.289973L16.0668 0.269813L16.2404 0.251333L16.4141 0.234565L16.5881 0.219485L16.7624 0.206101L16.9368 0.194429L17.8747 0.140869L17.9282 4.65981L17.9588 4.65945L18.0884 4.65927L18.2179 4.66036L18.3474 4.66272L18.4771 4.66636L18.6067 4.67127L18.7364 4.67745L18.866 4.68491L18.9957 4.69365L19.1253 4.70366L19.255 4.71496L19.3845 4.72753L19.514 4.74139L19.6434 4.75652L19.7728 4.77293L19.902 4.79061L20.0311 4.80957L20.16 4.82982L20.2889 4.85134L20.4176 4.87413L20.5461 4.89821L20.6744 4.92355L20.8025 4.95017L20.9305 4.97806L21.0582 5.00722L21.1856 5.03764L21.3129 5.06934L21.4399 5.10231L21.5665 5.13653L21.6929 5.17202L21.8191 5.20877L21.9448 5.24677L22.0703 5.28602L22.1954 5.32653L22.3202 5.36829L22.4446 5.41129L22.5686 5.45554L22.6923 5.50102L22.8155 5.54775L22.9383 5.5957L23.0607 5.64489L23.1826 5.69531L23.3041 5.74694L23.4251 5.7998L23.5457 5.85387L23.6656 5.90915L23.7852 5.96563L23.9042 6.02332L24.0227 6.08221L24.1406 6.14229L24.258 6.20355L24.3748 6.266L24.491 6.32963L24.6066 6.39443L24.7216 6.4604L24.8361 6.52753L24.9498 6.59583L25.0629 6.66527L25.1754 6.73583L25.2872 6.80759L25.3983 6.88039L25.5087 6.95439L25.6184 7.02951L25.7274 7.10567L25.8357 7.18303L25.9433 7.26143L26.05 7.34095L26.156 7.42159L26.2612 7.50327L26.3657 7.58607L26.4693 7.66983L26.5722 7.75471L26.6742 7.84071L26.7754 7.92767L26.8758 8.01567L26.9753 8.10471L27.0739 8.19479L27.1716 8.28591L27.2685 8.37799L27.3645 8.47103L27.4596 8.56511L27.5537 8.66015L27.6469 8.75623L27.7392 8.85319L27.8305 8.95111L27.9209 9.04999L28.0103 9.14983L28.0987 9.25055L28.1861 9.35223L28.2725 9.45479L28.358 9.55823L28.4424 9.66263L28.5257 9.76783L28.6081 9.87391L28.6893 9.98087L28.7696 10.0887L28.8487 10.1973L28.9268 10.3069L29.0037 10.4172L29.0796 10.5282L29.1544 10.6401L29.2281 10.7529L29.3007 10.8664L29.372 10.9806L29.4424 11.0956L29.5115 11.2113L29.5795 11.3278L29.6463 11.445L29.712 11.5629L29.7764 11.6816L29.8397 11.8009L29.9018 11.9209L29.9627 12.0415L30.0224 12.1628L30.0809 12.2848L30.1381 12.4073L30.1941 12.5306L30.2489 12.6544L30.3025 12.7788L30.3547 12.9038L30.4057 13.0293L30.4555 13.1555L30.504 13.2821L30.5512 13.4094L30.5971 13.5371L30.6417 13.6654L30.6851 13.7942L30.7272 13.9234L30.7679 14.0531L30.8073 14.1833L30.8454 14.3139L30.8822 14.4449L30.9176 14.5765L30.9518 14.7084L30.9845 14.8406L31.0161 14.9733L31.0461 15.1064L31.0749 15.2398L31.1023 15.3735L31.1283 15.5077L31.1529 15.6421L31.1763 15.7768L31.1982 15.9117L31.2188 16.047L31.238 16.1826L31.2557 16.3184L31.2721 16.4545L31.2872 16.5907L31.3008 16.7272L31.313 16.8638L31.3239 17.0007L31.3333 17.1377L31.3413 17.275L31.348 17.4122L31.3533 17.5497L31.357 17.6873L31.3595 17.8249L31.3604 17.9627L31.3601 18.1005L31.3582 18.2385L31.3549 18.3765L31.3503 18.5144L31.3442 18.6524L31.3368 18.7904L31.3278 18.9284L31.3175 19.0664L31.3057 19.2043L31.2925 19.3422L31.278 19.4801L31.2619 19.6178L31.2444 19.7554L31.2257 19.893L31.2053 20.0304L31.1836 20.1677L31.1605 20.3048L31.136 20.4417L31.1101 20.5786L31.0827 20.7152L31.0539 20.8516L31.0236 20.9877L30.9921 21.1237L30.9591 21.2594L30.9246 21.3949L30.8888 21.53L30.8516 21.6649L30.8129 21.7994L30.7729 21.9337L30.7315 22.0677L30.6886 22.2012L30.6444 22.3345L30.5989 22.4673L30.5518 22.5998L30.5035 22.7318L30.4537 22.8634L30.4026 22.9946L30.3501 23.1254L30.2963 23.2558L30.2411 23.3856L30.1845 23.515L30.1266 23.6438L30.0673 23.7722L30.0067 23.9001L29.9448 24.0273L29.8814 24.1542L29.8168 24.2803L29.7508 24.406L29.6836 24.5309L29.615 24.6554L29.5452 24.7792L29.474 24.9024L29.4015 25.0249L29.3277 25.1468L29.2527 25.2681L29.1763 25.3885L29.0987 25.5084L29.0199 25.6275L28.9397 25.7459L28.8584 25.8636L28.7757 25.9805L28.6919 26.0967L28.6068 26.2121L28.5205 26.3268L28.4329 26.4406L28.3442 26.5536L28.2543 26.6658L28.1632 26.7772L28.0709 26.8877L27.9773 26.9973L27.8827 27.1061L27.7868 27.2141L27.6899 27.3211L27.5918 27.4273L27.4926 27.5325L27.3922 27.6368L27.2908 27.7401L27.1881 27.8425L27.0844 27.9439L26.9797 28.0444L26.8739 28.1439L26.767 28.2424L26.659 28.3399L26.55 28.4363L26.44 28.5318L26.3288 28.6262L26.2168 28.7196L26.1037 28.8118L25.9896 28.9031L25.8745 28.9933L25.7584 29.0823L25.6413 29.1702L25.5233 29.2571L25.4044 29.3429L25.2845 29.4274L25.1637 29.511L25.0421 29.5933L24.9195 29.6744L24.796 29.7544L24.6716 29.8333L24.5464 29.9109L24.4204 29.9874L24.2934 30.0625L24.1656 30.1366L24.0372 30.2094L23.9077 30.2809L23.7776 30.3513L23.6467 30.4204L23.515 30.4882L23.3825 30.5549L23.2493 30.6201L23.1154 30.6841L22.9808 30.7469L22.8454 30.8084L22.7094 30.8685L22.5727 30.9274L22.4353 30.9849L22.2973 31.0411L22.1587 31.096L22.0194 31.1495L21.8795 31.2017L21.739 31.2525L21.5979 31.3021L21.4563 31.3501L21.3141 31.3969L21.1713 31.4423L21.028 31.4863L20.8843 31.5289L20.74 31.5701L20.5953 31.61L20.45 31.6485L20.3043 31.6854L20.1582 31.721L20.0116 31.7553L19.8646 31.788L19.7172 31.8193L19.5695 31.8493L19.4213 31.8778L19.2728 31.9048L19.1241 31.9303L18.9748 31.9545L18.8254 31.9772L18.6756 31.9984L18.5256 32.0181L18.3752 32.0365L18.2246 32.0533L18.0738 32.0686L17.9228 32.0826L17.7716 32.0949L17.6201 32.1059L17.4685 32.1154L17.3167 32.1234L17.1648 32.1298L17.0128 32.1348L16.8605 32.1383L16.7083 32.1403L16.5559 32.1409L16.4035 32.1399L16.251 32.1374L16.0984 32.1335L15.9459 32.128L15.7933 32.121L15.6408 32.1126L15.4883 32.1026L15.3357 32.0912L15.1833 32.0782L15.0309 32.0637L14.8786 32.0478L14.7264 32.0304L14.5744 32.0114L14.4224 31.9909L14.2706 31.9689L14.1189 31.9455L13.9675 31.9206L13.8162 31.8941L13.6651 31.8661L13.5143 31.8367L13.3636 31.8058L13.2133 31.7733L13.0632 31.7394L12.9134 31.7041L12.7639 31.6672L12.6147 31.6288L12.4658 31.5889L12.3173 31.5477L12.1692 31.5049L12.0213 31.4606L11.874 31.4149L11.727 31.3677L11.5804 31.319L11.4343 31.2689L11.2886 31.2173L11.1434 31.1643L10.9987 31.1098L10.8544 31.0539L10.7108 30.9965L10.5676 30.9377L10.4249 30.8775L10.2828 30.8159L10.1413 30.7529L10.0004 30.6884L9.86005 30.6225L9.72037 30.5552L9.58133 30.4865L9.44285 30.4164L9.30509 30.3449L9.16805 30.2721L9.03157 30.1979L8.89589 30.1223L8.76093 30.0453L8.62669 29.967L8.49317 29.8874L8.36045 29.8064L8.22845 29.724L8.09725 29.6404L7.96693 29.5553L7.83733 29.4691L7.70861 29.3814L7.58077 29.2926L7.45373 29.2024L7.32758 29.1109L7.20231 29.0181L7.07795 28.9241L6.9545 28.8288L6.83197 28.7323L6.71038 28.6345L6.58975 28.5355L6.47007 28.4353L6.35138 28.3338L6.23367 28.2312L6.11698 28.1273L6.0013 28.0222L5.88665 27.9161L5.77303 27.8086L5.66048 27.7001L5.54899 27.5904L5.43858 27.4796L5.32926 27.3677L5.22104 27.2546L5.11394 27.1404L5.00796 27.0251L4.90313 26.9087L4.79944 26.7913L4.69691 26.6728L4.59556 26.5532L4.49539 26.4326L4.39643 26.3109L4.29866 26.1883L4.20211 26.0646L4.10679 25.94L4.01271 25.8143L3.91988 25.6877L3.82831 25.5601L3.73801 25.4315L3.64899 25.3021L3.56127 25.1717L3.47484 25.0403L3.38973 24.9081L3.30593 24.775L3.22347 24.641L3.14235 24.5062L3.06257 24.3705L2.98416 24.234L2.90711 24.0966L2.83144 23.9585L2.75716 23.8194L2.68427 23.6797L2.61279 23.5392L2.54271 23.3979L2.47406 23.2559L2.40683 23.1131L2.34104 22.9697L2.2767 22.8254L2.2138 22.6806L2.15237 22.535L2.09241 22.3889L2.03391 22.242L1.97691 22.0945L1.92139 21.9464L1.86737 21.7977L1.81485 21.6484L1.76383 21.4985L1.71434 21.3481L1.66637 21.1971L1.61992 21.0456L1.57502 20.8936L1.53165 20.741L1.48983 20.588L1.44955 20.4345L1.41084 20.2806L1.37369 20.1262L1.33811 19.9714L1.30411 19.8162L1.27167 19.6605L1.24083 19.5045L1.21156 19.3482L1.18389 19.1915L1.15782 19.0345L1.13334 18.8771L1.11047 18.7194L1.0892 18.5614L1.06955 18.4032L1.05151 18.2447L1.03509 18.086L1.02029 17.9271L1.00711 17.7679L0.995561 17.6085L0.985641 17.449L0.977353 17.2894L0.970697 17.1295L0.965673 16.9696L0.962289 16.8095L0.960553 16.6493L0.960449 16.4891ZM16.4629 4.75446L16.4264 1.6743L16.3918 1.67765L16.2328 1.69457L16.0741 1.71304L15.9156 1.73307L15.7576 1.75459L15.5999 1.77768L15.4423 1.80231L15.2852 1.82845L15.1282 1.85616L14.972 1.8853L14.8156 1.91608L14.6604 1.94824L14.5048 1.98202L14.3501 2.01724L14.1956 2.05402L14.0417 2.09221L13.8883 2.13194L13.7352 2.17315L13.5827 2.21585L13.4308 2.25997L13.2793 2.30562L13.1284 2.35269L12.978 2.40125L12.8284 2.45115L12.6791 2.50263L12.5305 2.55549L12.3827 2.60974L12.2352 2.66548L12.0886 2.72257L11.9428 2.78105L11.7973 2.84102L11.6526 2.90236L11.5086 2.96509L11.3654 3.02915L11.2229 3.0946L11.0812 3.16137L10.94 3.22961L10.7999 3.29909L10.6604 3.36993L10.5218 3.44211L10.384 3.51562L10.2471 3.59039L10.1108 3.66654L9.97533 3.74401L9.84109 3.82259L9.70725 3.9027L9.57469 3.98388L9.44301 4.06632L9.31197 4.15011L9.18197 4.23513L9.05293 4.32138L8.92509 4.40865L8.79773 4.49747L8.67165 4.58724L8.54653 4.67825L8.42229 4.7705L8.29917 4.86385L8.17717 4.95833L8.05589 5.05413L7.93597 5.15084L7.81693 5.24882L7.69901 5.34787L7.58213 5.44807L7.46645 5.54923L7.35163 5.65167L7.23813 5.75502L7.12559 5.85957L7.01436 5.96499L6.90415 6.07156L6.79515 6.17908L6.68727 6.28768L6.58044 6.39739L6.47501 6.50785L6.37076 6.61927L6.26744 6.73199L6.16555 6.84543L6.06491 6.95967L5.96531 7.07511L5.86715 7.19127L5.77007 7.30847L5.67431 7.42647L5.57979 7.54543L5.48651 7.66519L5.39461 7.78575L5.30391 7.90719L5.21445 8.02959L5.12643 8.15255L5.03959 8.27655L4.95414 8.40119L4.87 8.52663L4.78713 8.65287L4.70566 8.77983L4.62552 8.90743L4.54673 9.03583L4.46935 9.16487L4.39323 9.29471L4.31849 9.42527L4.24522 9.55631L4.17326 9.68807L4.10267 9.82055L4.03352 9.95359L3.96573 10.0873L3.89939 10.2214L3.83444 10.3562L3.77092 10.4916L3.70879 10.6276L3.64812 10.764L3.58883 10.901L3.53099 11.0385L3.47463 11.1765L3.41968 11.3149L3.36617 11.4539L3.31413 11.5933L3.26353 11.7331L3.21443 11.8733L3.16674 12.014L3.12053 12.155L3.0758 12.2965L3.03255 12.4381L2.99075 12.5804L2.95045 12.7228L2.91163 12.8656L2.87427 13.0086L2.83841 13.1521L2.80404 13.2957L2.77116 13.4396L2.73977 13.5837L2.70987 13.7281L2.68147 13.8727L2.65456 14.0175L2.62915 14.1625L2.60524 14.3077L2.58283 14.4529L2.56192 14.5984L2.54251 14.744L2.5246 14.8897L2.50819 15.0354L2.49329 15.1813L2.47989 15.3273L2.46799 15.4732L2.45759 15.6193L2.44869 15.7653L2.44129 15.9113L2.43539 16.0574L2.43099 16.2034L2.4281 16.3494L2.42669 16.4953L2.42679 16.6413L2.42837 16.787L2.43145 16.9328L2.43602 17.0784L2.44207 17.2238L2.44963 17.3692L2.45865 17.5143L2.46916 17.6593L2.48115 17.8041L2.49463 17.9488L2.50956 18.0933L2.52598 18.2374L2.54386 18.3814L2.5632 18.5251L2.58401 18.6685L2.60628 18.8118L2.62999 18.9545L2.65517 19.0971L2.68179 19.2393L2.70984 19.3812L2.73934 19.5228L2.77027 19.6639L2.80263 19.8047L2.83641 19.9451L2.87161 20.0851L2.90823 20.2247L2.94625 20.3638L2.98569 20.5025L3.02652 20.6407L3.06875 20.7785L3.11236 20.9157L3.15735 21.0525L3.20371 21.1887L3.25146 21.3244L3.30056 21.4596L3.35101 21.5942L3.40284 21.7282L3.45599 21.8617L3.51047 21.9946L3.56631 22.1268L3.62345 22.2584L3.68192 22.3894L3.7417 22.5198L3.80278 22.6495L3.86515 22.7785L3.92881 22.9069L3.99375 23.0345L4.05996 23.1615L4.12743 23.2877L4.19617 23.4133L4.26615 23.538L4.33736 23.662L4.40981 23.7853L4.48349 23.9077L4.55835 24.0293L4.63446 24.1502L4.71173 24.2702L4.79021 24.3895L4.86987 24.5079L4.95067 24.6254L5.03264 24.7421L5.11579 24.858L5.20004 24.9729L5.28546 25.087L5.37195 25.2001L5.45961 25.3124L5.54831 25.4237L5.63814 25.5341L5.72907 25.6436L5.82101 25.7521L5.91405 25.8596L6.00812 25.9662L6.10327 26.0718L6.19941 26.1763L6.29655 26.2799L6.39473 26.3825L6.49389 26.4841L6.59407 26.5846L6.69519 26.6841L6.7973 26.7826L6.90032 26.8799L7.0043 26.9763L7.10923 27.0716L7.21507 27.1658L7.32175 27.2588L7.42941 27.3508L7.53797 27.4417L7.64725 27.5314L7.75757 27.6201L7.86861 27.7076L7.98053 27.794L8.09325 27.8793L8.20685 27.9633L8.32117 28.0462L8.43629 28.128L8.55213 28.2085L8.66885 28.288L8.78621 28.3661L8.90445 28.4432L9.02325 28.519L9.14285 28.5936L9.26317 28.667L9.38405 28.7392L9.50573 28.8102L9.62797 28.8798L9.75093 28.9483L9.87445 29.0155L9.99869 29.0815L10.1234 29.1462L10.2488 29.2098L10.3748 29.2719L10.5013 29.3329L10.6284 29.3926L10.756 29.4509L10.884 29.508L11.0128 29.5638L11.1419 29.6183L11.2716 29.6716L11.4016 29.7235L11.5322 29.7741L11.6632 29.8234L11.7946 29.8714L11.9264 29.9181L12.0588 29.9634L12.1914 30.0075L12.3244 30.0502L12.4577 30.0916L12.5916 30.1317L12.7256 30.1704L12.86 30.2077L12.9947 30.2438L13.1296 30.2785L13.2649 30.3119L13.4004 30.3439L13.5362 30.3746L13.6722 30.4039L13.8084 30.4319L13.9448 30.4585L14.0815 30.4838L14.2183 30.5077L14.3552 30.5303L14.4924 30.5515L14.6296 30.5714L14.7671 30.5898L14.9045 30.607L15.0421 30.6228L15.1798 30.6372L15.3176 30.6503L15.4554 30.662L15.5932 30.6724L15.7311 30.6813L15.869 30.689L16.0069 30.6953L16.1447 30.7002L16.2825 30.7038L16.4204 30.706L16.558 30.7069L16.6957 30.7064L16.8333 30.7045L16.9708 30.7014L17.1081 30.6969L17.2454 30.691L17.3825 30.6838L17.5194 30.6753L17.6562 30.6654L17.7929 30.6542L17.9293 30.6417L18.0654 30.6278L18.2014 30.6125L18.3371 30.5961L18.4726 30.5782L18.6078 30.559L18.7428 30.5385L18.8774 30.5168L19.0118 30.4937L19.1459 30.4693L19.2796 30.4436L19.4129 30.4166L19.546 30.3883L19.6786 30.3588L19.8109 30.3279L19.9428 30.2957L20.0742 30.2624L20.2052 30.2277L20.3358 30.1917L20.466 30.1546L20.5957 30.1161L20.725 30.0764L20.8537 30.0355L20.982 29.9933L21.1098 29.9499L21.2369 29.9053L21.3637 29.8594L21.4899 29.8123L21.6155 29.764L21.7405 29.7145L21.8649 29.6639L21.9888 29.612L22.1121 29.5589L22.2347 29.5047L22.3566 29.4494L22.478 29.3928L22.5988 29.335L22.7188 29.2762L22.8382 29.2162L22.9569 29.155L23.0749 29.0928L23.1922 29.0293L23.3087 28.9649L23.4245 28.8993L23.5396 28.8326L23.6541 28.7648L23.7675 28.696L23.8804 28.626L23.9924 28.555L24.1036 28.483L24.214 28.4098L24.3237 28.3356L24.4324 28.2605L24.5403 28.1843L24.6474 28.1071L24.7537 28.0289L24.8591 27.9497L24.9635 27.8696L25.0672 27.7883L25.1699 27.7062L25.2717 27.6232L25.3727 27.5391L25.4727 27.4541L25.5716 27.3682L25.6698 27.2813L25.7669 27.1937L25.8632 27.105L25.9585 27.0155L26.0526 26.9252L26.146 26.8338L26.2383 26.7417L26.3296 26.6487L26.4199 26.5549L26.5091 26.4603L26.5972 26.365L26.6846 26.2685L26.7707 26.1715L26.8559 26.0736L26.9399 25.975L27.0229 25.8756L27.1048 25.7755L27.1857 25.6746L27.2655 25.573L27.3441 25.4707L27.4218 25.3676L27.4982 25.2639L27.5736 25.1594L27.6481 25.0542L27.721 24.9486L27.7931 24.8421L27.8639 24.7352L27.9336 24.6274L28.0024 24.519L28.0697 24.4102L28.136 24.3008L28.2012 24.1905L28.265 24.08L28.3278 23.9687L28.3895 23.8569L28.4498 23.7447L28.5091 23.6318L28.5672 23.5183L28.6239 23.4048L28.6796 23.2903L28.734 23.1754L28.7873 23.0602L28.8392 22.9445L28.89 22.8284L28.9396 22.7119L28.988 22.5948L29.0351 22.4774L29.0809 22.3598L29.1256 22.2414L29.1689 22.123L29.2112 22.0041L29.2521 21.8849L29.2918 21.7653L29.3301 21.6457L29.3674 21.5252L29.4032 21.4049L29.4379 21.2841L29.4713 21.1633L29.5035 21.0419L29.5343 20.9205L29.564 20.7988L29.5923 20.6768L29.6194 20.5547L29.6452 20.4323L29.6697 20.31L29.693 20.1871L29.715 20.0646L29.7357 19.9415L29.7552 19.8184L29.7733 19.6953L29.7903 19.5719L29.8059 19.4487L29.8203 19.3249L29.8333 19.2017L29.8452 19.078L29.8556 18.9545L29.8649 18.8307L29.8729 18.7073L29.8796 18.5836L29.8851 18.4597L29.8892 18.3362L29.8922 18.2129L29.8938 18.0892L29.8942 17.9657L29.8933 17.8423L29.8912 17.719L29.8877 17.5957L29.883 17.4729L29.8771 17.3497L29.8699 17.2269L29.8614 17.1042L29.8517 16.9819L29.8408 16.8594L29.8286 16.7373L29.8152 16.6153L29.8004 16.4936L29.7845 16.372L29.7674 16.2508L29.7489 16.1295L29.7293 16.0088L29.7085 15.8885L29.6865 15.7681L29.6631 15.6481L29.6386 15.5285L29.6128 15.4089L29.5861 15.2902L29.5578 15.1713L29.5286 15.0533L29.498 14.935L29.4663 14.8177L29.4334 14.7005L29.3993 14.5835L29.3641 14.4673L29.3277 14.3514L29.29 14.2357L29.2514 14.1208L29.2114 14.006L29.1705 13.8919L29.1282 13.7781L29.0849 13.665L29.0404 13.5521L28.9948 13.4399L28.9481 13.3284L28.9004 13.2173L28.8512 13.1065L28.8014 12.9966L28.7501 12.8869L28.698 12.7781L28.6447 12.6698L28.5902 12.5619L28.5348 12.4549L28.4783 12.3483L28.4206 12.2422L28.3622 12.1372L28.3025 12.0324L28.2418 11.9285L28.18 11.825L28.1174 11.7226L28.0535 11.6205L27.9888 11.5193L27.923 11.4185L27.8563 11.3187L27.7887 11.2197L27.7199 11.1212L27.6502 11.0235L27.5796 10.9265L27.5081 10.8305L27.4356 10.735L27.3621 10.6404L27.2878 10.5465L27.2125 10.4534L27.1364 10.3612L27.0592 10.2697L26.9813 10.179L26.9025 10.0892L26.8228 10.0002L26.7423 9.91207L26.6607 9.82463L26.5787 9.73839L26.4953 9.65263L26.4116 9.56807L26.3268 9.48415L26.2414 9.40127L26.1549 9.31903L26.068 9.23807L25.98 9.15775L25.8913 9.07839L25.802 9.00007L25.712 8.92263L25.6208 8.84591L25.5292 8.77031L25.437 8.69567L25.344 8.62199L25.2502 8.54919L25.156 8.47759L25.0607 8.40655L24.9651 8.33687L24.8687 8.26807L24.7716 8.20015L24.674 8.13335L24.5755 8.06735L24.4769 8.00271L24.3772 7.93879L24.2773 7.87599L24.1765 7.81415L24.0752 7.75335L23.9735 7.69367L23.8713 7.63511L23.7682 7.57727L23.6651 7.52079L23.5611 7.46519L23.4567 7.41071L23.3519 7.35735L23.2465 7.30495L23.1406 7.25359L23.0344 7.20343L22.9276 7.15423L22.8205 7.10623L22.7129 7.05919L22.6015 7.01183L22.4967 6.96855L22.3876 6.92471L22.2788 6.88223L22.169 6.84055L22.0592 6.80023L21.949 6.76087L21.8385 6.72271L21.7276 6.68551L21.6165 6.64959L21.505 6.61471L21.3932 6.58095L21.2814 6.54839L21.1691 6.51684L21.0564 6.48637L20.9438 6.45715L20.831 6.42904L20.7175 6.40196L20.6044 6.37613L20.4907 6.35133L20.377 6.32773L20.2629 6.3052L20.149 6.28385L20.0348 6.26361L19.9206 6.24455L19.8059 6.22655L19.6915 6.20974L19.5768 6.19405L19.462 6.17948L19.3472 6.16605L19.2325 6.15378L19.1176 6.14263L19.0026 6.13261L18.8876 6.12373L18.7724 6.11597L18.6576 6.10936L18.5428 6.10388L18.4275 6.09952L18.3128 6.0963L18.198 6.09421L18.0832 6.09325L17.9682 6.09341L17.9452 6.09367L17.9814 9.15143L18.0466 9.15111L18.1305 9.15159L18.2144 9.15287L18.2985 9.15503L18.3825 9.15799L18.4666 9.16183L18.5507 9.16647L18.6348 9.17191L18.719 9.17823L18.8032 9.18535L18.8873 9.19335L18.9714 9.20215L19.0556 9.21183L19.1397 9.22231L19.2236 9.23359L19.3076 9.24583L19.3916 9.25879L19.4754 9.27263L19.5592 9.28735L19.6429 9.30287L19.7265 9.31927L19.81 9.33647L19.8935 9.35447L19.9768 9.37335L20.0599 9.39311L20.1429 9.41367L20.2257 9.43503L20.3084 9.45727L20.391 9.48031L20.4734 9.50423L20.5556 9.52895L20.6376 9.55447L20.7194 9.58087L20.801 9.60807L20.8825 9.63615L20.9636 9.66503L21.0445 9.69471L21.1252 9.72519L21.2056 9.75655L21.2858 9.78871L21.3657 9.82167L21.4453 9.85551L21.5247 9.89007L21.6037 9.92551L21.6824 9.96167L21.7608 9.99871L21.839 10.0365L21.9168 10.0752L21.9942 10.1146L22.0713 10.1549L22.1481 10.1958L22.2244 10.2377L22.3004 10.2802L22.3761 10.3236L22.4513 10.3677L22.5262 10.4127L22.6006 10.4584L22.6746 10.5049L22.7482 10.5521L22.8214 10.6001L22.8941 10.6489L22.9664 10.6984L23.0383 10.7487L23.1096 10.7997L23.1805 10.8514L23.2509 10.904L23.3209 10.9572L23.3903 11.0112L23.4592 11.0659L23.5276 11.1213L23.5956 11.1774L23.6629 11.2343L23.7298 11.2918L23.7961 11.3501L23.8619 11.409L23.9271 11.4687L23.9916 11.529L24.0557 11.5901L24.1192 11.6517L24.1821 11.7141L24.2444 11.7772L24.306 11.8409L24.3672 11.9053L24.4276 11.9703L24.4874 12.036L24.5466 12.1023L24.6052 12.1692L24.6631 12.2368L24.7204 12.3049L24.777 12.3737L24.8329 12.4432L24.8882 12.5132L24.9428 12.5838L24.9967 12.655L25.0499 12.7269L25.1024 12.7992L25.1542 12.8721L25.2052 12.9457L25.2556 13.0197L25.3053 13.0944L25.3541 13.1695L25.4023 13.2453L25.4497 13.3215L25.4964 13.3982L25.5424 13.4755L25.5875 13.5533L25.6319 13.6316L25.6755 13.7104L25.7183 13.7897L25.7604 13.8694L25.8016 13.9497L25.8421 14.0304L25.8817 14.1116L25.9206 14.1932L25.9586 14.2752L25.9958 14.3577L26.0322 14.4406L26.0678 14.524L26.1025 14.6077L26.1364 14.6919L26.1695 14.7765L26.2016 14.8614L26.233 14.9467L26.2635 15.0324L26.2932 15.1185L26.322 15.2049L26.3498 15.2917L26.3769 15.3787L26.403 15.4662L26.4283 15.5539L26.4527 15.642L26.4761 15.7304L26.4988 15.819L26.5205 15.908L26.5413 15.9972L26.5612 16.0867L26.5801 16.1765L26.5982 16.2665L26.6153 16.3567L26.6316 16.4473L26.6469 16.538L26.6613 16.6289L26.6748 16.7201L26.6873 16.8113L26.6989 16.9029L26.7097 16.9946L26.7193 17.0865L26.7281 17.1785L26.7361 17.2708L26.7429 17.3631L26.7489 17.4556L26.7539 17.5481L26.758 17.6409L26.7611 17.7337L26.7633 17.8266L26.7645 17.9197L26.7647 18.0128L26.764 18.1059L26.7623 18.1991L26.7596 18.2924L26.756 18.3857L26.7515 18.479L26.746 18.5724L26.7395 18.6658L26.732 18.7592L26.7236 18.8526L26.7142 18.9459L26.7038 19.0392L26.6925 19.1325L26.6802 19.2257L26.6669 19.319L26.6527 19.4121L26.6375 19.5051L26.6213 19.5981L26.6041 19.6909L26.5861 19.7838L26.5669 19.8764L26.5469 19.969L26.5259 20.0613L26.5039 20.1536L26.4809 20.2457L26.457 20.3377L26.4321 20.4294L26.4063 20.521L26.3795 20.6124L26.3517 20.7036L26.323 20.7946L26.2932 20.8854L26.2626 20.9759L26.231 21.0662L26.1985 21.1563L26.165 21.2461L26.1305 21.3356L26.0952 21.4249L26.0589 21.5138L26.0216 21.6026L25.9833 21.6909L25.9442 21.7789L25.9041 21.8667L25.8631 21.9541L25.8212 22.0411L25.7783 22.1278L25.7344 22.2141L25.6897 22.3001L25.6441 22.3857L25.5976 22.4709L25.5501 22.5557L25.5018 22.6401L25.4525 22.724L25.4024 22.8076L25.3513 22.8906L25.2994 22.9733L25.2465 23.0555L25.1929 23.1373L25.1382 23.2185L25.0828 23.2993L25.0264 23.3796L24.9693 23.4593L24.9112 23.5386L24.8523 23.6174L24.7925 23.6957L24.7319 23.7733L24.6705 23.8505L24.6081 23.9271L24.545 24.0031L24.4811 24.0786L24.4163 24.1535L24.3507 24.2278L24.2843 24.3015L24.2171 24.3746L24.1491 24.4471L24.0804 24.519L24.0108 24.5902L23.9405 24.6609L23.8692 24.7308L23.7974 24.8001L23.7247 24.8688L23.6513 24.9367L23.5772 25.0041L23.5022 25.0706L23.4266 25.1365L23.3502 25.2018L23.2732 25.2663L23.1953 25.3301L23.1168 25.3932L23.0376 25.4555L22.9576 25.5171L22.8771 25.578L22.7958 25.6381L22.7138 25.6974L22.6312 25.7561L22.548 25.8138L22.464 25.8709L22.3794 25.9271L22.2942 25.9825L22.2084 26.0372L22.122 26.091L22.0348 26.144L21.9472 26.1962L21.8589 26.2476L21.7701 26.2981L21.6807 26.3477L21.5907 26.3966L21.5001 26.4446L21.409 26.4917L21.3173 26.538L21.2252 26.5833L21.1325 26.6279L21.0392 26.6715L20.9454 26.7142L20.8512 26.7561L20.7565 26.797L20.6612 26.837L20.5655 26.8762L20.4693 26.9144L20.3727 26.9517L20.2756 26.9881L20.1781 27.0235L20.0802 27.058L19.9818 27.0915L19.8831 27.1241L19.7839 27.1558L19.6844 27.1865L19.5844 27.2162L19.4841 27.2449L19.3835 27.2728L19.2824 27.2996L19.1811 27.3254L19.0794 27.3503L18.9774 27.3742L18.875 27.3971L18.7724 27.419L18.6695 27.4399L18.5663 27.4598L18.4629 27.4788L18.3591 27.4967L18.2551 27.5136L18.1509 27.5294L18.0464 27.5443L17.9417 27.5581L17.8369 27.571L17.7318 27.5828L17.6265 27.5936L17.5211 27.6033L17.4155 27.6121L17.3097 27.6197L17.2038 27.6264L17.0977 27.632L16.9916 27.6365L16.8852 27.6401L16.7788 27.6426L16.6724 27.644L16.5657 27.6444L16.4591 27.6438L16.3524 27.642L16.2457 27.6393L16.1388 27.6354L16.0321 27.6305L15.9252 27.6246L15.8184 27.6177L15.7115 27.6097L15.6047 27.6005L15.4979 27.5904L15.3911 27.5792L15.2844 27.5669L15.1777 27.5537L15.0711 27.5393L14.9646 27.5238L14.8582 27.5073L14.7519 27.4898L14.6456 27.4712L14.5396 27.4516L14.4336 27.4309L14.3279 27.409L14.2222 27.3862L14.1168 27.3624L14.0115 27.3374L13.9064 27.3114L13.8015 27.2844L13.6968 27.2563L13.5923 27.2272L13.4881 27.197L13.3841 27.1658L13.2804 27.1336L13.1769 27.1002L13.0738 27.0659L12.9708 27.0305L12.8683 26.9942L12.766 26.9567L12.664 26.9182L12.5624 26.8787L12.4612 26.8382L12.3602 26.7966L12.2597 26.7541L12.1595 26.7106L12.0597 26.6659L11.9603 26.6203L11.8613 26.5737L11.7628 26.5262L11.6646 26.4775L11.5668 26.4279L11.4696 26.3773L11.3728 26.3257L11.2765 26.2732L11.1807 26.2197L11.0853 26.1651L10.9904 26.1097L10.8961 26.0532L10.8023 25.9957L10.709 25.9374L10.6163 25.8781L10.5241 25.8178L10.4325 25.7565L10.3415 25.6944L10.251 25.6313L10.1612 25.5674L10.0719 25.5024L9.98325 25.4365L9.89517 25.3697L9.80781 25.3021L9.72109 25.2335L9.63501 25.164L9.54957 25.0937L9.46477 25.0224L9.38069 24.9503L9.29733 24.8773L9.21461 24.8034L9.13261 24.7287L9.05141 24.6532L8.97085 24.5768L8.89101 24.4995L8.81197 24.4214L8.73373 24.3426L8.65621 24.2628L8.57941 24.1823L8.50341 24.101L8.42829 24.0189L8.35389 23.9359L8.28029 23.8522L8.20757 23.7677L8.13557 23.6825L8.06453 23.5965L7.99421 23.5097L7.92485 23.4223L7.85629 23.3341L7.78861 23.2451L7.72181 23.1554L7.65581 23.0651L7.59077 22.974L7.52669 22.8822L7.46341 22.7897L7.40109 22.6966L7.3397 22.6029L7.27923 22.5084L7.21968 22.4133L7.16109 22.3175L7.10344 22.2211L7.04675 22.1241L6.99103 22.0265L6.93627 21.9283L6.88249 21.8294L6.8297 21.7301L6.77789 21.6301L6.72708 21.5295L6.67728 21.4284L6.62849 21.3267L6.58071 21.2246L6.53396 21.1217L6.48823 21.0185L6.44355 20.9148L6.3999 20.8105L6.35729 20.7057L6.31575 20.6005L6.27525 20.4948L6.23582 20.3886L6.19745 20.2821L6.16016 20.1749L6.12395 20.0675L6.08883 19.9596L6.05479 19.8513L6.02184 19.7426L5.98999 19.6335L5.95925 19.5241L5.92961 19.4142L5.90109 19.304L5.87368 19.1935L5.84739 19.0826L5.82223 18.9714L5.79818 18.8599L5.77528 18.7481L5.75351 18.6361L5.73288 18.5237L5.71339 18.411L5.69506 18.2981L5.67787 18.185L5.66183 18.0717L5.64695 17.9581L5.63323 17.8442L5.62067 17.7302L5.60927 17.6161L5.59903 17.5017L5.58998 17.3871L5.58209 17.2725L5.57537 17.1576L5.56983 17.0426L5.56547 16.9276L5.5623 16.8124L5.5603 16.6971L5.55948 16.5817L5.55986 16.4662L5.56141 16.3507L5.56416 16.2352L5.56809 16.1196L5.57322 16.0039L5.57954 15.8883L5.58704 15.7726L5.59575 15.657L5.60563 15.5414L5.61672 15.4258L5.62901 15.3102L5.64248 15.1948L5.65715 15.0793L5.67302 14.964L5.69007 14.8487L5.70833 14.7336L5.72777 14.6185L5.74841 14.5037L5.77024 14.3889L5.79327 14.2742L5.81747 14.1598L5.84288 14.0455L5.86947 13.9314L5.89725 13.8175L5.92621 13.7038L5.95636 13.5904L5.98769 13.4771L6.0202 13.3642L6.0539 13.2514L6.08876 13.1389L6.12481 13.0267L6.16203 12.9149L6.20041 12.8033L6.23997 12.692L6.28069 12.581L6.32257 12.4704L6.36561 12.3601L6.40981 12.2502L6.45516 12.1407L6.50167 12.0316L6.54931 11.9228L6.59811 11.8145L6.64804 11.7065L6.69911 11.599L6.75131 11.492L6.80465 11.3854L6.85911 11.2793L6.91468 11.1737L6.97137 11.0685L7.02918 10.9638L7.08809 10.8597L7.1481 10.756L7.20921 10.6529L7.27142 10.5504L7.33471 10.4484L7.39909 10.3469L7.46453 10.2461L7.53109 10.1458L7.59861 10.0461L7.66733 9.94711L7.73701 9.84863L7.80773 9.75079L7.87957 9.65367L7.95237 9.55711L8.02629 9.46127L8.10117 9.36607L8.17709 9.27159L8.25397 9.17783L8.33189 9.08471L8.41085 8.99231L8.49077 8.90063L8.57165 8.80975L8.65357 8.71959L8.73637 8.63015L8.82021 8.54151L8.90501 8.45359L8.99069 8.36655L9.07733 8.28023L9.16493 8.19471L9.25349 8.11007L9.34293 8.02615L9.43325 7.94319L9.52453 7.86095L9.61669 7.77967L9.70965 7.69919L9.80357 7.61959L9.89837 7.54087L9.99397 7.46303L10.0904 7.38607L10.1878 7.31007L10.286 7.23495L10.3849 7.16079L10.4848 7.08751L10.5853 7.01519L10.6867 6.94383L10.7889 6.87343L10.8919 6.80399L10.9956 6.73559L11.1001 6.66807L11.2053 6.60159L11.3113 6.5361L11.418 6.47161L11.5255 6.40814L11.6336 6.34569L11.7424 6.28427L11.852 6.22388L11.9621 6.16454L12.073 6.10625L12.1845 6.04902L12.2967 5.99285L12.4095 5.93776L12.5229 5.88374L12.637 5.83081L12.7516 5.77897L12.8669 5.72823L12.9828 5.6786L13.0992 5.63008L13.2161 5.58267L13.3336 5.53639L13.4516 5.49124L13.5702 5.44722L13.6893 5.40435L13.8089 5.36262L13.929 5.32205L14.0496 5.28263L14.1705 5.24438L14.292 5.20729L14.414 5.17138L14.5364 5.13665L14.6591 5.1031L14.7823 5.07074L14.9059 5.03957L15.0299 5.00961L15.1542 4.98084L15.2789 4.95328L15.404 4.92693L15.5293 4.90179L15.6551 4.87788L15.7811 4.85518L15.9074 4.83371L16.034 4.81347L16.1609 4.79446L16.288 4.77669L16.4154 4.76016L16.4629 4.75446ZM16.5167 9.28975L16.48 6.19838L16.3756 6.21297L16.2634 6.2298L16.1511 6.24774L16.0395 6.26671L15.9277 6.28684L15.8165 6.308L15.7056 6.33025L15.595 6.35353L15.4847 6.37793L15.3746 6.4034L15.2648 6.42992L15.1556 6.45749L15.0464 6.48616L14.9415 6.51479L14.8297 6.54655L14.7218 6.57831L14.6144 6.61111L14.5075 6.64487L14.4009 6.67975L14.2946 6.71567L14.1888 6.75255L14.0836 6.79039L13.9789 6.82935L13.8745 6.86919L13.7706 6.91015L13.6675 6.95199L13.5644 6.99495L13.4621 7.03879L13.3602 7.08359L13.2591 7.12935L13.1582 7.17615L13.0579 7.22391L12.9584 7.27247L12.8592 7.32215L12.7609 7.37263L12.6628 7.42423L12.5657 7.47647L12.4688 7.52999L12.3728 7.58407L12.2774 7.63919L12.1825 7.69527L12.0884 7.75215L11.9947 7.81007L11.902 7.86863L11.8096 7.92823L11.7182 7.98863L11.6274 8.04983L11.5372 8.11199L11.4476 8.17503L11.3591 8.23863L11.271 8.30335L11.1837 8.36879L11.0971 8.43503L11.0113 8.50199L10.9261 8.56991L10.8419 8.63847L10.7584 8.70783L10.6755 8.77815L10.5936 8.84895L10.5124 8.92071L10.4319 8.99319L10.3523 9.06631L10.2736 9.14015L10.1954 9.21487L10.1184 9.29007L10.042 9.36607L9.96645 9.44287L9.89181 9.52023L9.81797 9.59839L9.74501 9.67711L9.67293 9.75647L9.60165 9.83655L9.53117 9.91735L9.46189 9.99855L9.39325 10.0805L9.32549 10.1632L9.25869 10.2463L9.19285 10.33L9.12773 10.4145L9.06365 10.4993L9.00045 10.5849L8.93821 10.6709L8.87685 10.7576L8.81653 10.8446L8.75709 10.9323L8.69853 11.0205L8.64093 11.1093L8.58437 11.1984L8.52877 11.2881L8.47405 11.3784L8.42029 11.469L8.36757 11.5601L8.31573 11.6517L8.26501 11.7435L8.21517 11.836L8.16621 11.9289L8.11845 12.0221L8.07157 12.1158L8.02573 12.2099L7.98085 12.3042L7.93701 12.3991L7.89413 12.4942L7.85229 12.5897L7.81141 12.6856L7.77165 12.7817L7.73285 12.8782L7.69501 12.9751L7.65821 13.0722L7.62253 13.1696L7.58773 13.2673L7.55413 13.3652L7.52141 13.4634L7.48981 13.5619L7.45917 13.6606L7.42965 13.7595L7.40109 13.8586L7.37365 13.9579L7.34718 14.0575L7.32177 14.1572L7.29741 14.2571L7.2741 14.3572L7.25182 14.4573L7.23058 14.5577L7.21041 14.6582L7.19127 14.7588L7.17317 14.8596L7.15614 14.9604L7.14013 15.0613L7.12519 15.1622L7.11128 15.2633L7.09843 15.3645L7.08663 15.4657L7.07587 15.5669L7.06615 15.6681L7.05749 15.7694L7.04987 15.8706L7.0433 15.972L7.03776 16.0733L7.03327 16.1745L7.02983 16.2757L7.02743 16.3768L7.02607 16.4779L7.02574 16.579L7.02645 16.68L7.0282 16.7809L7.03099 16.8817L7.03479 16.9823L7.03964 17.083L7.04551 17.1834L7.05241 17.2837L7.06034 17.3839L7.06928 17.4839L7.07925 17.5837L7.09023 17.6834L7.10223 17.7829L7.11524 17.8823L7.12926 17.9813L7.14429 18.0803L7.16031 18.1789L7.17735 18.2773L7.19538 18.3756L7.21439 18.4734L7.23441 18.5712L7.2554 18.6685L7.27739 18.7657L7.30034 18.8625L7.32429 18.959L7.3492 19.0553L7.37509 19.1512L7.40189 19.2467L7.42973 19.342L7.45845 19.4369L7.48821 19.5314L7.51885 19.6257L7.55045 19.7194L7.58301 19.8128L7.61645 19.9058L7.65085 19.9985L7.68621 20.0907L7.72245 20.1825L7.75957 20.2738L7.79765 20.3648L7.83661 20.4553L7.87653 20.5453L7.91725 20.6349L7.95893 20.7239L8.00149 20.8125L8.04485 20.9007L8.08917 20.9883L8.13429 21.0755L8.18029 21.1621L8.22717 21.2482L8.27485 21.3338L8.32341 21.4189L8.37277 21.5033L8.42301 21.5873L8.47405 21.6707L8.52589 21.7535L8.57853 21.8358L8.63205 21.9175L8.68621 21.9985L8.74133 22.079L8.79709 22.1589L8.85373 22.2381L8.91109 22.3168L8.96925 22.3948L9.02813 22.4722L9.08781 22.5489L9.14813 22.625L9.20925 22.7005L9.27109 22.7753L9.33365 22.8494L9.39693 22.9228L9.46093 22.9957L9.52557 23.0677L9.59093 23.1391L9.65693 23.2097L9.72365 23.2797L9.79101 23.349L9.85909 23.4176L9.92773 23.4854L9.99709 23.5525L10.0671 23.6189L10.1376 23.6845L10.2088 23.7495L10.2806 23.8136L10.353 23.8769L10.426 23.9396L10.4996 24.0014L10.5738 24.0625L10.6485 24.1228L10.7238 24.1823L10.7996 24.241L10.876 24.299L10.953 24.3561L11.0304 24.4125L11.1083 24.468L11.1868 24.5227L11.2657 24.5766L11.3452 24.6297L11.4252 24.682L11.5056 24.7334L11.5864 24.7841L11.6677 24.8338L11.7495 24.8828L11.8317 24.9309L11.9143 24.9781L11.9974 25.0245L12.0808 25.07L12.1647 25.1147L12.2489 25.1585L12.3335 25.2014L12.4185 25.2436L12.504 25.2848L12.5897 25.3252L12.6756 25.3646L12.7621 25.4033L12.8488 25.4409L12.9358 25.4778L13.0232 25.5137L13.1108 25.5488L13.1987 25.583L13.2869 25.6162L13.3754 25.6486L13.4641 25.6801L13.5531 25.7107L13.6424 25.7405L13.7318 25.7692L13.8215 25.7971L13.9114 25.8241L14.0015 25.8501L14.0917 25.8753L14.1822 25.8996L14.2728 25.923L14.3636 25.9454L14.4546 25.9669L14.5457 25.9876L14.637 26.0073L14.7284 26.0262L14.8198 26.044L14.9115 26.0609L15.0031 26.077L15.0949 26.0922L15.1868 26.1064L15.2787 26.1197L15.3707 26.1322L15.4627 26.1437L15.5548 26.1542L15.6468 26.1639L15.739 26.1726L15.8312 26.1805L15.9233 26.1874L16.0155 26.1934L16.1076 26.1985L16.1996 26.2027L16.2918 26.206L16.3838 26.2084L16.4757 26.2098L16.5676 26.2104L16.6595 26.2101L16.7513 26.2088L16.8429 26.2067L16.9345 26.2037L17.026 26.1998L17.1172 26.1949L17.2084 26.1892L17.2995 26.1826L17.3904 26.175L17.4812 26.1666L17.5718 26.1573L17.6623 26.1472L17.7525 26.1361L17.8426 26.1242L17.9324 26.1115L18.0221 26.0978L18.1116 26.0833L18.2007 26.0679L18.2897 26.0516L18.3784 26.0345L18.4669 26.0166L18.5553 25.9977L18.6431 25.978L18.7308 25.9575L18.8181 25.9361L18.9052 25.9139L18.992 25.8909L19.0785 25.8669L19.1647 25.8422L19.2505 25.8167L19.336 25.7904L19.4211 25.7632L19.506 25.7352L19.5904 25.7064L19.6744 25.6768L19.7581 25.6464L19.8414 25.6152L19.9243 25.5832L20.0068 25.5504L20.0889 25.5168L20.1706 25.4825L20.2518 25.4473L20.3327 25.4115L20.413 25.3749L20.493 25.3374L20.5725 25.2993L20.6514 25.2605L20.7301 25.2207L20.8081 25.1804L20.8858 25.1392L20.9628 25.0974L21.0394 25.0549L21.1156 25.0116L21.1911 24.9676L21.2662 24.9229L21.3408 24.8775L21.4147 24.8314L21.4883 24.7846L21.5611 24.7373L21.6335 24.6891L21.7054 24.6402L21.7766 24.5908L21.8472 24.5408L21.9174 24.4899L21.9869 24.4386L22.0558 24.3865L22.1242 24.3338L22.1917 24.2806L22.259 24.2266L22.3256 24.1721L22.3912 24.117L22.4567 24.0611L22.5212 24.0049L22.5852 23.9481L22.6487 23.8904L22.7112 23.8325L22.7733 23.7738L22.8348 23.7146L22.8954 23.6549L22.9555 23.5946L23.0149 23.5338L23.0737 23.4725L23.1316 23.4106L23.1889 23.3482L23.2456 23.2853L23.3015 23.2221L23.3568 23.1581L23.4113 23.0937L23.4651 23.0289L23.5183 22.9635L23.5706 22.8979L23.6223 22.8316L23.6733 22.7649L23.7235 22.6978L23.7729 22.6302L23.8216 22.5624L23.8696 22.4938L23.9168 22.4251L23.9633 22.3559L24.0092 22.2862L24.054 22.2164L24.0983 22.146L24.1417 22.0752L24.1845 22.0041L24.2263 21.9327L24.2676 21.8608L24.3078 21.7889L24.3475 21.7162L24.3863 21.6435L24.4242 21.5705L24.4616 21.4969L24.4979 21.4234L24.5336 21.3492L24.5684 21.2752L24.6026 21.2004L24.6357 21.1257L24.6683 21.0505L24.7 20.9753L24.7308 20.8997L24.7608 20.8239L24.7901 20.7478L24.8184 20.6718L24.8462 20.5952L24.8729 20.5185L24.8989 20.4417L24.9241 20.3647L24.9485 20.2874L24.9721 20.2101L24.9948 20.1326L25.0168 20.0549L25.0378 19.9771L25.0581 19.8991L25.0776 19.821L25.0962 19.7429L25.114 19.6645L25.131 19.5861L25.1473 19.5076L25.1625 19.4291L25.1771 19.3505L25.1908 19.2715L25.2036 19.1929L25.2157 19.114L25.2269 19.035L25.2373 18.9562L25.2469 18.8773L25.2557 18.7981L25.2637 18.7194L25.2708 18.6402L25.2772 18.5612L25.2826 18.4824L25.2873 18.4033L25.2912 18.3245L25.2942 18.2457L25.2964 18.1666L25.2978 18.0881L25.2985 18.0092L25.2982 17.9305L25.2973 17.8519L25.2954 17.7736L25.2928 17.6951L25.2893 17.6168L25.2851 17.5388L25.2801 17.4605L25.2742 17.3825L25.2676 17.3049L25.2602 17.2271L25.252 17.1497L25.2429 17.0722L25.2332 16.9951L25.2226 16.9181L25.2112 16.8411L25.1991 16.7645L25.1862 16.6881L25.1725 16.6118L25.1581 16.5358L25.1428 16.4597L25.1268 16.3842L25.1101 16.309L25.0925 16.2337L25.0742 16.1587L25.0553 16.0843L25.0354 16.0097L25.0149 15.9357L24.9937 15.8617L24.9716 15.7883L24.9489 15.7149L24.9254 15.6419L24.9013 15.5694L24.8764 15.497L24.8506 15.4248L24.8244 15.3532L24.7972 15.2817L24.7695 15.2108L24.741 15.14L24.7118 15.0695L24.682 14.9997L24.6513 14.9299L24.6201 14.8607L24.5882 14.7919L24.5556 14.7233L24.5222 14.655L24.4884 14.5874L24.4536 14.52L24.4184 14.4532L24.3825 14.3868L24.3459 14.3205L24.3088 14.2549L24.2708 14.1897L24.2324 14.1249L24.1932 14.0605L24.1536 13.9967L24.1131 13.9331L24.0722 13.8702L24.0306 13.8077L23.9884 13.7457L23.9456 13.6841L23.9022 13.623L23.8584 13.5625L23.8137 13.5023L23.7687 13.4428L23.7229 13.3837L23.6768 13.3252L23.63 13.267L23.5826 13.2095L23.5347 13.1525L23.4863 13.0959L23.4374 13.0401L23.3878 12.9845L23.3379 12.9297L23.2873 12.8753L23.2364 12.8217L23.1848 12.7684L23.1328 12.7158L23.0802 12.6636L23.0273 12.6121L22.9739 12.5613L22.92 12.5109L22.8655 12.461L22.8106 12.4119L22.7553 12.3633L22.6994 12.3152L22.6435 12.268L22.5868 12.221L22.5297 12.1749L22.4723 12.1293L22.4144 12.0842L22.3561 12.0399L22.2976 11.9963L22.2384 11.9531L22.1789 11.9105L22.1192 11.8688L22.0588 11.8274L21.9985 11.787L21.9377 11.747L21.8764 11.7077L21.8147 11.669L21.7529 11.631L21.6905 11.5936L21.628 11.5569L21.565 11.5208L21.5021 11.4855L21.4385 11.4508L21.3747 11.4166L21.3106 11.3832L21.2464 11.3505L21.1817 11.3184L21.1168 11.2869L21.0517 11.2562L20.9865 11.2262L20.9206 11.1967L20.855 11.1681L20.7889 11.1401L20.7225 11.1126L20.656 11.086L20.5895 11.0601L20.5226 11.0348L20.4553 11.0101L20.3882 10.9862L20.3207 10.9629L20.253 10.9404L20.1854 10.9185L20.1175 10.8974L20.0496 10.8769L19.9811 10.8571L19.9128 10.8381L19.8444 10.8197L19.7759 10.802L19.7073 10.7849L19.6383 10.7686L19.5695 10.753L19.5007 10.7381L19.4316 10.7239L19.3623 10.7103L19.2934 10.6976L19.2241 10.6854L19.1549 10.674L19.0853 10.6632L19.0162 10.6532L18.9465 10.6437L18.8773 10.6352L18.8079 10.6272L18.7384 10.6199L18.6691 10.6133L18.5996 10.6074L18.5304 10.6022L18.4608 10.5977L18.3915 10.5939L18.3224 10.5908L18.2528 10.5883L18.1837 10.5865L18.1146 10.5855L18.0456 10.5851L17.9984 10.5853L18.0341 13.6056L18.0555 13.6057L18.0952 13.6062L18.1349 13.6072L18.1748 13.6085L18.2146 13.6103L18.2545 13.6125L18.2944 13.615L18.3344 13.6181L18.3744 13.6215L18.4145 13.6253L18.4546 13.6296L18.4947 13.6342L18.5348 13.6393L18.5749 13.6449L18.6151 13.6508L18.6552 13.6572L18.6954 13.664L18.7355 13.6712L18.7756 13.6789L18.8157 13.6869L18.8558 13.6954L18.8959 13.7043L18.936 13.7137L18.9759 13.7234L19.0159 13.7336L19.0558 13.7442L19.0956 13.7553L19.1355 13.7667L19.1752 13.7786L19.2149 13.7909L19.2545 13.8037L19.2941 13.8169L19.3336 13.8306L19.373 13.8446L19.4123 13.859L19.4515 13.8739L19.4906 13.8892L19.5296 13.9049L19.5685 13.9211L19.6073 13.9377L19.646 13.9547L19.6846 13.9721L19.7231 13.99L19.7614 14.0083L19.7996 14.0269L19.8377 14.0461L19.8755 14.0657L19.9132 14.0856L19.9508 14.106L19.9883 14.1268L20.0256 14.148L20.0627 14.1696L20.0996 14.1916L20.1364 14.2141L20.1729 14.2369L20.2093 14.2602L20.2455 14.2838L20.2815 14.3079L20.3173 14.3325L20.3529 14.3573L20.3883 14.3826L20.4235 14.4083L20.4584 14.4344L20.4932 14.4609L20.5276 14.4877L20.562 14.515L20.596 14.5427L20.6297 14.5707L20.6633 14.5992L20.6966 14.628L20.7297 14.6572L20.7624 14.6868L20.7949 14.7168L20.8272 14.7471L20.8591 14.7778L20.8909 14.8089L20.9222 14.8404L20.9533 14.8722L20.9842 14.9044L21.0147 14.9369L21.0449 14.9699L21.0749 15.0032L21.1045 15.0368L21.1338 15.0708L21.1628 15.1051L21.1915 15.1397L21.2198 15.1748L21.2478 15.2101L21.2755 15.2458L21.3028 15.2819L21.3299 15.3182L21.3565 15.3549L21.3828 15.3919L21.4088 15.4293L21.4344 15.4669L21.4596 15.5049L21.4844 15.5432L21.509 15.5818L21.5331 15.6207L21.5569 15.6599L21.5802 15.6994L21.6032 15.7392L21.6258 15.7793L21.648 15.8197L21.6698 15.8603L21.6912 15.9013L21.7122 15.9425L21.7328 15.9839L21.753 16.0257L21.7728 16.0677L21.7921 16.11L21.8111 16.1525L21.8296 16.1953L21.8477 16.2384L21.8654 16.2817L21.8826 16.3252L21.8994 16.3689L21.9158 16.4129L21.9317 16.4572L21.9472 16.5017L21.9622 16.5463L21.9768 16.5912L21.9909 16.6363L22.0045 16.6816L22.0177 16.7271L22.0304 16.7729L22.0428 16.8187L22.0546 16.8648L22.0659 16.9111L22.0768 16.9576L22.0872 17.0041L22.0971 17.051L22.1065 17.098L22.1154 17.145L22.1239 17.1924L22.1319 17.2398L22.1394 17.2873L22.1464 17.3351L22.1528 17.3829L22.1588 17.431L22.1644 17.4791L22.1694 17.5273L22.1739 17.5757L22.1779 17.6241L22.1814 17.6728L22.1844 17.7214L22.1868 17.7702L22.1888 17.8191L22.1903 17.8681L22.1912 17.9171L22.1916 17.9662L22.1915 18.0153L22.1909 18.0646L22.1898 18.114L22.1881 18.1633L22.186 18.2128L22.1832 18.2622L22.18 18.3118L22.1763 18.3613L22.172 18.4109L22.1672 18.4605L22.1619 18.5101L22.156 18.5597L22.1496 18.6094L22.1427 18.659L22.1353 18.7086L22.1272 18.7582L22.1187 18.8078L22.1096 18.8574L22.1 18.907L22.09 18.9565L22.0793 19.0061L22.0681 19.0555L22.0564 19.1049L22.0441 19.1543L22.0312 19.2037L22.018 19.2529L22.004 19.3021L21.9897 19.3511L21.9747 19.4002L21.9592 19.4491L21.9433 19.4979L21.9267 19.5467L21.9097 19.5954L21.892 19.6438L21.8738 19.6923L21.8552 19.7405L21.836 19.7888L21.8162 19.8368L21.796 19.8847L21.7752 19.9325L21.7538 19.9802L21.732 20.0276L21.7096 20.0749L21.6866 20.1221L21.6632 20.169L21.6392 20.2158L21.6148 20.2625L21.5897 20.3089L21.5642 20.3551L21.5382 20.4012L21.5116 20.447L21.4845 20.4927L21.457 20.5381L21.4289 20.5833L21.4003 20.6283L21.3712 20.673L21.3415 20.7176L21.3114 20.7618L21.2808 20.8059L21.2496 20.8497L21.218 20.8932L21.1859 20.9365L21.1532 20.9794L21.1201 21.0222L21.0865 21.0646L21.0525 21.1068L21.0179 21.1486L20.9828 21.1902L20.9473 21.2315L20.9112 21.2725L20.8748 21.3131L20.8378 21.3535L20.8004 21.3935L20.7625 21.4332L20.7241 21.4726L20.6853 21.5117L20.646 21.5503L20.6064 21.5887L20.5661 21.6267L20.5255 21.6643L20.4844 21.7016L20.4429 21.7386L20.401 21.7751L20.3586 21.8113L20.3158 21.847L20.2725 21.8825L20.2288 21.9175L20.1848 21.9521L20.1403 21.9863L20.0954 22.0201L20.05 22.0536L20.0044 22.0865L19.9582 22.1191L19.9117 22.1514L19.8648 22.183L19.8175 22.2144L19.7698 22.2452L19.7217 22.2757L19.6733 22.3057L19.6244 22.3352L19.5752 22.3642L19.5257 22.3929L19.4758 22.421L19.4255 22.4487L19.3749 22.476L19.324 22.5027L19.2727 22.529L19.221 22.5548L19.1691 22.5802L19.1168 22.6049L19.0641 22.6293L19.0112 22.6531L18.958 22.6764L18.9044 22.6993L18.8506 22.7216L18.7964 22.7433L18.742 22.7646L18.6873 22.7854L18.6322 22.8057L18.5769 22.8254L18.5214 22.8446L18.4656 22.8633L18.4095 22.8814L18.3532 22.8989L18.2966 22.916L18.2397 22.9325L18.1827 22.9485L18.1254 22.9639L18.0679 22.9787L18.0101 22.993L17.9521 23.0067L17.894 23.0199L17.8356 23.0325L17.777 23.0445L17.7182 23.056L17.6593 23.0669L17.6001 23.0772L17.5408 23.087L17.4813 23.0961L17.4216 23.1046L17.3619 23.1126L17.3019 23.1201L17.2418 23.1269L17.1816 23.133L17.1212 23.1387L17.0607 23.1437L17 23.1481L16.9392 23.1519L16.8784 23.1552L16.8175 23.1578L16.7564 23.1598L16.6953 23.1612L16.634 23.162L16.5728 23.1622L16.5114 23.1618L16.45 23.1608L16.3884 23.1591L16.3269 23.1569L16.2653 23.154L16.2037 23.1505L16.142 23.1464L16.0803 23.1417L16.0186 23.1363L15.9569 23.1303L15.8952 23.1237L15.8334 23.1165L15.7717 23.1086L15.71 23.1001L15.6483 23.0911L15.5866 23.0814L15.525 23.071L15.4634 23.0601L15.4019 23.0485L15.3404 23.0363L15.2789 23.0234L15.2176 23.01L15.1563 22.9958L15.0951 22.9811L15.0339 22.9658L14.9728 22.9498L14.912 22.9332L14.8511 22.916L14.7905 22.8981L14.7298 22.8797L14.6693 22.8605L14.609 22.8409L14.5488 22.8205L14.4888 22.7996L14.4289 22.778L14.3691 22.7558L14.3096 22.733L14.2501 22.7095L14.1909 22.6854L14.1319 22.6608L14.0731 22.6355L14.0144 22.6096L13.956 22.5831L13.8978 22.556L13.8397 22.5282L13.782 22.4999L13.7244 22.4709L13.6672 22.4414L13.6101 22.4113L13.5533 22.3806L13.4968 22.3492L13.4405 22.3173L13.3844 22.2847L13.3288 22.2516L13.2733 22.2179L13.2182 22.1836L13.1633 22.1487L13.1088 22.1133L13.0545 22.0772L13.0006 22.0405L12.9471 22.0033L12.8938 21.9656L12.8408 21.9273L12.7883 21.8883L12.736 21.8489L12.6842 21.8089L12.6327 21.7682L12.5816 21.7271L12.5308 21.6854L12.4804 21.6432L12.4304 21.6004L12.3808 21.557L12.3316 21.5132L12.2828 21.4688L12.2344 21.4238L12.1864 21.3784L12.1388 21.3324L12.0916 21.2859L12.045 21.2389L11.9988 21.1914L11.9529 21.1433L11.9076 21.0948L11.8627 21.0457L11.8183 20.9961L11.7743 20.9461L11.7308 20.8956L11.6878 20.8446L11.6452 20.7931L11.6032 20.7411L11.5617 20.6887L11.5207 20.6358L11.4801 20.5825L11.4401 20.5286L11.4007 20.4744L11.3617 20.4197L11.3232 20.3645L11.2853 20.3089L11.248 20.2529L11.2112 20.1964L11.1749 20.1395L11.1392 20.0822L11.104 20.0245L11.0694 19.9664L11.0354 19.9079L11.002 19.8489L10.9691 19.7897L10.9368 19.73L10.9051 19.6699L10.874 19.6094L10.8434 19.5486L10.8135 19.4875L10.7842 19.4259L10.7555 19.3641L10.7274 19.3018L10.7 19.2393L10.6731 19.1763L10.6468 19.1131L10.6212 19.0495L10.5963 18.9857L10.572 18.9214L10.5484 18.8569L10.5253 18.7922L10.5029 18.7271L10.4812 18.6617L10.4601 18.5961L10.4397 18.5301L10.42 18.464L10.4008 18.3975L10.3824 18.3308L10.3648 18.2638L10.3476 18.1966L10.3313 18.1292L10.3156 18.0616L10.3006 17.9937L10.2863 17.9256L10.2727 17.8573L10.2597 17.7888L10.2475 17.7201L10.236 17.6512L10.2252 17.5821L10.215 17.5129L10.2056 17.4435L10.1969 17.3739L10.1889 17.3042L10.1816 17.2343L10.1751 17.1643L10.1692 17.0942L10.1641 17.0239L10.1597 16.9535L10.156 16.883L10.1531 16.8125L10.1508 16.7418L10.1494 16.6709L10.1487 16.6001L10.1486 16.5292L10.1493 16.4582L10.1508 16.3871L10.153 16.316L10.156 16.2448L10.1596 16.1736L10.1641 16.1024L10.1692 16.0311L10.1751 15.9598L10.1817 15.8885L10.1891 15.8173L10.1972 15.746L10.2061 15.6747L10.2157 15.6035L10.2261 15.5323L10.2372 15.4611L10.2492 15.39L10.2617 15.3189L10.2751 15.2478L10.2892 15.1769L10.3041 15.106L10.3197 15.0352L10.336 14.9645L10.3532 14.8939L10.371 14.8233L10.3896 14.7529L10.409 14.6827L10.4291 14.6125L10.4499 14.5425L10.4715 14.4726L10.4938 14.4029L10.5168 14.3333L10.5407 14.2639L10.5652 14.1946L10.5905 14.1256L10.6165 14.0567L10.6433 13.9881L10.6708 13.9196L10.6991 13.8513L10.728 13.7833L10.7577 13.7154L10.7882 13.6478L10.8193 13.5805L10.8512 13.5133L10.8838 13.4465L10.9172 13.3799L10.9512 13.3136L10.986 13.2476L11.0214 13.1818L11.0576 13.1164L11.0945 13.0512L11.1321 12.9863L11.1704 12.9218L11.2095 12.8576L11.2492 12.7937L11.2896 12.7302L11.3308 12.6669L11.3725 12.604L11.415 12.5415L11.4582 12.4793L11.502 12.4176L11.5466 12.3562L11.5918 12.2952L11.6376 12.2345L11.6842 12.1744L11.7314 12.1145L11.7793 12.0552L11.8279 11.9961L11.877 11.9377L11.9268 11.8795L11.9773 11.8218L12.0284 11.7646L12.0802 11.7078L12.1326 11.6516L12.1856 11.5957L12.2393 11.5404L12.2936 11.4855L12.3484 11.4311L12.404 11.3772L12.46 11.3238L12.5168 11.2709L12.574 11.2185L12.6319 11.1667L12.6904 11.1153L12.7495 11.0646L12.8091 11.0143L12.8693 10.9646L12.93 10.9155L12.9914 10.8669L13.0532 10.8189L13.1157 10.7714L13.1787 10.7245L13.2422 10.6782L13.3063 10.6325L13.3708 10.5874L13.436 10.5429L13.5016 10.499L13.5677 10.4557L13.6344 10.413L13.7016 10.3709L13.7692 10.3295L13.8373 10.2887L13.9059 10.2485L13.975 10.209L14.0445 10.1701L14.1145 10.1319L14.185 10.0944L14.2559 10.0575L14.3272 10.0213L14.399 9.98575L14.4712 9.95087L14.5439 9.91671L14.6169 9.88319L14.6904 9.85039L14.7642 9.81831L14.8385 9.78687L14.9132 9.75615L14.9881 9.72623L15.0636 9.69695L15.1393 9.66839L15.2154 9.64055L15.2919 9.61351L15.3688 9.58711L15.4459 9.56151L15.5234 9.53663L15.6012 9.51247L15.6793 9.48911L15.7577 9.46647L15.8364 9.44463L15.9155 9.42351L15.9948 9.40311L16.0744 9.38351L16.1542 9.36471L16.2344 9.34671L16.3147 9.32943L16.3953 9.31295L16.4761 9.29727L16.5167 9.28975ZM17.5102 15.098L16.5881 15.3183L16.534 10.7507L16.4905 10.7605L16.4251 10.7759L16.3597 10.792L16.2948 10.8086L16.23 10.8259L16.1656 10.8438L16.1012 10.8625L16.0375 10.8815L15.9736 10.9013L15.9104 10.9216L15.8472 10.9426L15.7843 10.9642L15.7217 10.9864L15.6594 11.0091L15.5976 11.0324L15.536 11.0564L15.4746 11.0809L15.4136 11.1059L15.3528 11.1317L15.2927 11.1577L15.2326 11.1846L15.1731 11.2119L15.1136 11.2399L15.0548 11.2683L14.996 11.2973L14.938 11.3269L14.8801 11.3569L14.8227 11.3876L14.7656 11.4187L14.7089 11.4504L14.6526 11.4826L14.5969 11.5153L14.5412 11.5486L14.4861 11.5823L14.4316 11.6165L14.3773 11.6513L14.3234 11.6865L14.27 11.7223L14.2171 11.7585L14.1645 11.7952L14.1125 11.8323L14.0608 11.87L14.0096 11.9081L13.9588 11.9467L13.9085 11.9858L13.8588 12.0251L13.8095 12.065L13.7605 12.1054L13.7121 12.1463L13.6642 12.1874L13.6168 12.2291L13.5698 12.2711L13.5233 12.3136L13.4773 12.3565L13.4319 12.3998L13.3869 12.4434L13.3424 12.4876L13.2984 12.532L13.255 12.5769L13.2121 12.622L13.1696 12.6677L13.1277 12.7136L13.0864 12.7599L13.0455 12.8066L13.0052 12.8535L12.9654 12.9009L12.9263 12.9485L12.8875 12.9966L12.8494 13.0449L12.8117 13.0936L12.7747 13.1426L12.7382 13.1918L12.7022 13.2414L12.6668 13.2912L12.632 13.3414L12.5976 13.3918L12.564 13.4426L12.5308 13.4935L12.4983 13.5447L12.4662 13.5963L12.4348 13.648L12.4039 13.7001L12.3736 13.7522L12.3439 13.8048L12.3147 13.8575L12.2862 13.9104L12.2582 13.9635L12.2308 14.0169L12.204 14.0705L12.1778 14.1241L12.1521 14.1782L12.1271 14.2323L12.1027 14.2866L12.0788 14.3411L12.0555 14.3958L12.0328 14.4505L12.0108 14.5056L11.9893 14.5607L11.9684 14.616L11.9481 14.6713L11.9284 14.7269L11.9093 14.7825L11.8908 14.8383L11.8729 14.8941L11.8556 14.9502L11.8389 15.0063L11.8229 15.0624L11.8074 15.1187L11.7924 15.1751L11.7782 15.2315L11.7645 15.288L11.7514 15.3446L11.7389 15.4012L11.7271 15.4579L11.7158 15.5145L11.7051 15.5713L11.695 15.6281L11.6856 15.6849L11.6767 15.7417L11.6684 15.7986L11.6607 15.8553L11.6536 15.9123L11.6472 15.969L11.6412 16.0259L11.636 16.0829L11.6312 16.1396L11.6272 16.1964L11.6236 16.2532L11.6207 16.3098L11.6184 16.3665L11.6166 16.423L11.6155 16.4797L11.6148 16.5361L11.6149 16.5926L11.6155 16.6489L11.6167 16.7052L11.6184 16.7614L11.6208 16.8174L11.6236 16.8734L11.6272 16.9293L11.6312 16.985L11.6359 17.0407L11.6411 17.0962L11.6468 17.1517L11.6532 17.2069L11.66 17.2621L11.6675 17.317L11.6756 17.372L11.6841 17.4266L11.6932 17.4812L11.7029 17.5357L11.7132 17.5898L11.724 17.6439L11.7352 17.6977L11.7472 17.7514L11.7596 17.8049L11.7725 17.8582L11.786 17.9112L11.8 17.9642L11.8145 18.0168L11.8296 18.0693L11.8452 18.1215L11.8612 18.1736L11.8779 18.2253L11.895 18.2768L11.9127 18.3282L11.9309 18.3793L11.9495 18.43L11.9686 18.4806L11.9883 18.531L12.0084 18.5809L12.0291 18.6307L12.0501 18.6802L12.0718 18.7294L12.0939 18.7784L12.1164 18.827L12.1395 18.8753L12.1629 18.9233L12.187 18.9713L12.2113 19.0186L12.2362 19.0657L12.2616 19.1126L12.2874 19.1591L12.3136 19.2054L12.3403 19.2513L12.3674 19.2967L12.395 19.342L12.4229 19.3869L12.4513 19.4313L12.4802 19.4756L12.5094 19.5194L12.5391 19.563L12.5691 19.606L12.5996 19.6489L12.6304 19.6913L12.6616 19.7333L12.6934 19.775L12.7254 19.8163L12.7578 19.8572L12.7906 19.8977L12.8238 19.938L12.8572 19.9777L12.8912 20.0171L12.9255 20.0562L12.96 20.0947L12.9952 20.1329L13.0304 20.1706L13.066 20.2082L13.102 20.2451L13.1383 20.2817L13.175 20.3178L13.212 20.3536L13.2492 20.389L13.2868 20.4238L13.3248 20.4583L13.363 20.4924L13.4015 20.526L13.4403 20.5592L13.4793 20.592L13.5187 20.6243L13.5584 20.6562L13.5984 20.6877L13.6384 20.7186L13.6789 20.7492L13.7196 20.7793L13.7606 20.809L13.8018 20.8382L13.8432 20.867L13.8849 20.8953L13.9268 20.9232L13.9689 20.9506L14.0112 20.9775L14.054 21.0041L14.0967 21.03L14.1397 21.0556L14.1829 21.0807L14.2262 21.1053L14.2697 21.1294L14.3136 21.1532L14.3576 21.1764L14.4016 21.1991L14.4459 21.2213L14.4904 21.2432L14.5349 21.2645L14.5798 21.2853L14.6247 21.3057L14.6696 21.3256L14.7149 21.345L14.7603 21.364L14.8056 21.3825L14.8512 21.4005L14.8969 21.4179L14.9429 21.4349L14.9886 21.4515L15.0348 21.4676L15.0808 21.4831L15.1269 21.4982L15.1733 21.5129L15.2196 21.527L15.266 21.5406L15.3125 21.5538L15.3592 21.5665L15.4058 21.5787L15.4524 21.5904L15.4992 21.6017L15.5459 21.6124L15.5927 21.6226L15.6396 21.6325L15.6864 21.6418L15.7333 21.6506L15.7802 21.6589L15.8272 21.6669L15.8741 21.6742L15.9211 21.6812L15.9679 21.6876L16.0148 21.6935L16.0617 21.699L16.1087 21.7041L16.1556 21.7085L16.2024 21.7126L16.2492 21.7162L16.296 21.7194L16.3428 21.722L16.3894 21.7241L16.436 21.7259L16.4827 21.7271L16.5291 21.7279L16.5755 21.7282L16.6219 21.7281L16.6681 21.7275L16.7144 21.7264L16.7606 21.7249L16.8065 21.7229L16.8524 21.7205L16.8984 21.7176L16.944 21.7142L16.9897 21.7105L17.0352 21.7062L17.0806 21.7016L17.1259 21.6964L17.1709 21.6909L17.216 21.6849L17.2608 21.6784L17.3055 21.6715L17.3502 21.6642L17.3946 21.6565L17.4388 21.6483L17.483 21.6397L17.527 21.6306L17.5707 21.6212L17.6142 21.6113L17.6577 21.601L17.701 21.5903L17.744 21.5793L17.7869 21.5677L17.8296 21.5558L17.8722 21.5434L17.9144 21.5307L17.9564 21.5176L17.9984 21.504L18.0401 21.4901L18.0815 21.4758L18.1227 21.4611L18.1636 21.446L18.2045 21.4305L18.2451 21.4146L18.2853 21.3984L18.3254 21.3818L18.3652 21.3648L18.4049 21.3474L18.4441 21.3297L18.4833 21.3117L18.5221 21.2933L18.5606 21.2745L18.599 21.2554L18.6369 21.2359L18.6748 21.2161L18.7123 21.1958L18.7495 21.1754L18.7864 21.1545L18.8231 21.1334L18.8595 21.1118L18.8955 21.09L18.9312 21.0678L18.9668 21.0453L19.002 21.0226L19.0369 20.9995L19.0715 20.9761L19.1058 20.9524L19.1398 20.9284L19.1734 20.9042L19.2068 20.8795L19.2398 20.8546L19.2725 20.8294L19.3049 20.804L19.3371 20.7782L19.3688 20.7523L19.4002 20.7261L19.4312 20.6995L19.462 20.6727L19.4925 20.6457L19.5225 20.6183L19.5523 20.5908L19.5816 20.563L19.6107 20.5349L19.6394 20.5066L19.6678 20.4781L19.6958 20.4494L19.7234 20.4204L19.7507 20.3913L19.7777 20.3617L19.8042 20.3322L19.8305 20.3023L19.8564 20.2722L19.8818 20.2421L19.9071 20.2115L19.9317 20.181L19.9562 20.1501L19.9803 20.1191L20.0039 20.0879L20.0273 20.0565L20.0501 20.025L20.0727 19.9932L20.0949 19.9613L20.1167 19.9293L20.1381 19.897L20.1593 19.8647L20.1798 19.8322L20.2001 19.7996L20.22 19.7668L20.2396 19.7338L20.2588 19.7008L20.2775 19.6676L20.2959 19.6343L20.3139 19.6008L20.3315 19.5674L20.3487 19.5337L20.3656 19.4999L20.382 19.4661L20.3981 19.432L20.4138 19.398L20.4291 19.3638L20.444 19.3297L20.4585 19.2953L20.4726 19.261L20.4864 19.2263L20.4997 19.192L20.5128 19.1571L20.5252 19.1228L20.5375 19.0879L20.5493 19.053L20.5607 19.0183L20.5717 18.9834L20.5824 18.9486L20.5927 18.9134L20.6024 18.8787L20.6121 18.8434L20.6211 18.8087L20.6298 18.7735L20.6381 18.7383L20.646 18.7034L20.6536 18.6685L20.6608 18.6331L20.6676 18.5982L20.674 18.5629L20.68 18.528L20.6856 18.4929L20.6909 18.4578L20.6958 18.4227L20.7003 18.3877L20.7045 18.3528L20.7082 18.318L20.7116 18.2829L20.7146 18.2481L20.7172 18.2132L20.7195 18.1784L20.7214 18.1437L20.7229 18.109L20.7241 18.0746L20.7248 18.0398L20.7253 18.0052L20.7254 17.9709L20.7251 17.9366L20.7244 17.9023L20.7234 17.8681L20.722 17.8338L20.7203 17.8001L20.7182 17.7657L20.7158 17.7322L20.713 17.6985L20.7099 17.6646L20.7064 17.6311L20.7026 17.5979L20.6984 17.5642L20.6939 17.5313L20.689 17.4981L20.6839 17.4653L20.6783 17.4323L20.6724 17.3995L20.6663 17.367L20.6598 17.3346L20.6529 17.3021L20.6457 17.2701L20.6383 17.238L20.6304 17.2062L20.6224 17.1746L20.6138 17.1427L20.6052 17.1115L20.5961 17.08L20.5867 17.049L20.577 17.0181L20.567 16.9873L20.5567 16.9567L20.546 16.9261L20.5352 16.8961L20.524 16.8661L20.5125 16.836L20.5008 16.8064L20.4887 16.7766L20.4764 16.7476L20.4637 16.7182L20.4509 16.6894L20.4377 16.6607L20.4243 16.6321L20.4106 16.6038L20.3966 16.5756L20.3824 16.5476L20.3679 16.5199L20.3531 16.4924L20.3381 16.4651L20.3228 16.438L20.3072 16.4111L20.2916 16.3845L20.2756 16.3581L20.2593 16.3317L20.2428 16.3059L20.226 16.2801L20.2091 16.2546L20.1919 16.2293L20.1745 16.2043L20.1569 16.1794L20.139 16.1549L20.1209 16.1305L20.1026 16.1065L20.0842 16.0826L20.0654 16.0589L20.0465 16.0357L20.0274 16.0125L20.0081 15.9897L19.9886 15.967L19.969 15.9447L19.9491 15.9226L19.929 15.9008L19.9088 15.8791L19.8884 15.8578L19.8677 15.8368L19.8469 15.8159L19.826 15.7954L19.8049 15.7752L19.7837 15.7552L19.7621 15.7353L19.7407 15.7159L19.7189 15.6966L19.6971 15.6777L19.675 15.659L19.6528 15.6407L19.6305 15.6226L19.6081 15.6047L19.5856 15.5871L19.5628 15.5697L19.5401 15.5528L19.5171 15.536L19.494 15.5195L19.4708 15.5033L19.4476 15.4873L19.4242 15.4718L19.4007 15.4564L19.377 15.4413L19.3534 15.4265L19.3295 15.4119L19.3056 15.3977L19.2817 15.3837L19.2577 15.3701L19.2334 15.3566L19.2092 15.3435L19.185 15.3306L19.1606 15.3181L19.1363 15.3058L19.1116 15.2937L19.0872 15.2821L19.0625 15.2707L19.0379 15.2595L19.0132 15.2486L18.9883 15.238L18.9636 15.2277L18.9387 15.2177L18.9137 15.208L18.8888 15.1985L18.8639 15.1893L18.8389 15.1805L18.8139 15.1718L18.7888 15.1634L18.7639 15.1554L18.7388 15.1476L18.7136 15.1401L18.6887 15.1329L18.6634 15.1259L18.6384 15.1193L18.6133 15.1129L18.5882 15.1067L18.5631 15.1009L18.538 15.0953L18.5129 15.09L18.4879 15.0849L18.4629 15.0801L18.438 15.0757L18.4128 15.0714L18.3881 15.0675L18.3629 15.0638L18.3382 15.0604L18.3132 15.0572L18.2885 15.0543L18.2638 15.0517L18.239 15.0493L18.2144 15.0472L18.1897 15.0453L18.1652 15.0437L18.1406 15.0424L18.1161 15.0414L18.0919 15.0405L18.0675 15.0399L18.0432 15.0396L18.019 15.0395L17.9949 15.0397L17.9708 15.0401L17.9469 15.0408L17.923 15.0417L17.8993 15.0429L17.8755 15.0443L17.852 15.0459L17.8284 15.0477L17.805 15.0499L17.7817 15.0522L17.7584 15.0548L17.7353 15.0576L17.7123 15.0606L17.6894 15.0639L17.6665 15.0674L17.6439 15.0711L17.6213 15.075L17.5989 15.0792L17.5765 15.0836L17.5543 15.0881L17.5321 15.0929L17.5102 15.098Z" fill="#CBD5E1"/>
</svg>
