<svg width="34" height="33" viewBox="0 0 34 33" fill="none" xmlns="http://www.w3.org/2000/svg">
<path d="M23.4828 26.6253L2.07016 11.8549C-0.099749 10.3582 0.637877 7.24174 3.3437 6.50889L26.1015 0.332176C26.5836 0.158226 27.1001 0.101758 27.6085 0.167464C28.1167 0.23317 28.602 0.419152 29.024 0.709977C29.446 1.0008 29.7926 1.38808 30.0349 1.83967C30.2772 2.29125 30.4083 2.79413 30.4174 3.30655L29.0687 24.2525C28.9087 26.7387 25.6527 28.1221 23.4828 26.6253Z" fill="#CBD5E1"/>
<path d="M16.6914 30.2712L4.07652 5.60142C3.78815 5.03705 3.66126 4.40399 3.70983 3.77208C3.75839 3.14017 3.98054 2.53394 4.35175 2.02027C4.72298 1.50659 5.22885 1.10541 5.81359 0.860967C6.39833 0.616524 7.03922 0.538321 7.66558 0.634989L31.044 4.24313C31.5822 4.32622 32.0931 4.53587 32.5346 4.85485C32.9759 5.17384 33.3353 5.59305 33.5832 6.07801C33.831 6.56297 33.9603 7.09982 33.9602 7.64445C33.96 8.18906 33.8307 8.72589 33.5828 9.21077L22.8132 30.2724C22.524 30.8352 22.0852 31.3074 21.5451 31.6369C21.005 31.9666 20.3846 32.1408 19.7519 32.1407C19.1192 32.1406 18.4988 31.9661 17.9588 31.6363C17.4188 31.3064 16.9803 30.8341 16.6914 30.2712Z" fill="#CBD5E1"/>
<path d="M24.3809 8.8678L19.8921 8.14087L14.3809 9.71098L16.5807 14.2264L21.7319 17.9561C21.8456 18.0375 21.9706 18.0998 22.1024 18.1409L24.059 14.1261L24.3809 8.8678Z" fill="#0F172A"/>
</svg>
