<svg width="21" height="17" viewBox="0 0 21 17" fill="none" xmlns="http://www.w3.org/2000/svg">
<path d="M20.3359 2.04754C19.5863 2.37492 18.7924 2.58958 17.9799 2.68454C18.8327 2.18378 19.474 1.38965 19.7839 0.450545C18.9759 0.920873 18.0947 1.25215 17.1769 1.43054C16.7905 1.02575 16.3256 0.703932 15.8107 0.484723C15.2958 0.265514 14.7416 0.15351 14.1819 0.155545C11.9159 0.155545 10.0789 1.96554 10.0789 4.19554C10.0789 4.51154 10.1149 4.82054 10.1849 5.11554C8.55951 5.03824 6.96805 4.62295 5.51211 3.89618C4.05616 3.16942 2.7677 2.14713 1.72894 0.894545C1.36476 1.50895 1.17335 2.21033 1.17494 2.92454C1.17563 3.59251 1.34277 4.24977 1.66123 4.83694C1.97969 5.4241 2.43944 5.92266 2.99894 6.28754C2.34842 6.26654 1.71196 6.09287 1.14094 5.78054V5.83054C1.14094 7.78854 2.55594 9.42155 4.43094 9.79354C4.07855 9.88704 3.71552 9.93444 3.35094 9.93454C3.08594 9.93454 2.82894 9.90954 2.57794 9.85954C2.84602 10.6675 3.35904 11.3719 4.04576 11.8749C4.73247 12.3779 5.55878 12.6546 6.40994 12.6665C4.95001 13.7911 3.15776 14.3986 1.31494 14.3935C0.982937 14.3935 0.656938 14.3735 0.335938 14.3375C2.21719 15.5283 4.39853 16.1588 6.62494 16.1555C14.1719 16.1555 18.2979 9.99854 18.2979 4.65954L18.2839 4.13654C19.0888 3.57021 19.7841 2.86239 20.3359 2.04754Z" fill="#E2E8F0"/>
</svg>
