<svg width="14" height="10" viewBox="0 0 14 10" fill="none" xmlns="http://www.w3.org/2000/svg">
<path d="M5.48623 9.87088C5.35497 9.87115 5.22494 9.8455 5.10361 9.79539C4.98229 9.74528 4.87205 9.6717 4.77923 9.57889L0.537232 5.33589C0.441659 5.24371 0.365401 5.13341 0.312907 5.01145C0.260414 4.88948 0.232736 4.75828 0.231489 4.62551C0.230243 4.49273 0.255452 4.36103 0.305646 4.2381C0.35584 4.11517 0.430013 4.00347 0.523839 3.90951C0.617664 3.81555 0.729262 3.74122 0.852122 3.69085C0.974981 3.64048 1.10664 3.61509 1.23942 3.61615C1.3722 3.61721 1.50344 3.6447 1.62548 3.69702C1.74752 3.74934 1.85792 3.82544 1.95023 3.92089L5.48523 7.45589L11.8502 1.09289C12.0377 0.905245 12.2921 0.799776 12.5574 0.799683C12.8226 0.799589 13.0771 0.904877 13.2647 1.09239C13.4524 1.27989 13.5578 1.53426 13.5579 1.79953C13.558 2.0648 13.4527 2.31924 13.2652 2.50689L6.19323 9.57889C6.10041 9.6717 5.99018 9.74528 5.86885 9.79539C5.74752 9.8455 5.6175 9.87115 5.48623 9.87088Z" fill="#818CF8"/>
</svg>
