<svg width="22" height="33" viewBox="0 0 22 33" fill="none" xmlns="http://www.w3.org/2000/svg">
<path d="M10.1659 20.1226V28.2434C10.1659 28.5547 10.0422 28.8533 9.82209 29.0733C9.60205 29.2934 9.3035 29.4171 8.99215 29.4171C8.68091 29.4171 8.38237 29.2934 8.16222 29.0733C7.94207 28.8533 7.81841 28.5547 7.81841 28.2434V20.1338C8.14526 20.3725 8.53703 20.5057 8.94161 20.5157C9.38258 20.5283 9.81467 20.3896 10.1659 20.1226ZM20.1624 17.7751C19.8645 17.7751 19.5788 17.8935 19.3682 18.1041C19.1576 18.3147 19.0392 18.6005 19.0392 18.8983V20.3136C19.0392 20.6249 19.1629 20.9235 19.383 21.1435C19.603 21.3636 19.9016 21.4873 20.2129 21.4873C20.5243 21.4873 20.8228 21.3636 21.0429 21.1435C21.263 20.9235 21.3867 20.6249 21.3867 20.3136V18.9545C21.3954 18.7934 21.3694 18.6324 21.3103 18.4823C21.2512 18.3322 21.1606 18.1966 21.0443 18.0847C20.9282 17.9728 20.7892 17.8872 20.6372 17.8338C20.485 17.7804 20.323 17.7604 20.1624 17.7751ZM5.26874 23.2002C4.86458 23.1881 4.47332 23.0551 4.14554 22.8183V30.9615C4.14554 31.2743 4.26979 31.5743 4.49097 31.7955C4.71214 32.0166 5.01211 32.1409 5.3249 32.1409C5.63769 32.1409 5.93766 32.0166 6.15883 31.7955C6.38001 31.5743 6.50426 31.2743 6.50426 30.9615V22.8745C6.13748 23.1116 5.70472 23.2257 5.26874 23.2002ZM16.5008 15.3378C16.3486 15.3301 16.1965 15.3536 16.0536 15.4066C15.9108 15.4596 15.7803 15.5412 15.6699 15.6462C15.5596 15.7513 15.4719 15.8777 15.4119 16.0178C15.3521 16.1578 15.3212 16.3087 15.3214 16.461V22.7172C15.3214 23.03 15.4456 23.33 15.6668 23.5512C15.888 23.7723 16.1879 23.8966 16.5008 23.8966C16.8136 23.8966 17.1136 23.7723 17.3347 23.5512C17.5559 23.33 17.6801 23.03 17.6801 22.7172V16.5396C17.6891 16.3775 17.6628 16.2155 17.6031 16.0645C17.5433 15.9135 17.4517 15.7773 17.3342 15.6652C17.2167 15.5531 17.0764 15.4677 16.9229 15.4152C16.7693 15.3625 16.6061 15.3437 16.4446 15.3602L16.5008 15.3378ZM12.7717 17.7414C12.3486 17.7385 11.9368 17.6052 11.5924 17.3595V25.5252C11.5924 25.838 11.7166 26.138 11.9377 26.3592C12.159 26.5804 12.4589 26.7046 12.7717 26.7046C13.0845 26.7046 13.3844 26.5804 13.6057 26.3592C13.8269 26.138 13.9511 25.838 13.9511 25.5252V17.3708C13.5948 17.6362 13.1598 17.7746 12.7156 17.7639L12.7717 17.7414ZM2.71907 23.9977V1.18545C2.71612 0.907375 2.60357 0.641716 2.40589 0.446133C2.20821 0.25055 1.94135 0.140858 1.66326 0.140869H1.41616C1.13808 0.140858 0.871217 0.25055 0.673534 0.446133C0.47585 0.641716 0.363306 0.907375 0.360352 1.18545V23.9977C0.360352 24.2777 0.471593 24.5462 0.669591 24.7443C0.867589 24.9423 1.13615 25.0535 1.41616 25.0535H1.66326C1.94329 25.0535 2.21184 24.9423 2.40983 24.7443C2.60784 24.5462 2.71907 24.2777 2.71907 23.9977ZM5.39229 22.3353H5.14519C4.86517 22.3353 4.59662 22.2241 4.39862 22.0261C4.20062 21.8281 4.08938 21.5595 4.08938 21.2795V3.90359C4.09234 3.62553 4.20488 3.35985 4.40256 3.16428C4.60024 2.9687 4.86711 2.859 5.14519 2.85902H5.39229C5.67037 2.859 5.93724 2.9687 6.13492 3.16428C6.3326 3.35985 6.44515 3.62553 6.4481 3.90359V21.302C6.4481 21.582 6.33686 21.8505 6.13886 22.0486C5.94086 22.2466 5.67231 22.3578 5.39229 22.3578V22.3353ZM9.11009 19.6621H8.85175C8.57477 19.6621 8.30902 19.552 8.11313 19.3561C7.91725 19.1603 7.80718 18.8946 7.80718 18.6175V6.59928C7.80572 6.46116 7.83166 6.32411 7.88344 6.19608C7.93522 6.06805 8.01193 5.95157 8.10909 5.85338C8.20625 5.75519 8.32194 5.67724 8.44942 5.62405C8.57691 5.57085 8.7136 5.54346 8.85175 5.54347H9.11009C9.38819 5.54643 9.65383 5.65897 9.84938 5.85665C10.045 6.05433 10.1547 6.32119 10.1547 6.59928V18.6175C10.1547 18.8946 10.0446 19.1603 9.84871 19.3561C9.65282 19.552 9.38718 19.6621 9.11009 19.6621ZM12.8279 16.9103H12.592C12.3139 16.9103 12.047 16.8006 11.8494 16.605C11.6517 16.4094 11.5391 16.1438 11.5362 15.8657V9.39605C11.527 9.25183 11.5474 9.10727 11.5964 8.97125C11.6453 8.83534 11.7216 8.71078 11.8206 8.60554C11.9196 8.50018 12.0391 8.41639 12.1718 8.35911C12.3045 8.30194 12.4475 8.27251 12.592 8.27285H12.8391C13.1191 8.27285 13.3877 8.38404 13.5857 8.58206C13.7837 8.78008 13.8949 9.04864 13.8949 9.32865V15.8432C13.8964 15.9828 13.8702 16.1213 13.8178 16.2507C13.7654 16.3801 13.6879 16.4978 13.5896 16.5971C13.4915 16.6963 13.3747 16.775 13.2457 16.8288C13.1169 16.8826 12.9787 16.9103 12.8391 16.9103H12.8279ZM16.5569 14.4954H16.3098C16.0298 14.4954 15.7612 14.3842 15.5632 14.1862C15.3652 13.9881 15.254 13.7196 15.254 13.4396V11.766C15.2569 11.4879 15.3695 11.2223 15.5671 11.0267C15.7648 10.831 16.0317 10.7214 16.3098 10.7214H16.5569C16.835 10.7214 17.1019 10.831 17.2996 11.0267C17.4973 11.2223 17.6098 11.4879 17.6127 11.766V13.4396C17.6127 13.7177 17.5031 13.9845 17.3074 14.1822C17.1119 14.3799 16.8462 14.4925 16.5681 14.4954H16.5569Z" fill="#CBD5E1"/>
</svg>
