<svg width="21" height="15" viewBox="0 0 21 15" fill="none" xmlns="http://www.w3.org/2000/svg">
<path d="M16.1479 0.157738H4.48094C2.19094 0.157738 0.335938 1.99274 0.335938 4.25674V10.0247C0.335938 12.2887 2.19194 14.1247 4.48094 14.1247H16.1479C18.4379 14.1247 20.2929 12.2887 20.2929 10.0247V4.25674C20.2929 1.99274 18.4369 0.156738 16.1479 0.156738V0.157738ZM13.3449 7.42074L7.88794 9.99574C7.85465 10.0118 7.81786 10.0191 7.78097 10.0171C7.74408 10.0151 7.70831 10.0038 7.67697 9.9842C7.64563 9.96464 7.61975 9.93747 7.60174 9.90521C7.58372 9.87296 7.57416 9.83668 7.57394 9.79974V4.49074C7.5746 4.45361 7.58466 4.41726 7.60316 4.38506C7.62166 4.35287 7.64801 4.32588 7.67976 4.30662C7.7115 4.28735 7.74761 4.27643 7.78471 4.27488C7.82181 4.27333 7.8587 4.28119 7.89194 4.29774L13.3499 7.03274C13.3863 7.05087 13.4168 7.07888 13.4379 7.11356C13.4591 7.14825 13.47 7.18819 13.4695 7.22881C13.469 7.26943 13.457 7.30908 13.435 7.3432C13.413 7.37733 13.3817 7.40455 13.3449 7.42174V7.42074Z" fill="#E2E8F0"/>
</svg>
