<svg width="33" height="33" viewBox="0 0 33 33" fill="none" xmlns="http://www.w3.org/2000/svg">
<path fill-rule="evenodd" clip-rule="evenodd" d="M16.9605 32.1409C25.797 32.1409 32.9605 24.9774 32.9605 16.1409C32.9605 7.30432 25.797 0.140869 16.9605 0.140869C8.12388 0.140869 0.960449 7.30432 0.960449 16.1409C0.960449 24.9774 8.12388 32.1409 16.9605 32.1409ZM21.9519 7.59435C22.1949 6.73131 21.3574 6.22098 20.5925 6.76591L9.91495 14.3725C9.08543 14.9635 9.21591 16.1409 10.1109 16.1409H12.9226V16.1191H18.4025L13.9374 17.6945L11.969 24.6874C11.7261 25.5505 12.5635 26.0608 13.3285 25.5158L24.006 17.9093C24.8355 17.3183 24.705 16.1409 23.81 16.1409H19.5462L21.9519 7.59435Z" fill="#CBD5E1"/>
</svg>
